G75*
%MOIN*%
%OFA0B0*%
%FSLAX24Y24*%
%IPPOS*%
%LPD*%
%AMOC8*
5,1,8,0,0,1.08239X$1,22.5*
%
%ADD10R,0.0591X0.0434*%
%ADD11C,0.2340*%
%ADD12OC8,0.0640*%
%ADD13R,0.0473X0.0434*%
%ADD14R,0.0290X0.0540*%
%ADD15R,0.0434X0.0473*%
%ADD16C,0.1163*%
%ADD17R,0.0434X0.0591*%
%ADD18OC8,0.0749*%
%ADD19R,0.0394X0.0178*%
D10*
X003139Y006938D03*
X004005Y007312D03*
X003139Y007686D03*
X003139Y008513D03*
X004005Y008887D03*
X003139Y009261D03*
D11*
X001800Y001800D03*
X030540Y001800D03*
D12*
X030961Y004359D03*
X029961Y004359D03*
X029961Y005540D03*
X030961Y005540D03*
X030961Y006721D03*
X029961Y006721D03*
X029961Y007902D03*
X030961Y007902D03*
X013765Y007993D03*
X012765Y007993D03*
X011765Y007993D03*
X010765Y007993D03*
X009765Y007993D03*
X008765Y007993D03*
X007765Y007993D03*
X006765Y007993D03*
X006765Y008993D03*
X007765Y008993D03*
X008765Y008993D03*
X009765Y008993D03*
X010765Y008993D03*
X011765Y008993D03*
X012765Y008993D03*
X013765Y008993D03*
D13*
X015442Y009477D03*
X016111Y009477D03*
X017017Y010461D03*
X017686Y010461D03*
X018591Y010461D03*
X019261Y010461D03*
X019261Y011446D03*
X018591Y011446D03*
X017686Y011446D03*
X017017Y011446D03*
X021229Y007706D03*
X021898Y007706D03*
X019654Y007312D03*
X018985Y007312D03*
X018080Y007312D03*
X017410Y007312D03*
X018985Y006328D03*
X019654Y006328D03*
X026859Y008099D03*
X027528Y008099D03*
X028040Y006524D03*
X028709Y006524D03*
X028709Y005343D03*
X028040Y005343D03*
X028040Y004359D03*
X028709Y004359D03*
X009221Y002981D03*
X008552Y002981D03*
X006269Y002981D03*
X005599Y002981D03*
X005599Y005737D03*
X006269Y005737D03*
X008552Y005737D03*
X009221Y005737D03*
D14*
X003338Y011367D03*
X003018Y011367D03*
X001763Y011367D03*
X001443Y011367D03*
D15*
X001603Y009221D03*
X001603Y008552D03*
X001603Y007646D03*
X001603Y006977D03*
X005343Y006780D03*
X005343Y007450D03*
X005343Y008552D03*
X005343Y009221D03*
X015383Y008631D03*
X016170Y008631D03*
X016170Y007961D03*
X015383Y007961D03*
X021091Y008552D03*
X022076Y008552D03*
X022076Y009221D03*
X021091Y009221D03*
X007509Y004694D03*
X007509Y004024D03*
X004359Y004024D03*
X004359Y004694D03*
D16*
X020580Y005225D03*
X021997Y005225D03*
X021997Y006643D03*
D17*
X026820Y009044D03*
X027568Y009044D03*
X027194Y009910D03*
D18*
X028950Y009556D03*
X029950Y009556D03*
X030950Y009556D03*
X030938Y011131D03*
X029938Y011131D03*
X028938Y011131D03*
X027938Y011131D03*
D19*
X019696Y009678D03*
X019696Y009422D03*
X019696Y009166D03*
X019696Y008910D03*
X019696Y008654D03*
X019696Y008398D03*
X019696Y008143D03*
X017432Y008143D03*
X017432Y008398D03*
X017432Y008654D03*
X017432Y008910D03*
X017432Y009166D03*
X017432Y009422D03*
X017432Y009678D03*
M02*
