G75*
%MOIN*%
%OFA0B0*%
%FSLAX24Y24*%
%IPPOS*%
%LPD*%
%AMOC8*
5,1,8,0,0,1.08239X$1,22.5*
%
%ADD10C,0.0060*%
%ADD11C,0.0040*%
%ADD12R,0.0230X0.0180*%
%ADD13C,0.0050*%
%ADD14R,0.0197X0.0374*%
%ADD15R,0.0374X0.0197*%
%ADD16R,0.0180X0.0230*%
%ADD17C,0.0080*%
%ADD18R,0.0374X0.0118*%
D10*
X003312Y006752D02*
X003832Y006752D01*
X003832Y007872D01*
X003312Y007872D01*
X003312Y006752D01*
X003312Y008327D02*
X003832Y008327D01*
X003832Y009447D01*
X003312Y009447D01*
X003312Y008327D01*
X003518Y010967D02*
X002838Y010967D01*
X002821Y010969D01*
X002804Y010973D01*
X002788Y010980D01*
X002774Y010990D01*
X002761Y011003D01*
X002751Y011017D01*
X002744Y011033D01*
X002740Y011050D01*
X002738Y011067D01*
X002738Y011667D01*
X002740Y011684D01*
X002744Y011701D01*
X002751Y011717D01*
X002761Y011731D01*
X002774Y011744D01*
X002788Y011754D01*
X002804Y011761D01*
X002821Y011765D01*
X002838Y011767D01*
X003518Y011767D01*
X003535Y011765D01*
X003552Y011761D01*
X003568Y011754D01*
X003582Y011744D01*
X003595Y011731D01*
X003605Y011717D01*
X003612Y011701D01*
X003616Y011684D01*
X003618Y011667D01*
X003618Y011067D01*
X003616Y011050D01*
X003612Y011033D01*
X003605Y011017D01*
X003595Y011003D01*
X003582Y010990D01*
X003568Y010980D01*
X003552Y010973D01*
X003535Y010969D01*
X003518Y010967D01*
X002043Y011067D02*
X002043Y011667D01*
X002041Y011684D01*
X002037Y011701D01*
X002030Y011717D01*
X002020Y011731D01*
X002007Y011744D01*
X001993Y011754D01*
X001977Y011761D01*
X001960Y011765D01*
X001943Y011767D01*
X001263Y011767D01*
X001246Y011765D01*
X001229Y011761D01*
X001213Y011754D01*
X001199Y011744D01*
X001186Y011731D01*
X001176Y011717D01*
X001169Y011701D01*
X001165Y011684D01*
X001163Y011667D01*
X001163Y011067D01*
X001165Y011050D01*
X001169Y011033D01*
X001176Y011017D01*
X001186Y011003D01*
X001199Y010990D01*
X001213Y010980D01*
X001229Y010973D01*
X001246Y010969D01*
X001263Y010967D01*
X001943Y010967D01*
X001960Y010969D01*
X001977Y010973D01*
X001993Y010980D01*
X002007Y010990D01*
X002020Y011003D01*
X002030Y011017D01*
X002037Y011033D01*
X002041Y011050D01*
X002043Y011067D01*
D11*
X001773Y009027D02*
X001773Y008746D01*
X001438Y008746D02*
X001438Y009027D01*
X004342Y008924D02*
X004342Y008617D01*
X004649Y008924D01*
X004725Y008924D01*
X004802Y008847D01*
X004802Y008694D01*
X004725Y008617D01*
X004725Y008464D02*
X004418Y008464D01*
X004342Y008387D01*
X004342Y008233D01*
X004418Y008157D01*
X004725Y008157D01*
X004802Y008233D01*
X004802Y008387D01*
X004725Y008464D01*
X004495Y008310D02*
X004342Y008464D01*
X005178Y008746D02*
X005178Y009027D01*
X005513Y009027D02*
X005513Y008746D01*
X004342Y007349D02*
X004342Y007042D01*
X004342Y006889D02*
X004495Y006735D01*
X004342Y006659D02*
X004418Y006582D01*
X004725Y006582D01*
X004802Y006659D01*
X004802Y006812D01*
X004725Y006889D01*
X004418Y006889D01*
X004342Y006812D01*
X004342Y006659D01*
X004649Y007042D02*
X004802Y007196D01*
X004342Y007196D01*
X005178Y007255D02*
X005178Y006975D01*
X005513Y006975D02*
X005513Y007255D01*
X005794Y005907D02*
X006074Y005907D01*
X006074Y005572D02*
X005794Y005572D01*
X004524Y004499D02*
X004524Y004219D01*
X004189Y004219D02*
X004189Y004499D01*
X007339Y004499D02*
X007339Y004219D01*
X007674Y004219D02*
X007674Y004499D01*
X008746Y005572D02*
X009027Y005572D01*
X009027Y005907D02*
X008746Y005907D01*
X015213Y008156D02*
X015213Y008436D01*
X015548Y008436D02*
X015548Y008156D01*
X016000Y008156D02*
X016000Y008436D01*
X016335Y008436D02*
X016335Y008156D01*
X017605Y007477D02*
X017885Y007477D01*
X017885Y007142D02*
X017605Y007142D01*
X019180Y007147D02*
X019460Y007147D01*
X019460Y007482D02*
X019180Y007482D01*
X021424Y007535D02*
X021704Y007535D01*
X021704Y007870D02*
X021424Y007870D01*
X021261Y008746D02*
X021261Y009027D01*
X020926Y009027D02*
X020926Y008746D01*
X021911Y008746D02*
X021911Y009027D01*
X022246Y009027D02*
X022246Y008746D01*
X018955Y008826D02*
X018878Y008749D01*
X018725Y008749D01*
X018648Y008826D01*
X018648Y009210D01*
X018495Y009056D02*
X018341Y009210D01*
X018341Y008749D01*
X018188Y008749D02*
X018495Y008749D01*
X018955Y008826D02*
X018955Y009210D01*
X019066Y010291D02*
X018786Y010291D01*
X018786Y010626D02*
X019066Y010626D01*
X017491Y010631D02*
X017211Y010631D01*
X017211Y010296D02*
X017491Y010296D01*
X015917Y009642D02*
X015636Y009642D01*
X015636Y009307D02*
X015917Y009307D01*
X017211Y011281D02*
X017491Y011281D01*
X017491Y011616D02*
X017211Y011616D01*
X018786Y011616D02*
X019066Y011616D01*
X019066Y011281D02*
X018786Y011281D01*
X027156Y010247D02*
X027463Y010247D01*
X027310Y010247D02*
X027310Y010708D01*
X027463Y010554D01*
X027617Y010708D02*
X027924Y010708D01*
X027770Y010708D02*
X027770Y010247D01*
X027334Y008269D02*
X027054Y008269D01*
X027054Y007934D02*
X027334Y007934D01*
X028235Y006689D02*
X028515Y006689D01*
X028515Y006354D02*
X028235Y006354D01*
X028235Y005508D02*
X028515Y005508D01*
X028515Y005173D02*
X028235Y005173D01*
X028235Y004524D02*
X028515Y004524D01*
X028515Y004189D02*
X028235Y004189D01*
X019460Y006163D02*
X019180Y006163D01*
X019180Y006498D02*
X019460Y006498D01*
X009027Y003151D02*
X008746Y003151D01*
X008746Y002816D02*
X009027Y002816D01*
X006074Y002811D02*
X005794Y002811D01*
X005794Y003146D02*
X006074Y003146D01*
X001773Y007172D02*
X001773Y007452D01*
X001438Y007452D02*
X001438Y007172D01*
D12*
X003177Y006942D03*
X003967Y007312D03*
X003177Y007682D03*
X003177Y008517D03*
X003967Y008887D03*
X003177Y009257D03*
D13*
X005782Y002466D02*
X005909Y002466D01*
X005782Y002593D01*
X005782Y002625D01*
X005814Y002656D01*
X005877Y002656D01*
X005909Y002625D01*
X006003Y002625D02*
X006003Y002561D01*
X006035Y002529D01*
X006130Y002529D01*
X006130Y002466D02*
X006130Y002656D01*
X006035Y002656D01*
X006003Y002625D01*
X006066Y002529D02*
X006003Y002466D01*
X008624Y003338D02*
X008624Y003369D01*
X008656Y003401D01*
X008751Y003401D01*
X008751Y003338D01*
X008719Y003306D01*
X008656Y003306D01*
X008624Y003338D01*
X008751Y003401D02*
X008688Y003465D01*
X008624Y003496D01*
X008909Y003496D02*
X008909Y003306D01*
X008972Y003306D02*
X008845Y003306D01*
X008972Y003433D02*
X008909Y003496D01*
X009066Y003465D02*
X009066Y003401D01*
X009098Y003369D01*
X009193Y003369D01*
X009193Y003306D02*
X009193Y003496D01*
X009098Y003496D01*
X009066Y003465D01*
X009130Y003369D02*
X009066Y003306D01*
X007184Y004053D02*
X007184Y004148D01*
X007152Y004179D01*
X007089Y004179D01*
X007057Y004148D01*
X007057Y004053D01*
X007057Y004116D02*
X006994Y004179D01*
X006994Y004274D02*
X006994Y004400D01*
X006994Y004337D02*
X007184Y004337D01*
X007120Y004274D01*
X007184Y004053D02*
X006994Y004053D01*
X007089Y004495D02*
X007089Y004621D01*
X006994Y004590D02*
X007184Y004590D01*
X007089Y004495D01*
X004034Y004495D02*
X003939Y004495D01*
X003971Y004558D01*
X003971Y004590D01*
X003939Y004621D01*
X003876Y004621D01*
X003844Y004590D01*
X003844Y004526D01*
X003876Y004495D01*
X003844Y004400D02*
X003844Y004274D01*
X003844Y004337D02*
X004034Y004337D01*
X003971Y004274D01*
X004003Y004179D02*
X003939Y004179D01*
X003907Y004148D01*
X003907Y004053D01*
X003844Y004053D02*
X004034Y004053D01*
X004034Y004148D01*
X004003Y004179D01*
X003907Y004116D02*
X003844Y004179D01*
X004034Y004495D02*
X004034Y004621D01*
X005782Y006062D02*
X005909Y006062D01*
X005782Y006189D01*
X005782Y006220D01*
X005814Y006252D01*
X005877Y006252D01*
X005909Y006220D01*
X006003Y006220D02*
X006035Y006252D01*
X006098Y006252D01*
X006130Y006220D01*
X006130Y006094D01*
X006098Y006062D01*
X006035Y006062D01*
X006003Y006094D01*
X005858Y006919D02*
X005668Y006919D01*
X005732Y006919D02*
X005732Y007014D01*
X005763Y007046D01*
X005827Y007046D01*
X005858Y007014D01*
X005858Y006919D01*
X005732Y006982D02*
X005668Y007046D01*
X005700Y007140D02*
X005668Y007172D01*
X005668Y007235D01*
X005700Y007267D01*
X005732Y007267D01*
X005763Y007235D01*
X005763Y007140D01*
X005700Y007140D01*
X005763Y007140D02*
X005827Y007203D01*
X005858Y007267D01*
X008798Y006252D02*
X008798Y006062D01*
X008735Y006062D02*
X008862Y006062D01*
X008956Y006094D02*
X008988Y006062D01*
X009051Y006062D01*
X009083Y006094D01*
X009083Y006220D01*
X009051Y006252D01*
X008988Y006252D01*
X008956Y006220D01*
X008862Y006189D02*
X008798Y006252D01*
X014868Y007990D02*
X015058Y007990D01*
X015058Y008085D01*
X015026Y008116D01*
X014963Y008116D01*
X014931Y008085D01*
X014931Y007990D01*
X014931Y008053D02*
X014868Y008116D01*
X014868Y008211D02*
X014868Y008337D01*
X014868Y008274D02*
X015058Y008274D01*
X014994Y008211D01*
X015026Y008432D02*
X015058Y008463D01*
X015058Y008527D01*
X015026Y008558D01*
X014994Y008558D01*
X014963Y008527D01*
X014931Y008558D01*
X014899Y008558D01*
X014868Y008527D01*
X014868Y008463D01*
X014899Y008432D01*
X014963Y008495D02*
X014963Y008527D01*
X015655Y008416D02*
X015687Y008448D01*
X015814Y008448D01*
X015845Y008416D01*
X015845Y008353D01*
X015814Y008321D01*
X015782Y008321D01*
X015750Y008353D01*
X015750Y008448D01*
X015655Y008416D02*
X015655Y008353D01*
X015687Y008321D01*
X015687Y008227D02*
X015655Y008195D01*
X015655Y008132D01*
X015687Y008100D01*
X015814Y008100D01*
X015845Y008132D01*
X015845Y008195D01*
X015814Y008227D01*
X015798Y008962D02*
X015798Y009152D01*
X015862Y009089D01*
X015956Y009121D02*
X015988Y009152D01*
X016051Y009152D01*
X016083Y009121D01*
X016083Y008994D01*
X016051Y008962D01*
X015988Y008962D01*
X015956Y008994D01*
X015862Y008962D02*
X015735Y008962D01*
X015641Y008994D02*
X015514Y009121D01*
X015514Y008994D01*
X015546Y008962D01*
X015609Y008962D01*
X015641Y008994D01*
X015641Y009121D01*
X015609Y009152D01*
X015546Y009152D01*
X015514Y009121D01*
X018774Y009978D02*
X018806Y009946D01*
X018869Y009946D01*
X018901Y009978D01*
X018901Y010041D02*
X018838Y010073D01*
X018806Y010073D01*
X018774Y010041D01*
X018774Y009978D01*
X018901Y010041D02*
X018901Y010137D01*
X018774Y010137D01*
X018995Y010105D02*
X019027Y010137D01*
X019090Y010137D01*
X019122Y010105D01*
X019122Y009978D01*
X019090Y009946D01*
X019027Y009946D01*
X018995Y009978D01*
X017658Y010786D02*
X017658Y010977D01*
X017563Y010977D01*
X017531Y010945D01*
X017531Y010881D01*
X017563Y010850D01*
X017658Y010850D01*
X017594Y010850D02*
X017531Y010786D01*
X017437Y010786D02*
X017310Y010786D01*
X017373Y010786D02*
X017373Y010977D01*
X017437Y010913D01*
X017216Y010977D02*
X017089Y010977D01*
X017089Y010945D01*
X017216Y010818D01*
X017216Y010786D01*
X017231Y011771D02*
X017199Y011802D01*
X017199Y011834D01*
X017231Y011866D01*
X017326Y011866D01*
X017326Y011802D01*
X017294Y011771D01*
X017231Y011771D01*
X017326Y011866D02*
X017263Y011929D01*
X017199Y011961D01*
X017420Y011929D02*
X017452Y011961D01*
X017515Y011961D01*
X017547Y011929D01*
X017547Y011802D01*
X017515Y011771D01*
X017452Y011771D01*
X017420Y011802D01*
X018664Y011802D02*
X018695Y011771D01*
X018759Y011771D01*
X018790Y011802D01*
X018664Y011929D01*
X018664Y011802D01*
X018790Y011802D02*
X018790Y011929D01*
X018759Y011961D01*
X018695Y011961D01*
X018664Y011929D01*
X018885Y011771D02*
X019011Y011771D01*
X018948Y011771D02*
X018948Y011961D01*
X019011Y011897D01*
X019106Y011866D02*
X019137Y011834D01*
X019232Y011834D01*
X019169Y011834D02*
X019106Y011771D01*
X019106Y011866D02*
X019106Y011929D01*
X019137Y011961D01*
X019232Y011961D01*
X019232Y011771D01*
X021416Y009149D02*
X021416Y009022D01*
X021416Y009085D02*
X021607Y009085D01*
X021543Y009022D01*
X021416Y008928D02*
X021416Y008801D01*
X021416Y008865D02*
X021607Y008865D01*
X021543Y008801D01*
X021511Y008707D02*
X021480Y008675D01*
X021480Y008580D01*
X021480Y008644D02*
X021416Y008707D01*
X021511Y008707D02*
X021575Y008707D01*
X021607Y008675D01*
X021607Y008580D01*
X021416Y008580D01*
X022401Y008722D02*
X022432Y008691D01*
X022559Y008691D01*
X022591Y008722D01*
X022591Y008786D01*
X022559Y008817D01*
X022591Y008912D02*
X022591Y009038D01*
X022559Y009038D01*
X022432Y008912D01*
X022401Y008912D01*
X022432Y008817D02*
X022401Y008786D01*
X022401Y008722D01*
X019516Y007795D02*
X019516Y007669D01*
X019484Y007637D01*
X019421Y007637D01*
X019389Y007669D01*
X019295Y007669D02*
X019263Y007637D01*
X019200Y007637D01*
X019168Y007669D01*
X019168Y007700D01*
X019200Y007732D01*
X019231Y007732D01*
X019200Y007732D02*
X019168Y007764D01*
X019168Y007795D01*
X019200Y007827D01*
X019263Y007827D01*
X019295Y007795D01*
X019389Y007795D02*
X019421Y007827D01*
X019484Y007827D01*
X019516Y007795D01*
X018051Y006987D02*
X017956Y006987D01*
X017925Y006955D01*
X017925Y006892D01*
X017956Y006860D01*
X018051Y006860D01*
X017988Y006860D02*
X017925Y006797D01*
X017830Y006797D02*
X017704Y006797D01*
X017767Y006797D02*
X017767Y006987D01*
X017830Y006924D01*
X017609Y006955D02*
X017578Y006987D01*
X017514Y006987D01*
X017483Y006955D01*
X017483Y006924D01*
X017609Y006797D01*
X017483Y006797D01*
X018051Y006797D02*
X018051Y006987D01*
X019168Y006748D02*
X019295Y006748D01*
X019200Y006843D01*
X019200Y006653D01*
X019389Y006684D02*
X019421Y006653D01*
X019484Y006653D01*
X019516Y006684D01*
X019516Y006811D01*
X019484Y006843D01*
X019421Y006843D01*
X019389Y006811D01*
X021412Y007222D02*
X021444Y007191D01*
X021507Y007191D01*
X021539Y007222D01*
X021539Y007254D01*
X021507Y007286D01*
X021444Y007286D01*
X021412Y007254D01*
X021412Y007222D01*
X021444Y007286D02*
X021412Y007317D01*
X021412Y007349D01*
X021444Y007381D01*
X021507Y007381D01*
X021539Y007349D01*
X021539Y007317D01*
X021507Y007286D01*
X021633Y007349D02*
X021665Y007381D01*
X021728Y007381D01*
X021760Y007349D01*
X021760Y007222D01*
X021728Y007191D01*
X021665Y007191D01*
X021633Y007222D01*
X026634Y009217D02*
X027754Y009217D01*
X027754Y009737D01*
X026634Y009737D01*
X026634Y009217D01*
X027105Y008614D02*
X027105Y008424D01*
X027042Y008424D02*
X027169Y008424D01*
X027263Y008424D02*
X027326Y008488D01*
X027295Y008488D02*
X027390Y008488D01*
X027390Y008424D02*
X027390Y008614D01*
X027295Y008614D01*
X027263Y008583D01*
X027263Y008519D01*
X027295Y008488D01*
X027169Y008551D02*
X027105Y008614D01*
X028223Y006200D02*
X028223Y006168D01*
X028350Y006041D01*
X028350Y006009D01*
X028444Y006009D02*
X028507Y006073D01*
X028476Y006073D02*
X028571Y006073D01*
X028571Y006009D02*
X028571Y006200D01*
X028476Y006200D01*
X028444Y006168D01*
X028444Y006104D01*
X028476Y006073D01*
X028350Y006200D02*
X028223Y006200D01*
X028255Y005018D02*
X028223Y004987D01*
X028223Y004955D01*
X028255Y004923D01*
X028318Y004923D01*
X028350Y004955D01*
X028350Y004987D01*
X028318Y005018D01*
X028255Y005018D01*
X028255Y004923D02*
X028223Y004892D01*
X028223Y004860D01*
X028255Y004828D01*
X028318Y004828D01*
X028350Y004860D01*
X028350Y004892D01*
X028318Y004923D01*
X028444Y004923D02*
X028476Y004892D01*
X028571Y004892D01*
X028507Y004892D02*
X028444Y004828D01*
X028444Y004923D02*
X028444Y004987D01*
X028476Y005018D01*
X028571Y005018D01*
X028571Y004828D01*
X028571Y004034D02*
X028476Y004034D01*
X028444Y004003D01*
X028444Y003939D01*
X028476Y003907D01*
X028571Y003907D01*
X028571Y003844D02*
X028571Y004034D01*
X028507Y003907D02*
X028444Y003844D01*
X028350Y003876D02*
X028318Y003844D01*
X028255Y003844D01*
X028223Y003876D01*
X028223Y004003D01*
X028255Y004034D01*
X028318Y004034D01*
X028350Y004003D01*
X028350Y003971D01*
X028318Y003939D01*
X028223Y003939D01*
X005858Y008691D02*
X005858Y008786D01*
X005827Y008817D01*
X005763Y008817D01*
X005732Y008786D01*
X005732Y008691D01*
X005732Y008754D02*
X005668Y008817D01*
X005668Y008691D02*
X005858Y008691D01*
X005763Y008912D02*
X005763Y009038D01*
X005668Y009007D02*
X005858Y009007D01*
X005763Y008912D01*
X002118Y008943D02*
X002118Y009007D01*
X002087Y009038D01*
X002055Y009038D01*
X002023Y009007D01*
X001992Y009038D01*
X001960Y009038D01*
X001928Y009007D01*
X001928Y008943D01*
X001960Y008912D01*
X002023Y008975D02*
X002023Y009007D01*
X002087Y008912D02*
X002118Y008943D01*
X002087Y008817D02*
X002023Y008817D01*
X001992Y008786D01*
X001992Y008691D01*
X001992Y008754D02*
X001928Y008817D01*
X001928Y008691D02*
X002118Y008691D01*
X002118Y008786D01*
X002087Y008817D01*
X002118Y007464D02*
X002118Y007337D01*
X002023Y007337D01*
X002055Y007400D01*
X002055Y007432D01*
X002023Y007464D01*
X001960Y007464D01*
X001928Y007432D01*
X001928Y007369D01*
X001960Y007337D01*
X001928Y007243D02*
X001992Y007179D01*
X001992Y007211D02*
X001992Y007116D01*
X001928Y007116D02*
X002118Y007116D01*
X002118Y007211D01*
X002087Y007243D01*
X002023Y007243D01*
X001992Y007211D01*
X002020Y010702D02*
X002020Y010829D01*
X001957Y010892D01*
X001893Y010829D01*
X001893Y010702D01*
X001799Y010702D02*
X001704Y010702D01*
X001672Y010734D01*
X001672Y010860D01*
X001704Y010892D01*
X001799Y010892D01*
X001799Y010702D01*
X001893Y010797D02*
X002020Y010797D01*
X001578Y010765D02*
X001483Y010765D01*
X001451Y010797D01*
X001451Y010860D01*
X001483Y010892D01*
X001578Y010892D01*
X001578Y010702D01*
X001515Y010765D02*
X001451Y010702D01*
X001357Y010702D02*
X001230Y010702D01*
X001294Y010702D02*
X001294Y010892D01*
X001357Y010829D01*
X002805Y010829D02*
X002805Y010860D01*
X002837Y010892D01*
X002900Y010892D01*
X002932Y010860D01*
X003026Y010860D02*
X003026Y010797D01*
X003058Y010765D01*
X003153Y010765D01*
X003153Y010702D02*
X003153Y010892D01*
X003058Y010892D01*
X003026Y010860D01*
X003090Y010765D02*
X003026Y010702D01*
X002932Y010702D02*
X002805Y010829D01*
X002805Y010702D02*
X002932Y010702D01*
X003247Y010734D02*
X003247Y010860D01*
X003279Y010892D01*
X003374Y010892D01*
X003374Y010702D01*
X003279Y010702D01*
X003247Y010734D01*
X003468Y010702D02*
X003468Y010829D01*
X003532Y010892D01*
X003595Y010829D01*
X003595Y010702D01*
X003595Y010797D02*
X003468Y010797D01*
D14*
X015545Y009475D03*
X016005Y009475D03*
X017123Y010463D03*
X017583Y010463D03*
X018694Y010459D03*
X019154Y010459D03*
X019158Y011448D03*
X018698Y011448D03*
X017583Y011448D03*
X017123Y011448D03*
X021332Y007704D03*
X021792Y007704D03*
X019551Y007314D03*
X019091Y007314D03*
X017973Y007310D03*
X017513Y007310D03*
X019091Y006330D03*
X019551Y006330D03*
X026965Y008101D03*
X027425Y008101D03*
X028143Y006522D03*
X028603Y006522D03*
X028603Y005341D03*
X028143Y005341D03*
X028143Y004357D03*
X028603Y004357D03*
X009118Y002983D03*
X008658Y002983D03*
X006162Y002979D03*
X005702Y002979D03*
X005705Y005739D03*
X006165Y005739D03*
X008658Y005739D03*
X009118Y005739D03*
D15*
X007507Y004591D03*
X007507Y004131D03*
X004357Y004131D03*
X004357Y004591D03*
X005345Y006883D03*
X005345Y007343D03*
X005345Y008655D03*
X005345Y009115D03*
X001605Y009115D03*
X001605Y008655D03*
X001605Y007540D03*
X001605Y007080D03*
X015381Y008068D03*
X016168Y008068D03*
X016168Y008528D03*
X015381Y008528D03*
X021093Y008655D03*
X022078Y008655D03*
X022078Y009115D03*
X021093Y009115D03*
D16*
X026824Y009082D03*
X027564Y009082D03*
X027194Y009872D03*
D17*
X019410Y009874D02*
X019410Y007946D01*
X017718Y007946D01*
X017718Y009874D01*
X019410Y009874D01*
X018800Y009874D02*
X018798Y009844D01*
X018793Y009815D01*
X018783Y009787D01*
X018771Y009760D01*
X018755Y009735D01*
X018736Y009712D01*
X018714Y009692D01*
X018690Y009675D01*
X018664Y009660D01*
X018637Y009650D01*
X018608Y009642D01*
X018579Y009638D01*
X018549Y009638D01*
X018520Y009642D01*
X018491Y009650D01*
X018464Y009660D01*
X018438Y009675D01*
X018414Y009692D01*
X018392Y009712D01*
X018373Y009735D01*
X018357Y009760D01*
X018345Y009787D01*
X018335Y009815D01*
X018330Y009844D01*
X018328Y009874D01*
D18*
X017491Y009678D03*
X017491Y009422D03*
X017491Y009166D03*
X017491Y008910D03*
X017491Y008654D03*
X017491Y008398D03*
X017491Y008143D03*
X019637Y008143D03*
X019637Y008398D03*
X019637Y008654D03*
X019637Y008910D03*
X019637Y009166D03*
X019637Y009422D03*
X019637Y009678D03*
M02*
