G75*
%MOIN*%
%OFA0B0*%
%FSLAX24Y24*%
%IPPOS*%
%LPD*%
%AMOC8*
5,1,8,0,0,1.08239X$1,22.5*
%
%ADD10R,0.0591X0.0434*%
%ADD11C,0.2340*%
%ADD12OC8,0.0640*%
%ADD13R,0.0473X0.0434*%
%ADD14R,0.0290X0.0540*%
%ADD15R,0.0434X0.0473*%
%ADD16R,0.0512X0.0276*%
%ADD17C,0.1163*%
%ADD18R,0.0355X0.0512*%
%ADD19R,0.0631X0.0670*%
%ADD20R,0.0512X0.0512*%
%ADD21R,0.0434X0.0591*%
%ADD22OC8,0.0749*%
D10*
X003139Y006938D03*
X004005Y007312D03*
X003139Y007686D03*
X003139Y008513D03*
X004005Y008887D03*
X003139Y009261D03*
D11*
X001800Y001800D03*
X030540Y001800D03*
D12*
X030961Y004359D03*
X029961Y004359D03*
X029961Y005540D03*
X030961Y005540D03*
X030961Y006721D03*
X029961Y006721D03*
X029961Y007902D03*
X030961Y007902D03*
X013765Y007993D03*
X012765Y007993D03*
X011765Y007993D03*
X010765Y007993D03*
X009765Y007993D03*
X008765Y007993D03*
X007765Y007993D03*
X006765Y007993D03*
X006765Y008993D03*
X007765Y008993D03*
X008765Y008993D03*
X009765Y008993D03*
X010765Y008993D03*
X011765Y008993D03*
X012765Y008993D03*
X013765Y008993D03*
D13*
X015639Y008493D03*
X016308Y008493D03*
X016308Y007312D03*
X015639Y007312D03*
X021347Y008099D03*
X022017Y008099D03*
X022017Y009083D03*
X021347Y009083D03*
X024891Y009083D03*
X025560Y009083D03*
X025560Y008099D03*
X024891Y008099D03*
X026859Y008099D03*
X027528Y008099D03*
X028040Y006524D03*
X028709Y006524D03*
X028709Y005343D03*
X028040Y005343D03*
X028040Y004359D03*
X028709Y004359D03*
X021820Y003965D03*
X021150Y003965D03*
X020048Y003965D03*
X019379Y003965D03*
X021150Y002784D03*
X021820Y002784D03*
X009221Y002981D03*
X008552Y002981D03*
X006269Y002981D03*
X005599Y002981D03*
X005599Y005737D03*
X006269Y005737D03*
X008552Y005737D03*
X009221Y005737D03*
X024891Y010068D03*
X025560Y010068D03*
D14*
X003338Y011367D03*
X003018Y011367D03*
X001763Y011367D03*
X001443Y011367D03*
D15*
X001603Y009221D03*
X001603Y008552D03*
X001603Y007646D03*
X001603Y006977D03*
X005343Y006780D03*
X005343Y007450D03*
X005343Y008552D03*
X005343Y009221D03*
X004359Y004694D03*
X004359Y004024D03*
X007509Y004024D03*
X007509Y004694D03*
D16*
X017824Y006599D03*
X017824Y007099D03*
X017824Y007599D03*
X017824Y008099D03*
X017824Y008599D03*
X017824Y009099D03*
X017824Y009599D03*
X020028Y009599D03*
X020028Y009099D03*
X020028Y008599D03*
X020028Y008099D03*
X020028Y007599D03*
X020028Y007099D03*
X020028Y006599D03*
D17*
X021997Y006643D03*
X021997Y005225D03*
X020580Y005225D03*
D18*
X023099Y008099D03*
X023808Y008099D03*
X023808Y009083D03*
X023099Y009083D03*
D19*
X022489Y011249D03*
X018158Y011249D03*
D20*
X019438Y011643D03*
X019438Y010855D03*
X023769Y010855D03*
X023769Y011643D03*
D21*
X027194Y009910D03*
X027568Y009044D03*
X026820Y009044D03*
D22*
X028950Y009556D03*
X029950Y009556D03*
X030950Y009556D03*
X030938Y011131D03*
X029938Y011131D03*
X028938Y011131D03*
X027938Y011131D03*
M02*
