G75*
%MOIN*%
%OFA0B0*%
%FSLAX24Y24*%
%IPPOS*%
%LPD*%
%AMOC8*
5,1,8,0,0,1.08239X$1,22.5*
%
%ADD10C,0.2340*%
%ADD11OC8,0.0640*%
%ADD12R,0.0316X0.0197*%
%ADD13C,0.0020*%
%ADD14R,0.0178X0.0237*%
%ADD15OC8,0.0749*%
D10*
X001800Y001800D03*
X030540Y001800D03*
D11*
X030961Y004359D03*
X029961Y004359D03*
X029961Y005540D03*
X030961Y005540D03*
X030961Y006721D03*
X029961Y006721D03*
X029961Y007902D03*
X030961Y007902D03*
X013765Y007993D03*
X012765Y007993D03*
X011765Y007993D03*
X010765Y007993D03*
X009765Y007993D03*
X008765Y007993D03*
X007765Y007993D03*
X006765Y007993D03*
X006765Y008993D03*
X007765Y008993D03*
X008765Y008993D03*
X009765Y008993D03*
X010765Y008993D03*
X011765Y008993D03*
X012765Y008993D03*
X013765Y008993D03*
D12*
X006367Y005028D03*
X006367Y004792D03*
X006367Y004556D03*
X006367Y004320D03*
X006367Y004083D03*
X005501Y004083D03*
X005501Y004320D03*
X005501Y004556D03*
X005501Y004792D03*
X005501Y005028D03*
D13*
X005688Y004930D02*
X005796Y005038D01*
X006180Y005038D01*
X006180Y004074D01*
X005688Y004074D01*
X005688Y004930D01*
X005690Y004932D02*
X006180Y004932D01*
X006180Y004950D02*
X005708Y004950D01*
X005726Y004968D02*
X006180Y004968D01*
X006180Y004987D02*
X005744Y004987D01*
X005763Y005005D02*
X006180Y005005D01*
X006180Y005023D02*
X005781Y005023D01*
X005688Y004914D02*
X006180Y004914D01*
X006180Y004896D02*
X005688Y004896D01*
X005688Y004877D02*
X006180Y004877D01*
X006180Y004859D02*
X005688Y004859D01*
X005688Y004841D02*
X006180Y004841D01*
X006180Y004823D02*
X005688Y004823D01*
X005688Y004805D02*
X006180Y004805D01*
X006180Y004787D02*
X005688Y004787D01*
X005688Y004768D02*
X006180Y004768D01*
X006180Y004750D02*
X005688Y004750D01*
X005688Y004732D02*
X006180Y004732D01*
X006180Y004714D02*
X005688Y004714D01*
X005688Y004696D02*
X006180Y004696D01*
X006180Y004677D02*
X005688Y004677D01*
X005688Y004659D02*
X006180Y004659D01*
X006180Y004641D02*
X005688Y004641D01*
X005688Y004623D02*
X006180Y004623D01*
X006180Y004605D02*
X005688Y004605D01*
X005688Y004586D02*
X006180Y004586D01*
X006180Y004568D02*
X005688Y004568D01*
X005688Y004550D02*
X006180Y004550D01*
X006180Y004532D02*
X005688Y004532D01*
X005688Y004514D02*
X006180Y004514D01*
X006180Y004496D02*
X005688Y004496D01*
X005688Y004477D02*
X006180Y004477D01*
X006180Y004459D02*
X005688Y004459D01*
X005688Y004441D02*
X006180Y004441D01*
X006180Y004423D02*
X005688Y004423D01*
X005688Y004405D02*
X006180Y004405D01*
X006180Y004386D02*
X005688Y004386D01*
X005688Y004368D02*
X006180Y004368D01*
X006180Y004350D02*
X005688Y004350D01*
X005688Y004332D02*
X006180Y004332D01*
X006180Y004314D02*
X005688Y004314D01*
X005688Y004296D02*
X006180Y004296D01*
X006180Y004277D02*
X005688Y004277D01*
X005688Y004259D02*
X006180Y004259D01*
X006180Y004241D02*
X005688Y004241D01*
X005688Y004223D02*
X006180Y004223D01*
X006180Y004205D02*
X005688Y004205D01*
X005688Y004186D02*
X006180Y004186D01*
X006180Y004168D02*
X005688Y004168D01*
X005688Y004150D02*
X006180Y004150D01*
X006180Y004132D02*
X005688Y004132D01*
X005688Y004114D02*
X006180Y004114D01*
X006180Y004095D02*
X005688Y004095D01*
X005688Y004077D02*
X006180Y004077D01*
D14*
X008503Y003956D03*
X008759Y003956D03*
X009015Y003956D03*
X009270Y003956D03*
X009270Y004763D03*
X009015Y004763D03*
X008759Y004763D03*
X008503Y004763D03*
D15*
X027938Y011131D03*
X028938Y011131D03*
X029938Y011131D03*
X030938Y011131D03*
X030950Y009556D03*
X029950Y009556D03*
X028950Y009556D03*
M02*
