G75*
%MOIN*%
%OFA0B0*%
%FSLAX24Y24*%
%IPPOS*%
%LPD*%
%AMOC8*
5,1,8,0,0,1.08239X$1,22.5*
%
%ADD10C,0.0060*%
%ADD11C,0.0040*%
%ADD12R,0.0230X0.0180*%
%ADD13C,0.0050*%
%ADD14R,0.0197X0.0374*%
%ADD15R,0.0374X0.0197*%
%ADD16C,0.0080*%
%ADD17C,0.0020*%
%ADD18R,0.0405X0.0200*%
%ADD19R,0.0425X0.0200*%
%ADD20R,0.0400X0.0200*%
%ADD21C,0.0172*%
%ADD22R,0.0354X0.0315*%
%ADD23R,0.0315X0.0591*%
%ADD24R,0.0180X0.0230*%
D10*
X003312Y006752D02*
X003832Y006752D01*
X003832Y007872D01*
X003312Y007872D01*
X003312Y006752D01*
X003312Y008327D02*
X003832Y008327D01*
X003832Y009447D01*
X003312Y009447D01*
X003312Y008327D01*
X003518Y010967D02*
X002838Y010967D01*
X002821Y010969D01*
X002804Y010973D01*
X002788Y010980D01*
X002774Y010990D01*
X002761Y011003D01*
X002751Y011017D01*
X002744Y011033D01*
X002740Y011050D01*
X002738Y011067D01*
X002738Y011667D01*
X002740Y011684D01*
X002744Y011701D01*
X002751Y011717D01*
X002761Y011731D01*
X002774Y011744D01*
X002788Y011754D01*
X002804Y011761D01*
X002821Y011765D01*
X002838Y011767D01*
X003518Y011767D01*
X003535Y011765D01*
X003552Y011761D01*
X003568Y011754D01*
X003582Y011744D01*
X003595Y011731D01*
X003605Y011717D01*
X003612Y011701D01*
X003616Y011684D01*
X003618Y011667D01*
X003618Y011067D01*
X003616Y011050D01*
X003612Y011033D01*
X003605Y011017D01*
X003595Y011003D01*
X003582Y010990D01*
X003568Y010980D01*
X003552Y010973D01*
X003535Y010969D01*
X003518Y010967D01*
X002043Y011067D02*
X002043Y011667D01*
X002041Y011684D01*
X002037Y011701D01*
X002030Y011717D01*
X002020Y011731D01*
X002007Y011744D01*
X001993Y011754D01*
X001977Y011761D01*
X001960Y011765D01*
X001943Y011767D01*
X001263Y011767D01*
X001246Y011765D01*
X001229Y011761D01*
X001213Y011754D01*
X001199Y011744D01*
X001186Y011731D01*
X001176Y011717D01*
X001169Y011701D01*
X001165Y011684D01*
X001163Y011667D01*
X001163Y011067D01*
X001165Y011050D01*
X001169Y011033D01*
X001176Y011017D01*
X001186Y011003D01*
X001199Y010990D01*
X001213Y010980D01*
X001229Y010973D01*
X001246Y010969D01*
X001263Y010967D01*
X001943Y010967D01*
X001960Y010969D01*
X001977Y010973D01*
X001993Y010980D01*
X002007Y010990D01*
X002020Y011003D01*
X002030Y011017D01*
X002037Y011033D01*
X002041Y011050D01*
X002043Y011067D01*
D11*
X001773Y009027D02*
X001773Y008746D01*
X001438Y008746D02*
X001438Y009027D01*
X004342Y008924D02*
X004342Y008617D01*
X004649Y008924D01*
X004725Y008924D01*
X004802Y008847D01*
X004802Y008694D01*
X004725Y008617D01*
X004725Y008464D02*
X004418Y008464D01*
X004342Y008387D01*
X004342Y008233D01*
X004418Y008157D01*
X004725Y008157D01*
X004802Y008233D01*
X004802Y008387D01*
X004725Y008464D01*
X004495Y008310D02*
X004342Y008464D01*
X005178Y008746D02*
X005178Y009027D01*
X005513Y009027D02*
X005513Y008746D01*
X004342Y007349D02*
X004342Y007042D01*
X004342Y006889D02*
X004495Y006735D01*
X004342Y006659D02*
X004418Y006582D01*
X004725Y006582D01*
X004802Y006659D01*
X004802Y006812D01*
X004725Y006889D01*
X004418Y006889D01*
X004342Y006812D01*
X004342Y006659D01*
X004649Y007042D02*
X004802Y007196D01*
X004342Y007196D01*
X005178Y007255D02*
X005178Y006975D01*
X005513Y006975D02*
X005513Y007255D01*
X005794Y005907D02*
X006074Y005907D01*
X006074Y005572D02*
X005794Y005572D01*
X004524Y004499D02*
X004524Y004219D01*
X004189Y004219D02*
X004189Y004499D01*
X007339Y004499D02*
X007339Y004219D01*
X007674Y004219D02*
X007674Y004499D01*
X008746Y005572D02*
X009027Y005572D01*
X009027Y005907D02*
X008746Y005907D01*
X015833Y007147D02*
X016113Y007147D01*
X016113Y007482D02*
X015833Y007482D01*
X015833Y008328D02*
X016113Y008328D01*
X016113Y008663D02*
X015833Y008663D01*
X021542Y008913D02*
X021822Y008913D01*
X021822Y009248D02*
X021542Y009248D01*
X021542Y008264D02*
X021822Y008264D01*
X021822Y007929D02*
X021542Y007929D01*
X025085Y007929D02*
X025365Y007929D01*
X025365Y008264D02*
X025085Y008264D01*
X025085Y008913D02*
X025365Y008913D01*
X025365Y009248D02*
X025085Y009248D01*
X025085Y009903D02*
X025365Y009903D01*
X025365Y010238D02*
X025085Y010238D01*
X027156Y010247D02*
X027463Y010247D01*
X027310Y010247D02*
X027310Y010708D01*
X027463Y010554D01*
X027617Y010708D02*
X027924Y010708D01*
X027770Y010708D02*
X027770Y010247D01*
X027334Y008269D02*
X027054Y008269D01*
X027054Y007934D02*
X027334Y007934D01*
X028235Y006689D02*
X028515Y006689D01*
X028515Y006354D02*
X028235Y006354D01*
X028235Y005508D02*
X028515Y005508D01*
X028515Y005173D02*
X028235Y005173D01*
X028235Y004524D02*
X028515Y004524D01*
X028515Y004189D02*
X028235Y004189D01*
X021625Y004135D02*
X021345Y004135D01*
X021345Y003800D02*
X021625Y003800D01*
X019854Y003795D02*
X019573Y003795D01*
X019573Y004130D02*
X019854Y004130D01*
X021345Y002949D02*
X021625Y002949D01*
X021625Y002614D02*
X021345Y002614D01*
X009027Y002816D02*
X008746Y002816D01*
X008746Y003151D02*
X009027Y003151D01*
X006074Y003146D02*
X005794Y003146D01*
X005794Y002811D02*
X006074Y002811D01*
X001773Y007172D02*
X001773Y007452D01*
X001438Y007452D02*
X001438Y007172D01*
D12*
X003177Y006942D03*
X003967Y007312D03*
X003177Y007682D03*
X003177Y008517D03*
X003967Y008887D03*
X003177Y009257D03*
D13*
X005782Y002498D02*
X005814Y002466D01*
X005877Y002466D01*
X005909Y002498D01*
X005909Y002561D02*
X005845Y002593D01*
X005814Y002593D01*
X005782Y002561D01*
X005782Y002498D01*
X005909Y002561D02*
X005909Y002656D01*
X005782Y002656D01*
X006003Y002625D02*
X006003Y002561D01*
X006035Y002529D01*
X006130Y002529D01*
X006130Y002466D02*
X006130Y002656D01*
X006035Y002656D01*
X006003Y002625D01*
X006066Y002529D02*
X006003Y002466D01*
X008735Y003465D02*
X008862Y003338D01*
X008862Y003306D01*
X008956Y003306D02*
X009019Y003369D01*
X008988Y003369D02*
X009083Y003369D01*
X009083Y003306D02*
X009083Y003496D01*
X008988Y003496D01*
X008956Y003465D01*
X008956Y003401D01*
X008988Y003369D01*
X008862Y003496D02*
X008735Y003496D01*
X008735Y003465D01*
X007184Y004163D02*
X007184Y004258D01*
X007152Y004290D01*
X007089Y004290D01*
X007057Y004258D01*
X007057Y004163D01*
X006994Y004163D02*
X007184Y004163D01*
X007057Y004226D02*
X006994Y004290D01*
X007025Y004384D02*
X007057Y004384D01*
X007089Y004416D01*
X007089Y004479D01*
X007057Y004511D01*
X007025Y004511D01*
X006994Y004479D01*
X006994Y004416D01*
X007025Y004384D01*
X007089Y004416D02*
X007120Y004384D01*
X007152Y004384D01*
X007184Y004416D01*
X007184Y004479D01*
X007152Y004511D01*
X007120Y004511D01*
X007089Y004479D01*
X004034Y004511D02*
X004003Y004447D01*
X003939Y004384D01*
X003939Y004479D01*
X003907Y004511D01*
X003876Y004511D01*
X003844Y004479D01*
X003844Y004416D01*
X003876Y004384D01*
X003939Y004384D01*
X003939Y004290D02*
X003907Y004258D01*
X003907Y004163D01*
X003844Y004163D02*
X004034Y004163D01*
X004034Y004258D01*
X004003Y004290D01*
X003939Y004290D01*
X003907Y004226D02*
X003844Y004290D01*
X005782Y006062D02*
X005909Y006062D01*
X005782Y006189D01*
X005782Y006220D01*
X005814Y006252D01*
X005877Y006252D01*
X005909Y006220D01*
X006003Y006220D02*
X006035Y006252D01*
X006098Y006252D01*
X006130Y006220D01*
X006130Y006094D01*
X006098Y006062D01*
X006035Y006062D01*
X006003Y006094D01*
X005858Y006919D02*
X005668Y006919D01*
X005732Y006919D02*
X005732Y007014D01*
X005763Y007046D01*
X005827Y007046D01*
X005858Y007014D01*
X005858Y006919D01*
X005732Y006982D02*
X005668Y007046D01*
X005763Y007140D02*
X005763Y007267D01*
X005668Y007235D02*
X005858Y007235D01*
X005763Y007140D01*
X008735Y006062D02*
X008862Y006062D01*
X008798Y006062D02*
X008798Y006252D01*
X008862Y006189D01*
X008956Y006220D02*
X008988Y006252D01*
X009051Y006252D01*
X009083Y006220D01*
X009083Y006094D01*
X009051Y006062D01*
X008988Y006062D01*
X008956Y006094D01*
X005858Y008691D02*
X005668Y008691D01*
X005732Y008691D02*
X005732Y008786D01*
X005763Y008817D01*
X005827Y008817D01*
X005858Y008786D01*
X005858Y008691D01*
X005732Y008754D02*
X005668Y008817D01*
X005668Y008912D02*
X005795Y009038D01*
X005827Y009038D01*
X005858Y009007D01*
X005858Y008943D01*
X005827Y008912D01*
X005668Y008912D02*
X005668Y009038D01*
X002118Y008975D02*
X002055Y008912D01*
X002118Y008975D02*
X001928Y008975D01*
X001928Y008912D02*
X001928Y009038D01*
X001928Y008817D02*
X001992Y008754D01*
X001992Y008786D02*
X001992Y008691D01*
X001928Y008691D02*
X002118Y008691D01*
X002118Y008786D01*
X002087Y008817D01*
X002023Y008817D01*
X001992Y008786D01*
X001992Y007464D02*
X001960Y007464D01*
X001928Y007432D01*
X001928Y007369D01*
X001960Y007337D01*
X002023Y007400D02*
X002023Y007432D01*
X001992Y007464D01*
X002023Y007432D02*
X002055Y007464D01*
X002087Y007464D01*
X002118Y007432D01*
X002118Y007369D01*
X002087Y007337D01*
X002087Y007243D02*
X002023Y007243D01*
X001992Y007211D01*
X001992Y007116D01*
X001992Y007179D02*
X001928Y007243D01*
X001928Y007116D02*
X002118Y007116D01*
X002118Y007211D01*
X002087Y007243D01*
X002020Y010702D02*
X002020Y010829D01*
X001957Y010892D01*
X001893Y010829D01*
X001893Y010702D01*
X001799Y010702D02*
X001704Y010702D01*
X001672Y010734D01*
X001672Y010860D01*
X001704Y010892D01*
X001799Y010892D01*
X001799Y010702D01*
X001893Y010797D02*
X002020Y010797D01*
X001578Y010765D02*
X001483Y010765D01*
X001451Y010797D01*
X001451Y010860D01*
X001483Y010892D01*
X001578Y010892D01*
X001578Y010702D01*
X001515Y010765D02*
X001451Y010702D01*
X001357Y010702D02*
X001230Y010702D01*
X001294Y010702D02*
X001294Y010892D01*
X001357Y010829D01*
X002805Y010829D02*
X002805Y010860D01*
X002837Y010892D01*
X002900Y010892D01*
X002932Y010860D01*
X003026Y010860D02*
X003026Y010797D01*
X003058Y010765D01*
X003153Y010765D01*
X003153Y010702D02*
X003153Y010892D01*
X003058Y010892D01*
X003026Y010860D01*
X003090Y010765D02*
X003026Y010702D01*
X002932Y010702D02*
X002805Y010829D01*
X002805Y010702D02*
X002932Y010702D01*
X003247Y010734D02*
X003247Y010860D01*
X003279Y010892D01*
X003374Y010892D01*
X003374Y010702D01*
X003279Y010702D01*
X003247Y010734D01*
X003468Y010702D02*
X003468Y010829D01*
X003532Y010892D01*
X003595Y010829D01*
X003595Y010702D01*
X003595Y010797D02*
X003468Y010797D01*
X015711Y009008D02*
X015838Y009008D01*
X015838Y008913D01*
X015774Y008945D01*
X015743Y008945D01*
X015711Y008913D01*
X015711Y008850D01*
X015743Y008818D01*
X015806Y008818D01*
X015838Y008850D01*
X015932Y008818D02*
X016059Y008818D01*
X015995Y008818D02*
X015995Y009008D01*
X016059Y008945D01*
X016153Y008976D02*
X016153Y008913D01*
X016185Y008881D01*
X016280Y008881D01*
X016280Y008818D02*
X016280Y009008D01*
X016185Y009008D01*
X016153Y008976D01*
X016216Y008881D02*
X016153Y008818D01*
X016138Y007827D02*
X016169Y007795D01*
X016169Y007669D01*
X016138Y007637D01*
X016074Y007637D01*
X016042Y007669D01*
X015948Y007669D02*
X015917Y007637D01*
X015853Y007637D01*
X015821Y007669D01*
X015821Y007795D01*
X015853Y007827D01*
X015917Y007827D01*
X015948Y007795D01*
X015948Y007764D01*
X015917Y007732D01*
X015821Y007732D01*
X016042Y007795D02*
X016074Y007827D01*
X016138Y007827D01*
X021420Y008568D02*
X021546Y008568D01*
X021483Y008568D02*
X021483Y008759D01*
X021546Y008695D01*
X021641Y008568D02*
X021767Y008568D01*
X021704Y008568D02*
X021704Y008759D01*
X021767Y008695D01*
X021862Y008664D02*
X021893Y008632D01*
X021988Y008632D01*
X021925Y008632D02*
X021862Y008568D01*
X021862Y008664D02*
X021862Y008727D01*
X021893Y008759D01*
X021988Y008759D01*
X021988Y008568D01*
X023302Y008677D02*
X023429Y008550D01*
X023429Y008518D01*
X023523Y008550D02*
X023554Y008518D01*
X023618Y008518D01*
X023650Y008550D01*
X023650Y008677D01*
X023618Y008709D01*
X023554Y008709D01*
X023523Y008677D01*
X023429Y008709D02*
X023302Y008709D01*
X023302Y008677D01*
X024963Y008695D02*
X025090Y008568D01*
X024963Y008568D01*
X024963Y008695D02*
X024963Y008727D01*
X024995Y008759D01*
X025058Y008759D01*
X025090Y008727D01*
X025247Y008759D02*
X025311Y008695D01*
X025247Y008759D02*
X025247Y008568D01*
X025184Y008568D02*
X025311Y008568D01*
X025405Y008568D02*
X025468Y008632D01*
X025437Y008632D02*
X025532Y008632D01*
X025532Y008568D02*
X025532Y008759D01*
X025437Y008759D01*
X025405Y008727D01*
X025405Y008664D01*
X025437Y008632D01*
X026634Y009217D02*
X027754Y009217D01*
X027754Y009737D01*
X026634Y009737D01*
X026634Y009217D01*
X026931Y008614D02*
X026995Y008583D01*
X027058Y008519D01*
X026963Y008519D01*
X026931Y008488D01*
X026931Y008456D01*
X026963Y008424D01*
X027027Y008424D01*
X027058Y008456D01*
X027058Y008519D01*
X027152Y008424D02*
X027279Y008424D01*
X027216Y008424D02*
X027216Y008614D01*
X027279Y008551D01*
X027373Y008583D02*
X027373Y008519D01*
X027405Y008488D01*
X027500Y008488D01*
X027437Y008488D02*
X027373Y008424D01*
X027500Y008424D02*
X027500Y008614D01*
X027405Y008614D01*
X027373Y008583D01*
X025532Y007774D02*
X025437Y007774D01*
X025405Y007743D01*
X025405Y007679D01*
X025437Y007648D01*
X025532Y007648D01*
X025468Y007648D02*
X025405Y007584D01*
X025311Y007584D02*
X025184Y007584D01*
X025247Y007584D02*
X025247Y007774D01*
X025311Y007711D01*
X025090Y007743D02*
X025090Y007616D01*
X024963Y007743D01*
X024963Y007616D01*
X024995Y007584D01*
X025058Y007584D01*
X025090Y007616D01*
X025090Y007743D02*
X025058Y007774D01*
X024995Y007774D01*
X024963Y007743D01*
X025532Y007774D02*
X025532Y007584D01*
X023650Y007566D02*
X023618Y007534D01*
X023554Y007534D01*
X023523Y007566D01*
X023429Y007566D02*
X023397Y007534D01*
X023333Y007534D01*
X023302Y007566D01*
X023302Y007598D01*
X023333Y007629D01*
X023365Y007629D01*
X023333Y007629D02*
X023302Y007661D01*
X023302Y007693D01*
X023333Y007724D01*
X023397Y007724D01*
X023429Y007693D01*
X023523Y007693D02*
X023554Y007724D01*
X023618Y007724D01*
X023650Y007693D01*
X023650Y007566D01*
X021878Y007616D02*
X021846Y007584D01*
X021783Y007584D01*
X021751Y007616D01*
X021657Y007679D02*
X021562Y007774D01*
X021562Y007584D01*
X021530Y007679D02*
X021657Y007679D01*
X021751Y007743D02*
X021783Y007774D01*
X021846Y007774D01*
X021878Y007743D01*
X021878Y007616D01*
X028113Y006200D02*
X028113Y006168D01*
X028239Y006041D01*
X028239Y006009D01*
X028334Y006009D02*
X028460Y006009D01*
X028397Y006009D02*
X028397Y006200D01*
X028460Y006136D01*
X028555Y006104D02*
X028586Y006073D01*
X028681Y006073D01*
X028618Y006073D02*
X028555Y006009D01*
X028555Y006104D02*
X028555Y006168D01*
X028586Y006200D01*
X028681Y006200D01*
X028681Y006009D01*
X028239Y006200D02*
X028113Y006200D01*
X028144Y005018D02*
X028113Y004987D01*
X028113Y004955D01*
X028144Y004923D01*
X028208Y004923D01*
X028239Y004955D01*
X028239Y004987D01*
X028208Y005018D01*
X028144Y005018D01*
X028144Y004923D02*
X028113Y004892D01*
X028113Y004860D01*
X028144Y004828D01*
X028208Y004828D01*
X028239Y004860D01*
X028239Y004892D01*
X028208Y004923D01*
X028334Y004828D02*
X028460Y004828D01*
X028397Y004828D02*
X028397Y005018D01*
X028460Y004955D01*
X028555Y004923D02*
X028586Y004892D01*
X028681Y004892D01*
X028618Y004892D02*
X028555Y004828D01*
X028555Y004923D02*
X028555Y004987D01*
X028586Y005018D01*
X028681Y005018D01*
X028681Y004828D01*
X028681Y004034D02*
X028586Y004034D01*
X028555Y004003D01*
X028555Y003939D01*
X028586Y003907D01*
X028681Y003907D01*
X028681Y003844D02*
X028681Y004034D01*
X028618Y003907D02*
X028555Y003844D01*
X028460Y003844D02*
X028334Y003844D01*
X028397Y003844D02*
X028397Y004034D01*
X028460Y003971D01*
X028239Y003971D02*
X028208Y003939D01*
X028113Y003939D01*
X028113Y003876D02*
X028113Y004003D01*
X028144Y004034D01*
X028208Y004034D01*
X028239Y004003D01*
X028239Y003971D01*
X028239Y003876D02*
X028208Y003844D01*
X028144Y003844D01*
X028113Y003876D01*
X021681Y004322D02*
X021649Y004290D01*
X021586Y004290D01*
X021554Y004322D01*
X021460Y004322D02*
X021428Y004290D01*
X021365Y004290D01*
X021333Y004322D01*
X021333Y004385D01*
X021365Y004417D01*
X021397Y004417D01*
X021460Y004385D01*
X021460Y004481D01*
X021333Y004481D01*
X021554Y004449D02*
X021586Y004481D01*
X021649Y004481D01*
X021681Y004449D01*
X021681Y004322D01*
X019909Y003609D02*
X019909Y003482D01*
X019878Y003450D01*
X019814Y003450D01*
X019783Y003482D01*
X019688Y003482D02*
X019688Y003545D01*
X019593Y003545D01*
X019562Y003514D01*
X019562Y003482D01*
X019593Y003450D01*
X019657Y003450D01*
X019688Y003482D01*
X019688Y003545D02*
X019625Y003609D01*
X019562Y003641D01*
X019783Y003609D02*
X019814Y003641D01*
X019878Y003641D01*
X019909Y003609D01*
X021333Y002428D02*
X021365Y002459D01*
X021428Y002459D01*
X021460Y002428D01*
X021460Y002396D01*
X021428Y002364D01*
X021333Y002364D01*
X021333Y002301D02*
X021333Y002428D01*
X021333Y002301D02*
X021365Y002269D01*
X021428Y002269D01*
X021460Y002301D01*
X021554Y002269D02*
X021618Y002333D01*
X021586Y002333D02*
X021681Y002333D01*
X021681Y002269D02*
X021681Y002459D01*
X021586Y002459D01*
X021554Y002428D01*
X021554Y002364D01*
X021586Y002333D01*
X025105Y010393D02*
X025169Y010393D01*
X025200Y010424D01*
X025200Y010456D01*
X025169Y010488D01*
X025105Y010488D01*
X025073Y010456D01*
X025073Y010424D01*
X025105Y010393D01*
X025105Y010488D02*
X025073Y010519D01*
X025073Y010551D01*
X025105Y010583D01*
X025169Y010583D01*
X025200Y010551D01*
X025200Y010519D01*
X025169Y010488D01*
X025294Y010551D02*
X025326Y010583D01*
X025389Y010583D01*
X025421Y010551D01*
X025421Y010424D01*
X025389Y010393D01*
X025326Y010393D01*
X025294Y010424D01*
X023769Y010658D02*
X023769Y011839D01*
X022371Y011839D01*
X022371Y010658D01*
X023769Y010658D01*
X023158Y010835D02*
X023158Y010993D01*
X022961Y010993D02*
X022961Y010835D01*
X023158Y010835D01*
X023316Y011150D02*
X023473Y011150D01*
X023473Y011347D01*
X023316Y011347D01*
X022962Y010993D02*
X022932Y011007D01*
X022905Y011025D01*
X022879Y011045D01*
X022856Y011068D01*
X022836Y011094D01*
X022818Y011121D01*
X022804Y011151D01*
X022804Y011150D02*
X022646Y011150D01*
X022646Y011347D01*
X022804Y011347D01*
X023158Y010993D02*
X023188Y011007D01*
X023215Y011025D01*
X023241Y011045D01*
X023264Y011068D01*
X023284Y011094D01*
X023302Y011121D01*
X023316Y011151D01*
X022962Y011505D02*
X022932Y011491D01*
X022905Y011473D01*
X022879Y011453D01*
X022856Y011430D01*
X022836Y011404D01*
X022818Y011377D01*
X022804Y011347D01*
X023158Y011505D02*
X023188Y011491D01*
X023215Y011473D01*
X023241Y011453D01*
X023264Y011430D01*
X023284Y011404D01*
X023302Y011377D01*
X023316Y011347D01*
X022962Y011249D02*
X022964Y011268D01*
X022969Y011287D01*
X022979Y011303D01*
X022991Y011318D01*
X023006Y011330D01*
X023022Y011340D01*
X023041Y011345D01*
X023060Y011347D01*
X023079Y011345D01*
X023098Y011340D01*
X023114Y011330D01*
X023129Y011318D01*
X023141Y011303D01*
X023151Y011287D01*
X023156Y011268D01*
X023158Y011249D01*
X023156Y011230D01*
X023151Y011211D01*
X023141Y011195D01*
X023129Y011180D01*
X023114Y011168D01*
X023098Y011158D01*
X023079Y011153D01*
X023060Y011151D01*
X023041Y011153D01*
X023022Y011158D01*
X023006Y011168D01*
X022991Y011180D01*
X022979Y011195D01*
X022969Y011211D01*
X022964Y011230D01*
X022962Y011249D01*
X022351Y011249D02*
X022353Y011302D01*
X022359Y011355D01*
X022369Y011407D01*
X022382Y011458D01*
X022400Y011508D01*
X022421Y011557D01*
X022446Y011604D01*
X022474Y011648D01*
X022506Y011691D01*
X022540Y011731D01*
X022578Y011769D01*
X022618Y011803D01*
X022661Y011835D01*
X022706Y011863D01*
X022752Y011888D01*
X022801Y011909D01*
X022851Y011927D01*
X022902Y011940D01*
X022954Y011950D01*
X023007Y011956D01*
X023060Y011958D01*
X023113Y011956D01*
X023166Y011950D01*
X023218Y011940D01*
X023269Y011927D01*
X023319Y011909D01*
X023368Y011888D01*
X023415Y011863D01*
X023459Y011835D01*
X023502Y011803D01*
X023542Y011769D01*
X023580Y011731D01*
X023614Y011691D01*
X023646Y011648D01*
X023674Y011603D01*
X023699Y011557D01*
X023720Y011508D01*
X023738Y011458D01*
X023751Y011407D01*
X023761Y011355D01*
X023767Y011302D01*
X023769Y011249D01*
X023767Y011196D01*
X023761Y011143D01*
X023751Y011091D01*
X023738Y011040D01*
X023720Y010990D01*
X023699Y010941D01*
X023674Y010894D01*
X023646Y010850D01*
X023614Y010807D01*
X023580Y010767D01*
X023542Y010729D01*
X023502Y010695D01*
X023459Y010663D01*
X023414Y010635D01*
X023368Y010610D01*
X023319Y010589D01*
X023269Y010571D01*
X023218Y010558D01*
X023166Y010548D01*
X023113Y010542D01*
X023060Y010540D01*
X023007Y010542D01*
X022954Y010548D01*
X022902Y010558D01*
X022851Y010571D01*
X022801Y010589D01*
X022752Y010610D01*
X022705Y010635D01*
X022661Y010663D01*
X022618Y010695D01*
X022578Y010729D01*
X022540Y010767D01*
X022506Y010807D01*
X022474Y010850D01*
X022446Y010895D01*
X022421Y010941D01*
X022400Y010990D01*
X022382Y011040D01*
X022369Y011091D01*
X022359Y011143D01*
X022353Y011196D01*
X022351Y011249D01*
X022149Y011227D02*
X021959Y011227D01*
X021959Y011290D02*
X021959Y011163D01*
X021959Y011069D02*
X022022Y011006D01*
X022022Y011037D02*
X022022Y010942D01*
X021959Y010942D02*
X022149Y010942D01*
X022149Y011037D01*
X022117Y011069D01*
X022054Y011069D01*
X022022Y011037D01*
X022086Y011163D02*
X022149Y011227D01*
X022054Y011384D02*
X022054Y011511D01*
X021959Y011479D02*
X022149Y011479D01*
X022054Y011384D01*
X022961Y011505D02*
X022961Y011662D01*
X023158Y011662D01*
X023158Y011505D01*
X019438Y011839D02*
X019438Y010658D01*
X018040Y010658D01*
X018040Y011839D01*
X019438Y011839D01*
X018828Y011662D02*
X018828Y011505D01*
X018828Y011662D02*
X018631Y011662D01*
X018631Y011505D01*
X018473Y011347D02*
X018316Y011347D01*
X018316Y011150D01*
X018473Y011150D01*
X018631Y010993D02*
X018631Y010835D01*
X018828Y010835D01*
X018828Y010993D01*
X018985Y011150D02*
X019143Y011150D01*
X019143Y011347D01*
X018985Y011347D01*
X018631Y010993D02*
X018601Y011007D01*
X018574Y011025D01*
X018548Y011045D01*
X018525Y011068D01*
X018505Y011094D01*
X018487Y011121D01*
X018473Y011151D01*
X018827Y011505D02*
X018857Y011491D01*
X018884Y011473D01*
X018910Y011453D01*
X018933Y011430D01*
X018953Y011404D01*
X018971Y011377D01*
X018985Y011347D01*
X018631Y011505D02*
X018601Y011491D01*
X018574Y011473D01*
X018548Y011453D01*
X018525Y011430D01*
X018505Y011404D01*
X018487Y011377D01*
X018473Y011347D01*
X018827Y010993D02*
X018857Y011007D01*
X018884Y011025D01*
X018910Y011045D01*
X018933Y011068D01*
X018953Y011094D01*
X018971Y011121D01*
X018985Y011151D01*
X018631Y011249D02*
X018633Y011268D01*
X018638Y011287D01*
X018648Y011303D01*
X018660Y011318D01*
X018675Y011330D01*
X018691Y011340D01*
X018710Y011345D01*
X018729Y011347D01*
X018748Y011345D01*
X018767Y011340D01*
X018783Y011330D01*
X018798Y011318D01*
X018810Y011303D01*
X018820Y011287D01*
X018825Y011268D01*
X018827Y011249D01*
X018825Y011230D01*
X018820Y011211D01*
X018810Y011195D01*
X018798Y011180D01*
X018783Y011168D01*
X018767Y011158D01*
X018748Y011153D01*
X018729Y011151D01*
X018710Y011153D01*
X018691Y011158D01*
X018675Y011168D01*
X018660Y011180D01*
X018648Y011195D01*
X018638Y011211D01*
X018633Y011230D01*
X018631Y011249D01*
X018020Y011249D02*
X018022Y011302D01*
X018028Y011355D01*
X018038Y011407D01*
X018051Y011458D01*
X018069Y011508D01*
X018090Y011557D01*
X018115Y011604D01*
X018143Y011648D01*
X018175Y011691D01*
X018209Y011731D01*
X018247Y011769D01*
X018287Y011803D01*
X018330Y011835D01*
X018375Y011863D01*
X018421Y011888D01*
X018470Y011909D01*
X018520Y011927D01*
X018571Y011940D01*
X018623Y011950D01*
X018676Y011956D01*
X018729Y011958D01*
X018782Y011956D01*
X018835Y011950D01*
X018887Y011940D01*
X018938Y011927D01*
X018988Y011909D01*
X019037Y011888D01*
X019084Y011863D01*
X019128Y011835D01*
X019171Y011803D01*
X019211Y011769D01*
X019249Y011731D01*
X019283Y011691D01*
X019315Y011648D01*
X019343Y011603D01*
X019368Y011557D01*
X019389Y011508D01*
X019407Y011458D01*
X019420Y011407D01*
X019430Y011355D01*
X019436Y011302D01*
X019438Y011249D01*
X019436Y011196D01*
X019430Y011143D01*
X019420Y011091D01*
X019407Y011040D01*
X019389Y010990D01*
X019368Y010941D01*
X019343Y010894D01*
X019315Y010850D01*
X019283Y010807D01*
X019249Y010767D01*
X019211Y010729D01*
X019171Y010695D01*
X019128Y010663D01*
X019083Y010635D01*
X019037Y010610D01*
X018988Y010589D01*
X018938Y010571D01*
X018887Y010558D01*
X018835Y010548D01*
X018782Y010542D01*
X018729Y010540D01*
X018676Y010542D01*
X018623Y010548D01*
X018571Y010558D01*
X018520Y010571D01*
X018470Y010589D01*
X018421Y010610D01*
X018374Y010635D01*
X018330Y010663D01*
X018287Y010695D01*
X018247Y010729D01*
X018209Y010767D01*
X018175Y010807D01*
X018143Y010850D01*
X018115Y010895D01*
X018090Y010941D01*
X018069Y010990D01*
X018051Y011040D01*
X018038Y011091D01*
X018028Y011143D01*
X018022Y011196D01*
X018020Y011249D01*
X017818Y011227D02*
X017628Y011227D01*
X017628Y011290D02*
X017628Y011163D01*
X017628Y011069D02*
X017692Y011006D01*
X017692Y011037D02*
X017692Y010942D01*
X017628Y010942D02*
X017818Y010942D01*
X017818Y011037D01*
X017787Y011069D01*
X017723Y011069D01*
X017692Y011037D01*
X017755Y011163D02*
X017818Y011227D01*
X017787Y011384D02*
X017818Y011416D01*
X017818Y011479D01*
X017787Y011511D01*
X017755Y011511D01*
X017723Y011479D01*
X017692Y011511D01*
X017660Y011511D01*
X017628Y011479D01*
X017628Y011416D01*
X017660Y011384D01*
X017723Y011448D02*
X017723Y011479D01*
D14*
X021450Y009081D03*
X021910Y009081D03*
X021910Y008097D03*
X021450Y008097D03*
X024994Y008097D03*
X025454Y008097D03*
X026965Y008101D03*
X027425Y008101D03*
X025454Y009081D03*
X024994Y009081D03*
X024997Y010070D03*
X025457Y010070D03*
X028143Y006522D03*
X028603Y006522D03*
X028603Y005341D03*
X028143Y005341D03*
X028143Y004357D03*
X028603Y004357D03*
X021717Y003967D03*
X021257Y003967D03*
X019942Y003963D03*
X019482Y003963D03*
X021253Y002782D03*
X021713Y002782D03*
X016205Y007314D03*
X015745Y007314D03*
X015745Y008495D03*
X016205Y008495D03*
X009118Y005739D03*
X008658Y005739D03*
X006165Y005739D03*
X005705Y005739D03*
X005702Y002979D03*
X006162Y002979D03*
X008658Y002983D03*
X009118Y002983D03*
D15*
X007507Y004131D03*
X007507Y004591D03*
X004357Y004591D03*
X004357Y004131D03*
X005345Y006883D03*
X005345Y007343D03*
X005345Y008655D03*
X005345Y009115D03*
X001605Y009115D03*
X001605Y008655D03*
X001605Y007540D03*
X001605Y007080D03*
D16*
X017961Y010520D02*
X017961Y010875D01*
X017961Y010520D02*
X019517Y010520D01*
X019582Y009919D02*
X019186Y009919D01*
X019186Y009899D02*
X019184Y009869D01*
X019179Y009839D01*
X019170Y009810D01*
X019157Y009783D01*
X019142Y009757D01*
X019123Y009733D01*
X019102Y009712D01*
X019078Y009693D01*
X019052Y009678D01*
X019025Y009665D01*
X018996Y009656D01*
X018966Y009651D01*
X018936Y009649D01*
X018906Y009651D01*
X018876Y009656D01*
X018847Y009665D01*
X018820Y009678D01*
X018794Y009693D01*
X018770Y009712D01*
X018749Y009733D01*
X018730Y009757D01*
X018715Y009783D01*
X018702Y009810D01*
X018693Y009839D01*
X018688Y009869D01*
X018686Y009899D01*
X018686Y009919D02*
X018354Y009919D01*
X018349Y009920D02*
X018324Y009921D01*
X018300Y009919D01*
X018276Y009913D01*
X018254Y009904D01*
X018233Y009891D01*
X018214Y009876D01*
X018197Y009858D01*
X018183Y009838D01*
X018172Y009817D01*
X018164Y009794D01*
X018159Y009770D01*
X018160Y009769D02*
X018160Y006429D01*
X018162Y006406D01*
X018167Y006383D01*
X018176Y006361D01*
X018189Y006341D01*
X018204Y006323D01*
X018222Y006308D01*
X018242Y006295D01*
X018264Y006286D01*
X018287Y006281D01*
X018310Y006279D01*
X019542Y006279D01*
X019563Y006278D01*
X019584Y006280D01*
X019604Y006285D01*
X019623Y006293D01*
X019640Y006304D01*
X019656Y006317D01*
X019669Y006333D01*
X019680Y006351D01*
X019688Y006370D01*
X019693Y006390D01*
X019692Y006390D02*
X019692Y009769D01*
X019693Y009769D02*
X019694Y009790D01*
X019692Y009811D01*
X019687Y009831D01*
X019679Y009850D01*
X019668Y009867D01*
X019655Y009883D01*
X019639Y009896D01*
X019621Y009907D01*
X019602Y009915D01*
X019582Y009920D01*
X022292Y010520D02*
X022292Y010875D01*
X022292Y010520D02*
X023847Y010520D01*
X023847Y011150D02*
X023847Y011347D01*
X023847Y011977D02*
X022292Y011977D01*
X022292Y011623D01*
X019517Y011347D02*
X019517Y011150D01*
X017961Y011623D02*
X017961Y011977D01*
X019517Y011977D01*
D17*
X018446Y009285D02*
X018446Y009138D01*
X018446Y009212D02*
X018666Y009212D01*
X018593Y009138D01*
X018666Y009064D02*
X018483Y009064D01*
X018446Y009027D01*
X018446Y008954D01*
X018483Y008917D01*
X018666Y008917D01*
D18*
X020023Y009099D03*
X020023Y008599D03*
X020023Y008099D03*
X020023Y007599D03*
X020023Y007099D03*
X020023Y006599D03*
X020023Y009599D03*
D19*
X017813Y009599D03*
D20*
X017826Y009099D03*
X017826Y008599D03*
X017826Y008099D03*
X017826Y007599D03*
X017826Y007099D03*
X017826Y006599D03*
D21*
X019836Y009899D03*
D22*
X019339Y010875D03*
X019339Y011623D03*
X023670Y011623D03*
X023670Y010875D03*
D23*
X022509Y011249D03*
X018178Y011249D03*
D24*
X026824Y009082D03*
X027564Y009082D03*
X027194Y009872D03*
M02*
