%
M48
M72
T01C0.0197
T02C0.0400
T03C0.0472
T04C0.0591
T05C0.1260
%
T01
X4950Y2981
X6328Y3572
X6918Y4044
X8060Y4674
X9871Y4359
X11131Y4831
X12706Y3808
X13611Y4359
X14989Y5343
X11249Y6957
X9891Y6898
X12666Y7115
X14831Y8532
X16800Y8532
X18493Y8375
X18926Y8493
X16997Y9359
X16957Y9910
X18572Y9910
X26800Y7509
X27784Y3572
X28611Y2942
X26603Y2784
X15186Y3375
X11839Y2981
X9280Y3532
X8493Y3532
X7509Y2469
X7509Y1564
X2391Y4241
X3493Y4713
X4871Y5146
X5973Y5265
X4792Y5776
X2391Y6485
X4753Y7587
X6091Y7272
X2391Y8020
X4753Y9438
X5934Y9477
X2706Y9792
X816Y10265
X3847Y11367
X2036Y11957
T02
X6765Y8993
X7765Y8993
X8765Y8993
X9765Y8993
X10765Y8993
X11765Y8993
X12765Y8993
X13765Y8993
X13765Y7993
X12765Y7993
X11765Y7993
X10765Y7993
X9765Y7993
X8765Y7993
X7765Y7993
X6765Y7993
X29961Y7902
X30961Y7902
X30961Y6721
X29961Y6721
X29961Y5540
X30961Y5540
X30961Y4359
X29961Y4359
T03
X29950Y9556
X30950Y9556
X28950Y9556
X28938Y11131
X29938Y11131
X30938Y11131
X27938Y11131
T04
X21997Y6643
X21997Y5225
X20580Y5225
T05
X1800Y1800
X30540Y1800
M30
