G75*
%MOIN*%
%OFA0B0*%
%FSLAX24Y24*%
%IPPOS*%
%LPD*%
%AMOC8*
5,1,8,0,0,1.08239X$1,22.5*
%
%ADD10C,0.0000*%
%ADD11C,0.0030*%
%ADD12C,0.0050*%
%ADD13C,0.0197*%
%ADD14C,0.0040*%
%ADD15C,0.0020*%
%ADD16C,0.0120*%
%ADD17C,0.2300*%
%ADD18OC8,0.0600*%
%ADD19R,0.0276X0.0157*%
%ADD20R,0.0433X0.0965*%
%ADD21R,0.0138X0.0197*%
%ADD22C,0.1083*%
%ADD23OC8,0.0709*%
%ADD24C,0.0160*%
%ADD25C,0.0317*%
%ADD26C,0.0157*%
D10*
X001800Y000422D02*
X030540Y000422D01*
X030612Y000424D01*
X030684Y000430D01*
X030756Y000439D01*
X030827Y000452D01*
X030897Y000469D01*
X030966Y000489D01*
X031034Y000514D01*
X031100Y000541D01*
X031166Y000572D01*
X031229Y000607D01*
X031291Y000644D01*
X031350Y000685D01*
X031407Y000729D01*
X031462Y000776D01*
X031514Y000826D01*
X031564Y000878D01*
X031611Y000933D01*
X031655Y000990D01*
X031696Y001049D01*
X031733Y001111D01*
X031768Y001174D01*
X031799Y001240D01*
X031826Y001306D01*
X031851Y001374D01*
X031871Y001443D01*
X031888Y001513D01*
X031901Y001584D01*
X031910Y001656D01*
X031916Y001728D01*
X031918Y001800D01*
X031918Y012233D01*
X016170Y012233D01*
X016170Y010068D01*
X004359Y010068D01*
X004359Y012233D01*
X000422Y012233D01*
X000422Y001800D01*
X000424Y001728D01*
X000430Y001656D01*
X000439Y001584D01*
X000452Y001513D01*
X000469Y001443D01*
X000489Y001374D01*
X000514Y001306D01*
X000541Y001240D01*
X000572Y001174D01*
X000607Y001111D01*
X000644Y001049D01*
X000685Y000990D01*
X000729Y000933D01*
X000776Y000878D01*
X000826Y000826D01*
X000878Y000776D01*
X000933Y000729D01*
X000990Y000685D01*
X001049Y000644D01*
X001111Y000607D01*
X001174Y000572D01*
X001240Y000541D01*
X001306Y000514D01*
X001374Y000489D01*
X001443Y000469D01*
X001513Y000452D01*
X001584Y000439D01*
X001656Y000430D01*
X001728Y000424D01*
X001800Y000422D01*
D11*
X005555Y002504D02*
X005555Y002874D01*
X005678Y002874D02*
X005431Y002874D01*
X005310Y002689D02*
X005063Y002689D01*
X005800Y002627D02*
X005923Y002504D01*
X006047Y002627D01*
X006047Y002874D01*
X006168Y002813D02*
X006168Y002566D01*
X006230Y002504D01*
X006353Y002504D01*
X006415Y002566D01*
X006415Y002813D01*
X006353Y002874D01*
X006230Y002874D01*
X006168Y002813D01*
X006536Y002813D02*
X006536Y002566D01*
X006598Y002504D01*
X006721Y002504D01*
X006783Y002566D01*
X006783Y002813D02*
X006721Y002874D01*
X006598Y002874D01*
X006536Y002813D01*
X006047Y003166D02*
X005985Y003104D01*
X005861Y003104D01*
X005800Y003166D01*
X005800Y003413D01*
X005861Y003474D01*
X005985Y003474D01*
X006047Y003413D01*
X006047Y003166D01*
X005678Y003166D02*
X005617Y003104D01*
X005493Y003104D01*
X005431Y003166D01*
X005431Y003413D01*
X005493Y003474D01*
X005617Y003474D01*
X005678Y003413D01*
X005310Y003289D02*
X005063Y003289D01*
X005800Y002874D02*
X005800Y002627D01*
X007858Y002502D02*
X008105Y002502D01*
X008227Y002440D02*
X008412Y002440D01*
X008473Y002502D01*
X008473Y002625D01*
X008412Y002687D01*
X008227Y002687D01*
X008227Y002317D01*
X008595Y002317D02*
X008595Y002563D01*
X008595Y002440D02*
X008718Y002563D01*
X008780Y002563D01*
X008902Y002502D02*
X008964Y002563D01*
X009087Y002563D01*
X009149Y002502D01*
X009149Y002440D01*
X008902Y002440D01*
X008902Y002378D02*
X008902Y002502D01*
X008902Y002378D02*
X008964Y002317D01*
X009087Y002317D01*
X009270Y002317D02*
X009455Y002317D01*
X009517Y002378D01*
X009455Y002440D01*
X009332Y002440D01*
X009270Y002502D01*
X009332Y002563D01*
X009517Y002563D01*
X009332Y002793D02*
X009332Y003163D01*
X009517Y003163D01*
X009578Y003102D01*
X009578Y002978D01*
X009517Y002917D01*
X009332Y002917D01*
X009210Y002917D02*
X009210Y003102D01*
X009148Y003163D01*
X009087Y003102D01*
X009087Y002917D01*
X008963Y002917D02*
X008963Y003163D01*
X009025Y003163D01*
X009087Y003102D01*
X008842Y003102D02*
X008780Y003163D01*
X008657Y003163D01*
X008595Y003102D01*
X008595Y002978D01*
X008657Y002917D01*
X008780Y002917D01*
X008842Y003040D02*
X008595Y003040D01*
X008842Y003040D02*
X008842Y003102D01*
X008473Y003287D02*
X008227Y003287D01*
X008350Y003287D02*
X008350Y002917D01*
X008105Y003102D02*
X007858Y003102D01*
X008227Y002087D02*
X008227Y001717D01*
X008473Y001717D02*
X008473Y002087D01*
X008595Y001963D02*
X008595Y001778D01*
X008657Y001717D01*
X008842Y001717D01*
X008842Y001963D01*
X008963Y001963D02*
X009025Y001963D01*
X009087Y001902D01*
X009148Y001963D01*
X009210Y001902D01*
X009210Y001717D01*
X009087Y001717D02*
X009087Y001902D01*
X008963Y001963D02*
X008963Y001717D01*
X008473Y001902D02*
X008227Y001902D01*
X008105Y001902D02*
X007858Y001902D01*
X026387Y004174D02*
X026387Y004544D01*
X026511Y004421D01*
X026634Y004544D01*
X026634Y004174D01*
X026756Y004236D02*
X026817Y004174D01*
X026941Y004174D01*
X027003Y004236D01*
X027003Y004483D01*
X026941Y004544D01*
X026817Y004544D01*
X026756Y004483D01*
X026756Y004236D01*
X027124Y004174D02*
X027247Y004174D01*
X027186Y004174D02*
X027186Y004544D01*
X027247Y004544D02*
X027124Y004544D01*
X027370Y004483D02*
X027431Y004544D01*
X027555Y004544D01*
X027616Y004483D01*
X027738Y004544D02*
X027985Y004544D01*
X028106Y004544D02*
X028106Y004236D01*
X028168Y004174D01*
X028291Y004174D01*
X028353Y004236D01*
X028353Y004544D01*
X028474Y004544D02*
X028660Y004544D01*
X028721Y004483D01*
X028721Y004359D01*
X028660Y004297D01*
X028474Y004297D01*
X028474Y004174D02*
X028474Y004544D01*
X028598Y004297D02*
X028721Y004174D01*
X028843Y004174D02*
X029090Y004174D01*
X028966Y004359D02*
X028843Y004359D01*
X028843Y004544D02*
X028843Y004174D01*
X028843Y004544D02*
X029090Y004544D01*
X027861Y004544D02*
X027861Y004174D01*
X027616Y004236D02*
X027616Y004297D01*
X027555Y004359D01*
X027431Y004359D01*
X027370Y004421D01*
X027370Y004483D01*
X027370Y004236D02*
X027431Y004174D01*
X027555Y004174D01*
X027616Y004236D01*
X027556Y009450D02*
X027679Y009573D01*
X027679Y009820D01*
X027801Y009758D02*
X027801Y009511D01*
X027862Y009450D01*
X027986Y009450D01*
X028047Y009511D01*
X028047Y009758D01*
X027986Y009820D01*
X027862Y009820D01*
X027801Y009758D01*
X027432Y009820D02*
X027432Y009573D01*
X027556Y009450D01*
X027311Y009450D02*
X027187Y009573D01*
X027249Y009573D02*
X027064Y009573D01*
X027064Y009450D02*
X027064Y009820D01*
X027249Y009820D01*
X027311Y009758D01*
X027311Y009635D01*
X027249Y009573D01*
X026942Y009450D02*
X026696Y009450D01*
X026696Y009820D01*
X026942Y009820D01*
X026819Y009635D02*
X026696Y009635D01*
X026574Y009573D02*
X026574Y009511D01*
X026512Y009450D01*
X026389Y009450D01*
X026327Y009511D01*
X026389Y009635D02*
X026512Y009635D01*
X026574Y009573D01*
X026389Y009635D02*
X026327Y009697D01*
X026327Y009758D01*
X026389Y009820D01*
X026512Y009820D01*
X026574Y009758D01*
X028757Y010220D02*
X028819Y010158D01*
X028942Y010158D01*
X029004Y010220D01*
X029004Y010282D01*
X028942Y010343D01*
X028819Y010343D01*
X028757Y010405D01*
X028757Y010467D01*
X028819Y010529D01*
X028942Y010529D01*
X029004Y010467D01*
X027142Y010968D02*
X027080Y010906D01*
X026957Y010906D01*
X026895Y010968D01*
X026774Y010906D02*
X026527Y010906D01*
X026527Y011277D01*
X026774Y011277D01*
X026895Y011215D02*
X026895Y011153D01*
X026957Y011091D01*
X027080Y011091D01*
X027142Y011030D01*
X027142Y010968D01*
X026650Y011091D02*
X026527Y011091D01*
X026405Y010968D02*
X026344Y010906D01*
X026220Y010906D01*
X026158Y010968D01*
X026158Y011215D01*
X026220Y011277D01*
X026344Y011277D01*
X026405Y011215D01*
X026037Y011215D02*
X025975Y011277D01*
X025852Y011277D01*
X025790Y011215D01*
X025790Y010968D01*
X025852Y010906D01*
X025975Y010906D01*
X026037Y010968D01*
X025669Y010906D02*
X025669Y011153D01*
X025545Y011277D01*
X025422Y011153D01*
X025422Y010906D01*
X025422Y011091D02*
X025669Y011091D01*
X026895Y011215D02*
X026957Y011277D01*
X027080Y011277D01*
X027142Y011215D01*
X027156Y011772D02*
X027033Y011772D01*
X026971Y011834D01*
X027033Y011958D02*
X027156Y011958D01*
X027218Y011896D01*
X027218Y011834D01*
X027156Y011772D01*
X027340Y011834D02*
X027401Y011772D01*
X027525Y011772D01*
X027586Y011834D01*
X027708Y011772D02*
X027955Y011772D01*
X027708Y011772D02*
X027708Y012143D01*
X027586Y012081D02*
X027525Y012143D01*
X027401Y012143D01*
X027340Y012081D01*
X027340Y011834D01*
X027033Y011958D02*
X026971Y012019D01*
X026971Y012081D01*
X027033Y012143D01*
X027156Y012143D01*
X027218Y012081D01*
X028389Y012081D02*
X028389Y012019D01*
X028450Y011958D01*
X028574Y011958D01*
X028635Y011896D01*
X028635Y011834D01*
X028574Y011772D01*
X028450Y011772D01*
X028389Y011834D01*
X028757Y011772D02*
X028942Y011772D01*
X029004Y011834D01*
X029004Y012081D01*
X028942Y012143D01*
X028757Y012143D01*
X028757Y011772D01*
X028635Y012081D02*
X028574Y012143D01*
X028450Y012143D01*
X028389Y012081D01*
X029125Y012019D02*
X029125Y011772D01*
X029125Y011958D02*
X029372Y011958D01*
X029372Y012019D02*
X029372Y011772D01*
X029372Y012019D02*
X029249Y012143D01*
X029125Y012019D01*
D12*
X029671Y011879D02*
X030078Y011879D01*
X029874Y012083D02*
X029874Y011675D01*
X030655Y011973D02*
X031062Y011973D01*
X029874Y010547D02*
X029874Y010140D01*
X029671Y010344D02*
X030078Y010344D01*
X030655Y010398D02*
X031062Y010398D01*
X030898Y008933D02*
X030898Y008526D01*
X030694Y008729D02*
X031101Y008729D01*
X030117Y008784D02*
X029710Y008784D01*
X028520Y008106D02*
X028418Y008208D01*
X028113Y008208D01*
X028113Y007597D01*
X028418Y007597D01*
X028520Y007699D01*
X028520Y008106D01*
X027912Y008208D02*
X027505Y008208D01*
X027505Y007597D01*
X027912Y007597D01*
X027709Y007903D02*
X027505Y007903D01*
X027305Y007597D02*
X026898Y007597D01*
X026898Y008208D01*
X027488Y007027D02*
X027488Y006416D01*
X027895Y006416D01*
X028096Y006416D02*
X028401Y006416D01*
X028503Y006518D01*
X028503Y006925D01*
X028401Y007027D01*
X028096Y007027D01*
X028096Y006416D01*
X028704Y006416D02*
X028704Y007027D01*
X029009Y007027D01*
X029111Y006925D01*
X029111Y006722D01*
X029009Y006620D01*
X028704Y006620D01*
X028907Y006620D02*
X029111Y006416D01*
X029009Y005846D02*
X028805Y005846D01*
X028704Y005744D01*
X028704Y005337D01*
X028805Y005235D01*
X029009Y005235D01*
X029111Y005337D01*
X029111Y005744D02*
X029009Y005846D01*
X028503Y005846D02*
X028096Y005846D01*
X027895Y005846D02*
X027895Y005235D01*
X027488Y005846D01*
X027488Y005235D01*
X028299Y005235D02*
X028299Y005846D01*
X026032Y005265D02*
X025402Y005265D01*
X025402Y006603D01*
X026032Y006603D01*
X026032Y005265D01*
X021408Y007919D02*
X021408Y008110D01*
X021313Y008015D01*
X021440Y008015D01*
X021219Y007951D02*
X021219Y008110D01*
X021092Y008110D02*
X021092Y007951D01*
X021124Y007919D01*
X021187Y007919D01*
X021219Y007951D01*
X017174Y006603D02*
X016544Y006603D01*
X016544Y005265D01*
X017174Y005265D01*
X017174Y006603D01*
X008759Y005143D02*
X008759Y005111D01*
X008728Y005079D01*
X008759Y005047D01*
X008759Y005016D01*
X008728Y004984D01*
X008664Y004984D01*
X008633Y005016D01*
X008696Y005079D02*
X008728Y005079D01*
X008759Y005143D02*
X008728Y005174D01*
X008664Y005174D01*
X008633Y005143D01*
X008538Y005174D02*
X008538Y005016D01*
X008507Y004984D01*
X008443Y004984D01*
X008412Y005016D01*
X008412Y005174D01*
X005807Y005581D02*
X005680Y005581D01*
X005807Y005708D01*
X005807Y005739D01*
X005775Y005771D01*
X005712Y005771D01*
X005680Y005739D01*
X005586Y005771D02*
X005586Y005613D01*
X005554Y005581D01*
X005491Y005581D01*
X005459Y005613D01*
X005459Y005771D01*
X020619Y001820D02*
X020619Y001190D01*
X021957Y001190D01*
X021957Y001820D01*
X020619Y001820D01*
X020619Y010048D02*
X020619Y010678D01*
X021957Y010678D01*
X021957Y010048D01*
X020619Y010048D01*
D13*
X019910Y011052D02*
X019320Y010461D01*
X019320Y010265D01*
X018139Y010186D02*
X018099Y010186D01*
X019359Y011446D01*
X021288Y011446D01*
X021682Y011839D02*
X018926Y011839D01*
X017548Y010461D01*
X019910Y011052D02*
X022272Y011052D01*
X022469Y010855D01*
X022469Y010461D01*
X022509Y009674D02*
X007115Y009674D01*
X006721Y009280D01*
X006721Y009036D01*
X006765Y008993D01*
X004753Y009438D02*
X004753Y007587D01*
X004457Y007410D02*
X003965Y006918D01*
X003965Y006131D01*
X004556Y005540D01*
X004654Y005540D01*
X007410Y005540D01*
X009969Y005540D01*
X010461Y006032D01*
X010461Y006820D01*
X009871Y007410D01*
X004457Y007410D01*
X003493Y008060D02*
X001763Y009790D01*
X001763Y011684D01*
X002036Y011957D01*
X003335Y010855D02*
X003847Y011367D01*
X003335Y010855D02*
X003335Y010107D01*
X004280Y009162D01*
X004280Y002469D01*
X004713Y002036D01*
X008729Y002036D01*
X009270Y002578D01*
X009270Y003956D01*
X009871Y004123D02*
X010186Y003808D01*
X012706Y003808D01*
X013611Y004359D02*
X010855Y004359D01*
X007942Y007272D01*
X006091Y007272D01*
X003926Y008257D02*
X003926Y002194D01*
X004477Y001643D01*
X007430Y001643D01*
X007509Y001564D01*
X008690Y001209D02*
X004359Y001209D01*
X003572Y001997D01*
X003572Y003375D01*
X003178Y003769D01*
X002194Y003769D01*
X001800Y004162D01*
X001800Y009280D01*
X000816Y010265D01*
X002706Y009792D02*
X002706Y009477D01*
X003926Y008257D01*
X003493Y008060D02*
X003493Y004713D01*
X002391Y004241D02*
X002391Y006485D01*
X002391Y008020D01*
X008887Y007115D02*
X010658Y005343D01*
X014989Y005343D01*
X015461Y004831D02*
X016328Y003965D01*
X026209Y003965D01*
X026603Y004359D01*
X029961Y004359D01*
X030461Y004950D02*
X030961Y004450D01*
X030961Y004359D01*
X030461Y004950D02*
X023060Y004950D01*
X022469Y004359D01*
X019910Y004359D01*
X017154Y007115D01*
X016367Y007115D01*
X015580Y006328D01*
X010461Y006328D01*
X009871Y006918D01*
X009871Y007887D01*
X009765Y007993D01*
X010765Y007993D02*
X010855Y007902D01*
X010855Y007115D01*
X011249Y006721D01*
X014398Y006721D01*
X015383Y007706D01*
X026603Y007706D01*
X026800Y007509D01*
X026946Y007312D02*
X027368Y007312D01*
X027762Y007312D02*
X028184Y007312D01*
X028577Y007312D02*
X028999Y007312D01*
X029393Y007312D02*
X029815Y007312D01*
X030208Y007312D02*
X030630Y007312D01*
X031024Y007312D02*
X031446Y007312D01*
X030961Y007902D02*
X030961Y006721D01*
X030961Y005540D01*
X031643Y003769D02*
X031446Y003572D01*
X029359Y003572D01*
X027981Y002194D01*
X009674Y002194D01*
X008690Y001209D01*
X007509Y002469D02*
X007509Y004241D01*
X006957Y004792D01*
X009871Y004359D02*
X009871Y004123D01*
X011131Y004831D02*
X015461Y004831D01*
X016564Y004753D02*
X017548Y004753D01*
X017942Y005146D01*
X016564Y004753D02*
X015383Y005934D01*
X010658Y005934D01*
X012036Y007115D02*
X011839Y007312D01*
X011839Y007918D01*
X011765Y007993D01*
X012036Y007115D02*
X014202Y007115D01*
X015186Y008099D01*
X028257Y008099D01*
X028257Y008139D01*
X028965Y008847D01*
X028965Y009540D01*
X028950Y009556D01*
X028926Y009532D01*
X029950Y009556D02*
X029950Y009044D01*
X030225Y008769D01*
X030501Y008769D01*
X030961Y008308D01*
X030961Y007902D01*
X029950Y009556D02*
X029950Y011119D01*
X029938Y011131D01*
X028938Y011131D02*
X028938Y011576D01*
X029280Y011918D01*
X031249Y011918D01*
X031643Y011524D01*
X031643Y003769D01*
X027784Y003572D02*
X027587Y003375D01*
X015186Y003375D01*
X012036Y002784D02*
X011839Y002981D01*
X012036Y002784D02*
X026603Y002784D01*
X026553Y007312D02*
X026131Y007312D01*
X022017Y008611D02*
X020737Y008611D01*
X018729Y009280D02*
X015186Y009280D01*
D14*
X009625Y006953D02*
X009452Y006953D01*
X009538Y007039D02*
X009538Y006692D01*
X009625Y006606D01*
X009283Y006606D02*
X009283Y006866D01*
X009196Y006953D01*
X008936Y006953D01*
X008936Y006606D01*
X008767Y006779D02*
X008420Y006779D01*
X008420Y006692D02*
X008420Y006866D01*
X008507Y006953D01*
X008681Y006953D01*
X008767Y006866D01*
X008767Y006779D01*
X008681Y006606D02*
X008507Y006606D01*
X008420Y006692D01*
X008252Y006606D02*
X008252Y006866D01*
X008165Y006953D01*
X008078Y006866D01*
X008078Y006606D01*
X007905Y006606D02*
X007905Y006953D01*
X007992Y006953D01*
X008078Y006866D01*
X007736Y006866D02*
X007649Y006953D01*
X007389Y006953D01*
X007389Y006606D01*
X007220Y006692D02*
X007134Y006606D01*
X006960Y006606D01*
X006874Y006692D01*
X006874Y006866D01*
X006960Y006953D01*
X007134Y006953D01*
X007220Y006866D01*
X007220Y006692D01*
X007736Y006606D02*
X007736Y006866D01*
X006704Y006953D02*
X006617Y006953D01*
X006444Y006779D01*
X006444Y006606D02*
X006444Y006953D01*
X006187Y006953D02*
X006187Y006606D01*
X006100Y006606D02*
X006274Y006606D01*
X005931Y006953D02*
X005758Y006606D01*
X005584Y006953D01*
X005416Y006866D02*
X005416Y006606D01*
X005069Y006606D02*
X005069Y006953D01*
X005329Y006953D01*
X005416Y006866D01*
X004900Y007126D02*
X004553Y007126D01*
X004553Y006606D01*
X004900Y006606D01*
X004727Y006866D02*
X004553Y006866D01*
X006100Y006953D02*
X006187Y006953D01*
X006187Y007126D02*
X006187Y007213D01*
X007003Y006373D02*
X007003Y006286D01*
X007003Y006113D02*
X007003Y005766D01*
X006917Y005766D02*
X007090Y005766D01*
X007347Y005852D02*
X007434Y005766D01*
X007347Y005852D02*
X007347Y006199D01*
X007260Y006113D02*
X007434Y006113D01*
X007604Y006113D02*
X007691Y006113D01*
X007691Y005766D01*
X007604Y005766D02*
X007778Y005766D01*
X007948Y005852D02*
X008035Y005766D01*
X008208Y005766D01*
X008295Y005852D01*
X008295Y006026D01*
X008208Y006113D01*
X008035Y006113D01*
X007948Y006026D01*
X007948Y005852D01*
X008463Y005766D02*
X008463Y006113D01*
X008724Y006113D01*
X008810Y006026D01*
X008810Y005766D01*
X008979Y005766D02*
X009239Y005766D01*
X009326Y005852D01*
X009239Y005939D01*
X009066Y005939D01*
X008979Y006026D01*
X009066Y006113D01*
X009326Y006113D01*
X007691Y006286D02*
X007691Y006373D01*
X007003Y006113D02*
X006917Y006113D01*
X006748Y006113D02*
X006488Y006113D01*
X006401Y006026D01*
X006401Y005852D01*
X006488Y005766D01*
X006748Y005766D01*
X006748Y006286D01*
X006232Y006026D02*
X006145Y006113D01*
X005885Y006113D01*
X005885Y005766D01*
X005717Y005852D02*
X005717Y006026D01*
X005630Y006113D01*
X005456Y006113D01*
X005370Y006026D01*
X005370Y005852D01*
X005456Y005766D01*
X005630Y005766D01*
X005717Y005852D01*
X005201Y005852D02*
X005114Y005766D01*
X004941Y005766D01*
X004854Y005852D01*
X004854Y006199D01*
X004941Y006286D01*
X005114Y006286D01*
X005201Y006199D01*
X006232Y006026D02*
X006232Y005766D01*
X017527Y001076D02*
X017787Y001076D01*
X017874Y000989D01*
X017874Y000816D01*
X017787Y000729D01*
X017527Y000729D01*
X017527Y000556D02*
X017527Y001076D01*
X018042Y000903D02*
X018042Y000556D01*
X018042Y000729D02*
X018216Y000903D01*
X018303Y000903D01*
X018472Y000816D02*
X018559Y000903D01*
X018732Y000903D01*
X018819Y000816D01*
X018819Y000729D01*
X018472Y000729D01*
X018472Y000642D02*
X018472Y000816D01*
X018472Y000642D02*
X018559Y000556D01*
X018732Y000556D01*
X018988Y000556D02*
X019248Y000556D01*
X019335Y000642D01*
X019248Y000729D01*
X019075Y000729D01*
X018988Y000816D01*
X019075Y000903D01*
X019335Y000903D01*
X019503Y000816D02*
X019590Y000903D01*
X019764Y000903D01*
X019850Y000816D01*
X019850Y000729D01*
X019503Y000729D01*
X019503Y000642D02*
X019503Y000816D01*
X019503Y000642D02*
X019590Y000556D01*
X019764Y000556D01*
X020019Y000556D02*
X020019Y000903D01*
X020279Y000903D01*
X020366Y000816D01*
X020366Y000556D01*
X020535Y000642D02*
X020621Y000556D01*
X020882Y000556D01*
X021050Y000642D02*
X021050Y000816D01*
X021137Y000903D01*
X021311Y000903D01*
X021397Y000816D01*
X021397Y000729D01*
X021050Y000729D01*
X021050Y000642D02*
X021137Y000556D01*
X021311Y000556D01*
X020621Y000903D02*
X020535Y000816D01*
X020535Y000642D01*
X020621Y000903D02*
X020882Y000903D01*
X022082Y000816D02*
X022168Y000729D01*
X022342Y000729D01*
X022429Y000642D01*
X022342Y000556D01*
X022082Y000556D01*
X022597Y000642D02*
X022597Y000816D01*
X022684Y000903D01*
X022858Y000903D01*
X022944Y000816D01*
X022944Y000729D01*
X022597Y000729D01*
X022597Y000642D02*
X022684Y000556D01*
X022858Y000556D01*
X023113Y000556D02*
X023113Y000903D01*
X023373Y000903D01*
X023460Y000816D01*
X023460Y000556D01*
X023629Y000556D02*
X023889Y000556D01*
X023976Y000642D01*
X023889Y000729D01*
X023715Y000729D01*
X023629Y000816D01*
X023715Y000903D01*
X023976Y000903D01*
X024144Y000816D02*
X024231Y000903D01*
X024404Y000903D01*
X024491Y000816D01*
X024491Y000642D01*
X024404Y000556D01*
X024231Y000556D01*
X024144Y000642D01*
X024144Y000816D01*
X024660Y000903D02*
X024660Y000556D01*
X024660Y000729D02*
X024833Y000903D01*
X024920Y000903D01*
X022429Y000903D02*
X022168Y000903D01*
X022082Y000816D01*
D15*
X006288Y003090D02*
X006141Y003090D01*
X006288Y003236D01*
X006288Y003273D01*
X006251Y003310D01*
X006177Y003310D01*
X006141Y003273D01*
D16*
X007410Y003178D02*
X007410Y002784D01*
X007410Y002391D02*
X007410Y001997D01*
X007410Y001603D02*
X007410Y001209D01*
X005245Y001209D01*
X004654Y001800D01*
X004654Y005540D01*
X007410Y005540D02*
X007410Y005146D01*
X007410Y004753D02*
X007410Y004359D01*
X007410Y003965D02*
X007410Y003572D01*
X009477Y001209D02*
X009969Y001702D01*
X009969Y005540D01*
X009477Y001209D02*
X007410Y001209D01*
D17*
X001800Y001800D03*
X030540Y001800D03*
D18*
X030961Y004359D03*
X029961Y004359D03*
X029961Y005540D03*
X030961Y005540D03*
X030961Y006721D03*
X029961Y006721D03*
X029961Y007902D03*
X030961Y007902D03*
X013765Y007993D03*
X012765Y007993D03*
X011765Y007993D03*
X010765Y007993D03*
X009765Y007993D03*
X008765Y007993D03*
X007765Y007993D03*
X006765Y007993D03*
X006765Y008993D03*
X007765Y008993D03*
X008765Y008993D03*
X009765Y008993D03*
X010765Y008993D03*
X011765Y008993D03*
X012765Y008993D03*
X013765Y008993D03*
D19*
X006367Y005028D03*
X006367Y004792D03*
X006367Y004556D03*
X006367Y004320D03*
X006367Y004083D03*
X005501Y004083D03*
X005501Y004320D03*
X005501Y004556D03*
X005501Y004792D03*
X005501Y005028D03*
D20*
X005934Y004556D03*
D21*
X008503Y004763D03*
X008759Y004763D03*
X009015Y004763D03*
X009270Y004763D03*
X009270Y003956D03*
X009015Y003956D03*
X008759Y003956D03*
X008503Y003956D03*
D22*
X020580Y005225D03*
X021997Y005225D03*
X021997Y006643D03*
D23*
X028950Y009556D03*
X029950Y009556D03*
X030950Y009556D03*
X030938Y011131D03*
X029938Y011131D03*
X028938Y011131D03*
X027938Y011131D03*
D24*
X028432Y011200D02*
X028443Y011200D01*
X028443Y011335D02*
X028443Y010926D01*
X028733Y010636D01*
X029143Y010636D01*
X029432Y010926D01*
X029432Y011335D01*
X029233Y011534D01*
X029379Y011680D01*
X031150Y011680D01*
X031404Y011426D01*
X031404Y011420D01*
X031159Y011665D01*
X030976Y011665D01*
X030976Y011169D01*
X030900Y011169D01*
X030900Y011665D01*
X030716Y011665D01*
X030410Y011358D01*
X030143Y011625D01*
X029733Y011625D01*
X029443Y011335D01*
X029443Y010926D01*
X029711Y010658D01*
X029711Y010017D01*
X029455Y009761D01*
X029455Y009351D01*
X029711Y009095D01*
X029711Y008945D01*
X029851Y008806D01*
X030126Y008530D01*
X030402Y008530D01*
X030684Y008248D01*
X030521Y008085D01*
X030521Y007720D01*
X030723Y007519D01*
X030723Y007105D01*
X030521Y006904D01*
X030521Y006539D01*
X030723Y006337D01*
X030723Y005924D01*
X030521Y005722D01*
X030521Y005358D01*
X030779Y005100D01*
X031144Y005100D01*
X031401Y005358D01*
X031401Y005722D01*
X031200Y005924D01*
X031200Y006337D01*
X031401Y006539D01*
X031401Y006904D01*
X031200Y007105D01*
X031200Y007519D01*
X031401Y007720D01*
X031401Y008085D01*
X031200Y008286D01*
X031200Y008407D01*
X030739Y008867D01*
X030600Y009007D01*
X030324Y009007D01*
X030212Y009119D01*
X030421Y009329D01*
X030728Y009022D01*
X030911Y009022D01*
X030911Y009518D01*
X030988Y009518D01*
X030988Y009022D01*
X031171Y009022D01*
X031404Y009255D01*
X031404Y003867D01*
X031347Y003810D01*
X029260Y003810D01*
X027882Y002432D01*
X009575Y002432D01*
X008591Y001448D01*
X007784Y001448D01*
X007807Y001504D01*
X007807Y001623D01*
X007762Y001733D01*
X007697Y001798D01*
X008828Y001798D01*
X008968Y001937D01*
X008968Y001937D01*
X009369Y002339D01*
X009369Y002339D01*
X009509Y002479D01*
X009509Y003339D01*
X009533Y003363D01*
X009579Y003473D01*
X009579Y003592D01*
X010064Y003592D01*
X010087Y003569D02*
X012522Y003569D01*
X012536Y003555D01*
X012646Y003509D01*
X012765Y003509D01*
X012875Y003555D01*
X012959Y003639D01*
X013004Y003749D01*
X013004Y003867D01*
X012959Y003977D01*
X012875Y004061D01*
X012765Y004106D01*
X012646Y004106D01*
X012536Y004061D01*
X012522Y004046D01*
X010285Y004046D01*
X010129Y004202D01*
X010169Y004300D01*
X010169Y004418D01*
X010124Y004528D01*
X010040Y004612D01*
X009930Y004657D01*
X009812Y004657D01*
X009702Y004612D01*
X009668Y004578D01*
X009451Y004578D01*
X009479Y004606D01*
X009479Y004662D01*
X009489Y004672D01*
X009489Y005365D01*
X009174Y005680D01*
X006985Y005680D01*
X006857Y005552D01*
X006586Y005281D01*
X006586Y005710D01*
X006428Y005867D01*
X006300Y005995D01*
X004995Y005995D01*
X004961Y006029D01*
X004851Y006075D01*
X004733Y006075D01*
X004623Y006029D01*
X004539Y005945D01*
X004519Y005896D01*
X004519Y007399D01*
X004584Y007334D01*
X004693Y007289D01*
X004812Y007289D01*
X004922Y007334D01*
X005006Y007418D01*
X005051Y007528D01*
X005051Y007647D01*
X005006Y007756D01*
X004991Y007771D01*
X004991Y009254D01*
X005006Y009269D01*
X005051Y009378D01*
X005051Y009497D01*
X005006Y009607D01*
X004922Y009691D01*
X004812Y009736D01*
X004693Y009736D01*
X004584Y009691D01*
X004500Y009607D01*
X004454Y009497D01*
X004454Y009378D01*
X004492Y009288D01*
X003574Y010206D01*
X003574Y010756D01*
X003886Y011069D01*
X003907Y011069D01*
X004016Y011114D01*
X004100Y011198D01*
X004146Y011308D01*
X004146Y011426D01*
X004100Y011536D01*
X004016Y011620D01*
X003907Y011665D01*
X003788Y011665D01*
X003678Y011620D01*
X003594Y011536D01*
X003549Y011426D01*
X003549Y011406D01*
X003097Y010954D01*
X003097Y010008D01*
X003237Y009869D01*
X004042Y009063D01*
X004042Y008478D01*
X004025Y008495D01*
X002944Y009576D01*
X002944Y009609D01*
X002959Y009623D01*
X003004Y009733D01*
X003004Y009851D01*
X002959Y009961D01*
X002875Y010045D01*
X002765Y010091D01*
X002646Y010091D01*
X002536Y010045D01*
X002453Y009961D01*
X002407Y009851D01*
X002407Y009733D01*
X002453Y009623D01*
X002467Y009609D01*
X002467Y009423D01*
X002002Y009888D01*
X002002Y011586D01*
X002075Y011659D01*
X002096Y011659D01*
X002205Y011704D01*
X002289Y011788D01*
X002335Y011898D01*
X002335Y012017D01*
X002320Y012053D01*
X004179Y012053D01*
X004179Y009993D01*
X004284Y009888D01*
X006991Y009888D01*
X006877Y009773D01*
X006623Y009519D01*
X006483Y009379D01*
X006483Y009333D01*
X006325Y009175D01*
X006325Y008811D01*
X006582Y008553D01*
X006947Y008553D01*
X007205Y008811D01*
X007205Y009175D01*
X007079Y009301D01*
X007214Y009436D01*
X012528Y009436D01*
X012285Y009192D01*
X012285Y009013D01*
X012745Y009013D01*
X012745Y008973D01*
X012785Y008973D01*
X012785Y009013D01*
X013245Y009013D01*
X013245Y009192D01*
X013001Y009436D01*
X013528Y009436D01*
X013285Y009192D01*
X013285Y009013D01*
X013745Y009013D01*
X013745Y008973D01*
X013785Y008973D01*
X013785Y009013D01*
X014245Y009013D01*
X014245Y009192D01*
X014001Y009436D01*
X014927Y009436D01*
X014887Y009340D01*
X014887Y009221D01*
X014933Y009111D01*
X015017Y009027D01*
X015126Y008982D01*
X015245Y008982D01*
X015355Y009027D01*
X015369Y009042D01*
X018546Y009042D01*
X018560Y009027D01*
X018670Y008982D01*
X018788Y008982D01*
X018898Y009027D01*
X018982Y009111D01*
X019028Y009221D01*
X019028Y009340D01*
X018988Y009436D01*
X022607Y009436D01*
X022747Y009575D01*
X022747Y009773D01*
X022607Y009912D01*
X022112Y009912D01*
X022162Y009963D01*
X022162Y010763D01*
X022112Y010814D01*
X022174Y010814D01*
X022231Y010756D01*
X022231Y010645D01*
X022216Y010630D01*
X022171Y010521D01*
X022171Y010402D01*
X022216Y010292D01*
X022300Y010208D01*
X022410Y010163D01*
X022529Y010163D01*
X022638Y010208D01*
X022722Y010292D01*
X022768Y010402D01*
X022768Y010521D01*
X022722Y010630D01*
X022708Y010645D01*
X022708Y010954D01*
X022568Y011094D01*
X022371Y011290D01*
X021547Y011290D01*
X021587Y011386D01*
X021587Y011505D01*
X021561Y011566D01*
X021623Y011541D01*
X021741Y011541D01*
X021851Y011586D01*
X021935Y011670D01*
X021980Y011780D01*
X021980Y011899D01*
X021935Y012008D01*
X021890Y012053D01*
X029078Y012053D01*
X029042Y012017D01*
X028699Y011674D01*
X028699Y011591D01*
X028443Y011335D01*
X028432Y011335D02*
X028143Y011625D01*
X027733Y011625D01*
X027443Y011335D01*
X027443Y010926D01*
X027733Y010636D01*
X028143Y010636D01*
X028432Y010926D01*
X028432Y011335D01*
X028409Y011359D02*
X028467Y011359D01*
X028625Y011517D02*
X028251Y011517D01*
X028701Y011676D02*
X021937Y011676D01*
X021980Y011834D02*
X028859Y011834D01*
X029375Y011676D02*
X031154Y011676D01*
X031307Y011517D02*
X031313Y011517D01*
X030976Y011517D02*
X030900Y011517D01*
X030568Y011517D02*
X030251Y011517D01*
X030409Y011359D02*
X030410Y011359D01*
X030900Y011359D02*
X030976Y011359D01*
X030976Y011200D02*
X030900Y011200D01*
X030900Y011093D02*
X030976Y011093D01*
X030976Y010596D01*
X031159Y010596D01*
X031404Y010841D01*
X031404Y009857D01*
X031171Y010090D01*
X030988Y010090D01*
X030988Y009594D01*
X030911Y009594D01*
X030911Y010090D01*
X030728Y010090D01*
X030421Y009783D01*
X030188Y010017D01*
X030188Y010682D01*
X030410Y010903D01*
X030716Y010596D01*
X030900Y010596D01*
X030900Y011093D01*
X030900Y011042D02*
X030976Y011042D01*
X030976Y010883D02*
X030900Y010883D01*
X030430Y010883D02*
X030389Y010883D01*
X030231Y010725D02*
X030588Y010725D01*
X030900Y010725D02*
X030976Y010725D01*
X031287Y010725D02*
X031404Y010725D01*
X031404Y010566D02*
X030188Y010566D01*
X030188Y010408D02*
X031404Y010408D01*
X031404Y010249D02*
X030188Y010249D01*
X030188Y010091D02*
X031404Y010091D01*
X031404Y009932D02*
X031329Y009932D01*
X030988Y009932D02*
X030911Y009932D01*
X030911Y009774D02*
X030988Y009774D01*
X030988Y009615D02*
X030911Y009615D01*
X030911Y009457D02*
X030988Y009457D01*
X030988Y009298D02*
X030911Y009298D01*
X030911Y009140D02*
X030988Y009140D01*
X031289Y009140D02*
X031404Y009140D01*
X031404Y008981D02*
X030625Y008981D01*
X030610Y009140D02*
X030232Y009140D01*
X030391Y009298D02*
X030452Y009298D01*
X029667Y009140D02*
X029232Y009140D01*
X029204Y009111D02*
X029444Y009351D01*
X029444Y009761D01*
X029154Y010050D01*
X028745Y010050D01*
X028455Y009761D01*
X028455Y009351D01*
X028727Y009079D01*
X028727Y008946D01*
X028119Y008338D01*
X022136Y008338D01*
X022186Y008358D01*
X022270Y008442D01*
X022315Y008552D01*
X022315Y008670D01*
X022270Y008780D01*
X022186Y008864D01*
X022076Y008909D01*
X021957Y008909D01*
X021847Y008864D01*
X021833Y008849D01*
X020921Y008849D01*
X020906Y008864D01*
X020796Y008909D01*
X020678Y008909D01*
X020568Y008864D01*
X020484Y008780D01*
X020439Y008670D01*
X020439Y008552D01*
X020484Y008442D01*
X020568Y008358D01*
X020617Y008338D01*
X015087Y008338D01*
X014947Y008198D01*
X014103Y007353D01*
X012135Y007353D01*
X012078Y007411D01*
X012078Y007684D01*
X012205Y007811D01*
X012205Y008175D01*
X011947Y008433D01*
X011582Y008433D01*
X011325Y008175D01*
X011325Y007811D01*
X011582Y007553D01*
X011601Y007553D01*
X011601Y007213D01*
X011741Y007073D01*
X011854Y006960D01*
X011348Y006960D01*
X011094Y007214D01*
X011094Y007700D01*
X011205Y007811D01*
X011205Y008175D01*
X010947Y008433D01*
X010582Y008433D01*
X010325Y008175D01*
X010325Y007811D01*
X010582Y007553D01*
X010617Y007553D01*
X010617Y007016D01*
X010756Y006877D01*
X011067Y006566D01*
X010560Y006566D01*
X010109Y007017D01*
X010109Y007715D01*
X010205Y007811D01*
X010205Y008175D01*
X009947Y008433D01*
X009582Y008433D01*
X009325Y008175D01*
X009325Y007811D01*
X009582Y007553D01*
X009632Y007553D01*
X009632Y006819D01*
X009772Y006680D01*
X010363Y006089D01*
X010400Y006089D01*
X010360Y005993D01*
X010360Y005979D01*
X009185Y007154D01*
X009185Y007174D01*
X009140Y007284D01*
X009056Y007368D01*
X008946Y007413D01*
X008827Y007413D01*
X008718Y007368D01*
X008634Y007284D01*
X008588Y007174D01*
X008588Y007056D01*
X008634Y006946D01*
X008718Y006862D01*
X008827Y006817D01*
X008848Y006817D01*
X010420Y005245D01*
X010560Y005105D01*
X011011Y005105D01*
X010962Y005084D01*
X010878Y005001D01*
X010832Y004891D01*
X010832Y004772D01*
X010870Y004682D01*
X008040Y007511D01*
X006275Y007511D01*
X006260Y007525D01*
X006151Y007571D01*
X006032Y007571D01*
X005922Y007525D01*
X005838Y007441D01*
X005793Y007332D01*
X005793Y007213D01*
X005838Y007103D01*
X005922Y007019D01*
X006032Y006974D01*
X006151Y006974D01*
X006260Y007019D01*
X006275Y007034D01*
X007843Y007034D01*
X010617Y004260D01*
X010756Y004121D01*
X013427Y004121D01*
X013442Y004106D01*
X013552Y004061D01*
X013670Y004061D01*
X013780Y004106D01*
X013864Y004190D01*
X013909Y004300D01*
X013909Y004418D01*
X013864Y004528D01*
X013799Y004593D01*
X015363Y004593D01*
X016089Y003867D01*
X016089Y003867D01*
X016229Y003727D01*
X026308Y003727D01*
X026702Y004121D01*
X029578Y004121D01*
X029779Y003919D01*
X030144Y003919D01*
X030401Y004177D01*
X030401Y004541D01*
X030232Y004711D01*
X030363Y004711D01*
X030527Y004547D01*
X030521Y004541D01*
X030521Y004177D01*
X030779Y003919D01*
X031144Y003919D01*
X031401Y004177D01*
X031401Y004541D01*
X031144Y004799D01*
X030949Y004799D01*
X030700Y005048D01*
X030560Y005188D01*
X030232Y005188D01*
X030401Y005358D01*
X030401Y005722D01*
X030144Y005980D01*
X029779Y005980D01*
X029521Y005722D01*
X029521Y005358D01*
X029691Y005188D01*
X026237Y005188D01*
X026237Y005349D01*
X026237Y006518D01*
X026237Y006688D01*
X026117Y006808D01*
X025317Y006808D01*
X025197Y006688D01*
X025197Y005188D01*
X022961Y005188D01*
X022371Y004597D01*
X022262Y004597D01*
X022383Y004648D01*
X022574Y004839D01*
X022678Y005090D01*
X022678Y005361D01*
X022574Y005611D01*
X022383Y005803D01*
X022132Y005907D01*
X021861Y005907D01*
X021611Y005803D01*
X021419Y005611D01*
X021316Y005361D01*
X021316Y005090D01*
X021419Y004839D01*
X021611Y004648D01*
X021732Y004597D01*
X020845Y004597D01*
X020965Y004648D01*
X021157Y004839D01*
X021261Y005090D01*
X021261Y005361D01*
X021157Y005611D01*
X020965Y005803D01*
X020715Y005907D01*
X020444Y005907D01*
X020194Y005803D01*
X020002Y005611D01*
X019898Y005361D01*
X019898Y005090D01*
X020002Y004839D01*
X020194Y004648D01*
X020315Y004597D01*
X020009Y004597D01*
X017393Y007214D01*
X017253Y007353D01*
X016268Y007353D01*
X016129Y007214D01*
X015481Y006566D01*
X014580Y006566D01*
X014637Y006623D01*
X015481Y007467D01*
X026502Y007467D01*
X026502Y007449D01*
X026547Y007340D01*
X026631Y007256D01*
X026741Y007210D01*
X026859Y007210D01*
X026969Y007256D01*
X027053Y007340D01*
X027098Y007449D01*
X027098Y007568D01*
X027053Y007678D01*
X026969Y007762D01*
X026859Y007807D01*
X026839Y007807D01*
X026785Y007861D01*
X028355Y007861D01*
X028495Y008000D01*
X028495Y008040D01*
X029064Y008609D01*
X029204Y008748D01*
X029204Y009111D01*
X029204Y008981D02*
X029711Y008981D01*
X029834Y008823D02*
X029204Y008823D01*
X029119Y008664D02*
X029992Y008664D01*
X030144Y008342D02*
X029779Y008342D01*
X029521Y008085D01*
X029521Y007720D01*
X029779Y007462D01*
X030144Y007462D01*
X030401Y007720D01*
X030401Y008085D01*
X030144Y008342D01*
X030427Y008506D02*
X028961Y008506D01*
X028802Y008347D02*
X030585Y008347D01*
X030625Y008189D02*
X030297Y008189D01*
X030401Y008030D02*
X030521Y008030D01*
X030521Y007872D02*
X030401Y007872D01*
X030394Y007713D02*
X030528Y007713D01*
X030687Y007555D02*
X030236Y007555D01*
X030723Y007396D02*
X027076Y007396D01*
X027098Y007555D02*
X029687Y007555D01*
X029528Y007713D02*
X027018Y007713D01*
X026524Y007396D02*
X015410Y007396D01*
X015252Y007238D02*
X016152Y007238D01*
X016129Y007214D02*
X016129Y007214D01*
X015994Y007079D02*
X015093Y007079D01*
X014935Y006921D02*
X015835Y006921D01*
X015677Y006762D02*
X014776Y006762D01*
X014618Y006604D02*
X015518Y006604D01*
X014145Y007396D02*
X012092Y007396D01*
X012078Y007555D02*
X012581Y007555D01*
X012582Y007553D02*
X012947Y007553D01*
X013205Y007811D01*
X013205Y008175D01*
X012947Y008433D01*
X012582Y008433D01*
X012325Y008175D01*
X012325Y007811D01*
X012582Y007553D01*
X012422Y007713D02*
X012107Y007713D01*
X012205Y007872D02*
X012325Y007872D01*
X012325Y008030D02*
X012205Y008030D01*
X012191Y008189D02*
X012338Y008189D01*
X012496Y008347D02*
X012033Y008347D01*
X011947Y008553D02*
X012205Y008811D01*
X012205Y009175D01*
X011947Y009433D01*
X011582Y009433D01*
X011325Y009175D01*
X011325Y008811D01*
X011582Y008553D01*
X011947Y008553D01*
X012058Y008664D02*
X012415Y008664D01*
X012285Y008794D02*
X012566Y008513D01*
X012745Y008513D01*
X012745Y008973D01*
X012285Y008973D01*
X012285Y008794D01*
X012285Y008823D02*
X012205Y008823D01*
X012205Y008981D02*
X012745Y008981D01*
X012785Y008981D02*
X013745Y008981D01*
X013745Y008973D02*
X013285Y008973D01*
X013285Y008794D01*
X013566Y008513D01*
X013745Y008513D01*
X013745Y008973D01*
X013785Y008973D02*
X013785Y008513D01*
X013963Y008513D01*
X014245Y008794D01*
X014245Y008973D01*
X013785Y008973D01*
X013785Y008981D02*
X028727Y008981D01*
X028667Y009140D02*
X018994Y009140D01*
X019028Y009298D02*
X028508Y009298D01*
X028455Y009457D02*
X022628Y009457D01*
X022747Y009615D02*
X028455Y009615D01*
X028468Y009774D02*
X022746Y009774D01*
X022131Y009932D02*
X028627Y009932D01*
X029273Y009932D02*
X029627Y009932D01*
X029711Y010091D02*
X022162Y010091D01*
X022162Y010249D02*
X022260Y010249D01*
X022171Y010408D02*
X022162Y010408D01*
X022162Y010566D02*
X022190Y010566D01*
X022162Y010725D02*
X022231Y010725D01*
X022708Y010725D02*
X027645Y010725D01*
X027486Y010883D02*
X022708Y010883D01*
X022620Y011042D02*
X027443Y011042D01*
X027443Y011200D02*
X022462Y011200D01*
X021575Y011359D02*
X027467Y011359D01*
X027625Y011517D02*
X021582Y011517D01*
X021941Y011993D02*
X029018Y011993D01*
X029251Y011517D02*
X029625Y011517D01*
X029467Y011359D02*
X029409Y011359D01*
X029432Y011200D02*
X029443Y011200D01*
X029432Y011042D02*
X029443Y011042D01*
X029486Y010883D02*
X029389Y010883D01*
X029231Y010725D02*
X029645Y010725D01*
X029711Y010566D02*
X022749Y010566D01*
X022768Y010408D02*
X029711Y010408D01*
X029711Y010249D02*
X022679Y010249D01*
X022227Y008823D02*
X028603Y008823D01*
X028445Y008664D02*
X022315Y008664D01*
X022296Y008506D02*
X028286Y008506D01*
X028128Y008347D02*
X022159Y008347D01*
X020594Y008347D02*
X014033Y008347D01*
X013947Y008433D02*
X013582Y008433D01*
X013325Y008175D01*
X013325Y007811D01*
X013582Y007553D01*
X013947Y007553D01*
X014205Y007811D01*
X014205Y008175D01*
X013947Y008433D01*
X013785Y008664D02*
X013745Y008664D01*
X013745Y008823D02*
X013785Y008823D01*
X014115Y008664D02*
X020439Y008664D01*
X020458Y008506D02*
X004991Y008506D01*
X004991Y008664D02*
X006471Y008664D01*
X006325Y008823D02*
X004991Y008823D01*
X004991Y008981D02*
X006325Y008981D01*
X006325Y009140D02*
X004991Y009140D01*
X005018Y009298D02*
X006447Y009298D01*
X006560Y009457D02*
X005051Y009457D01*
X004998Y009615D02*
X006719Y009615D01*
X006877Y009774D02*
X004006Y009774D01*
X003848Y009932D02*
X004240Y009932D01*
X004179Y010091D02*
X003689Y010091D01*
X003574Y010249D02*
X004179Y010249D01*
X004179Y010408D02*
X003574Y010408D01*
X003574Y010566D02*
X004179Y010566D01*
X004179Y010725D02*
X003574Y010725D01*
X003701Y010883D02*
X004179Y010883D01*
X004179Y011042D02*
X003859Y011042D01*
X004101Y011200D02*
X004179Y011200D01*
X004179Y011359D02*
X004146Y011359D01*
X004179Y011517D02*
X004108Y011517D01*
X004179Y011676D02*
X002135Y011676D01*
X002002Y011517D02*
X003586Y011517D01*
X003502Y011359D02*
X002002Y011359D01*
X002002Y011200D02*
X003343Y011200D01*
X003185Y011042D02*
X002002Y011042D01*
X002002Y010883D02*
X003097Y010883D01*
X003097Y010725D02*
X002002Y010725D01*
X002002Y010566D02*
X003097Y010566D01*
X003097Y010408D02*
X002002Y010408D01*
X002002Y010249D02*
X003097Y010249D01*
X003097Y010091D02*
X002002Y010091D01*
X002002Y009932D02*
X002440Y009932D01*
X002407Y009774D02*
X002116Y009774D01*
X002275Y009615D02*
X002461Y009615D01*
X002467Y009457D02*
X002433Y009457D01*
X002950Y009615D02*
X003490Y009615D01*
X003332Y009774D02*
X003004Y009774D01*
X002971Y009932D02*
X003173Y009932D01*
X004165Y009615D02*
X004508Y009615D01*
X004454Y009457D02*
X004323Y009457D01*
X004482Y009298D02*
X004488Y009298D01*
X003966Y009140D02*
X003380Y009140D01*
X003222Y009298D02*
X003807Y009298D01*
X003649Y009457D02*
X003063Y009457D01*
X003539Y008981D02*
X004042Y008981D01*
X004042Y008823D02*
X003697Y008823D01*
X003856Y008664D02*
X004042Y008664D01*
X004042Y008506D02*
X004014Y008506D01*
X004991Y008347D02*
X006496Y008347D01*
X006582Y008433D02*
X006325Y008175D01*
X006325Y007811D01*
X006582Y007553D01*
X006947Y007553D01*
X007205Y007811D01*
X007205Y008175D01*
X006947Y008433D01*
X006582Y008433D01*
X007033Y008347D02*
X007496Y008347D01*
X007582Y008433D02*
X007325Y008175D01*
X007325Y007811D01*
X007582Y007553D01*
X007947Y007553D01*
X008205Y007811D01*
X008205Y008175D01*
X007947Y008433D01*
X007582Y008433D01*
X007582Y008553D02*
X007947Y008553D01*
X008205Y008811D01*
X008205Y009175D01*
X007947Y009433D01*
X007582Y009433D01*
X007325Y009175D01*
X007325Y008811D01*
X007582Y008553D01*
X007471Y008664D02*
X007058Y008664D01*
X007205Y008823D02*
X007325Y008823D01*
X007325Y008981D02*
X007205Y008981D01*
X007205Y009140D02*
X007325Y009140D01*
X007447Y009298D02*
X007082Y009298D01*
X008082Y009298D02*
X008447Y009298D01*
X008325Y009175D02*
X008325Y008811D01*
X008582Y008553D01*
X008947Y008553D01*
X009205Y008811D01*
X009205Y009175D01*
X008947Y009433D01*
X008582Y009433D01*
X008325Y009175D01*
X008325Y009140D02*
X008205Y009140D01*
X008205Y008981D02*
X008325Y008981D01*
X008325Y008823D02*
X008205Y008823D01*
X008058Y008664D02*
X008471Y008664D01*
X008582Y008433D02*
X008325Y008175D01*
X008325Y007811D01*
X008582Y007553D01*
X008947Y007553D01*
X009205Y007811D01*
X009205Y008175D01*
X008947Y008433D01*
X008582Y008433D01*
X008496Y008347D02*
X008033Y008347D01*
X008191Y008189D02*
X008338Y008189D01*
X008325Y008030D02*
X008205Y008030D01*
X008205Y007872D02*
X008325Y007872D01*
X008422Y007713D02*
X008107Y007713D01*
X007948Y007555D02*
X008581Y007555D01*
X008785Y007396D02*
X008155Y007396D01*
X008314Y007238D02*
X008614Y007238D01*
X008588Y007079D02*
X008472Y007079D01*
X008631Y006921D02*
X008659Y006921D01*
X008789Y006762D02*
X008902Y006762D01*
X008948Y006604D02*
X009061Y006604D01*
X009106Y006445D02*
X009219Y006445D01*
X009265Y006287D02*
X009378Y006287D01*
X009423Y006128D02*
X009536Y006128D01*
X009582Y005970D02*
X009695Y005970D01*
X009740Y005811D02*
X009853Y005811D01*
X009899Y005653D02*
X010012Y005653D01*
X010057Y005494D02*
X010170Y005494D01*
X010216Y005336D02*
X010329Y005336D01*
X010374Y005177D02*
X010487Y005177D01*
X010533Y005019D02*
X010896Y005019D01*
X010832Y004860D02*
X010691Y004860D01*
X010850Y004702D02*
X010862Y004702D01*
X010334Y004543D02*
X010109Y004543D01*
X010169Y004385D02*
X010492Y004385D01*
X010617Y004260D02*
X010617Y004260D01*
X010651Y004226D02*
X010139Y004226D01*
X010263Y004068D02*
X012553Y004068D01*
X012858Y004068D02*
X013535Y004068D01*
X013687Y004068D02*
X015888Y004068D01*
X015730Y004226D02*
X013879Y004226D01*
X013909Y004385D02*
X015571Y004385D01*
X015413Y004543D02*
X013849Y004543D01*
X012987Y003909D02*
X016047Y003909D01*
X016205Y003751D02*
X013004Y003751D01*
X012912Y003592D02*
X014981Y003592D01*
X015017Y003628D02*
X014933Y003544D01*
X014887Y003434D01*
X014887Y003315D01*
X014933Y003206D01*
X015017Y003122D01*
X015126Y003076D01*
X015245Y003076D01*
X015355Y003122D01*
X015369Y003136D01*
X027686Y003136D01*
X027823Y003273D01*
X027844Y003273D01*
X027953Y003319D01*
X028037Y003403D01*
X028083Y003512D01*
X028083Y003631D01*
X028037Y003741D01*
X027953Y003825D01*
X027844Y003870D01*
X027725Y003870D01*
X027615Y003825D01*
X027531Y003741D01*
X027486Y003631D01*
X027486Y003613D01*
X015369Y003613D01*
X015355Y003628D01*
X015245Y003673D01*
X015126Y003673D01*
X015017Y003628D01*
X014887Y003434D02*
X009562Y003434D01*
X009579Y003592D02*
X009533Y003701D01*
X009509Y003726D01*
X009509Y004054D01*
X009479Y004084D01*
X009479Y004112D01*
X009451Y004140D01*
X009632Y004140D01*
X009632Y004024D01*
X009772Y003884D01*
X009772Y003884D01*
X009947Y003709D01*
X010087Y003569D01*
X009947Y003709D02*
X009947Y003709D01*
X009906Y003751D02*
X009509Y003751D01*
X009509Y003909D02*
X009747Y003909D01*
X009632Y004068D02*
X009496Y004068D01*
X008759Y003955D02*
X008759Y003677D01*
X008851Y003677D01*
X008897Y003689D01*
X008938Y003713D01*
X008942Y003717D01*
X009032Y003717D01*
X009032Y003706D01*
X009027Y003701D01*
X008982Y003592D01*
X008791Y003592D01*
X008756Y003677D01*
X008759Y003677D01*
X008759Y003955D01*
X008759Y003955D01*
X008759Y003909D02*
X008759Y003909D01*
X008759Y003751D02*
X008759Y003751D01*
X008791Y003592D02*
X008791Y003473D01*
X008746Y003363D01*
X008662Y003279D01*
X008552Y003234D01*
X008434Y003234D01*
X008324Y003279D01*
X008240Y003363D01*
X008194Y003473D01*
X008194Y003592D01*
X008240Y003701D01*
X008284Y003745D01*
X008284Y004420D01*
X008362Y004498D01*
X008323Y004520D01*
X008290Y004554D01*
X008266Y004595D01*
X008254Y004640D01*
X008254Y004763D01*
X008503Y004763D01*
X008503Y004763D01*
X008254Y004763D01*
X008254Y004885D01*
X008266Y004931D01*
X008287Y004967D01*
X007442Y004967D01*
X007281Y004806D01*
X007747Y004340D01*
X007747Y002653D01*
X007762Y002638D01*
X007807Y002529D01*
X007807Y002410D01*
X007762Y002300D01*
X007736Y002275D01*
X008630Y002275D01*
X009032Y002676D01*
X009032Y003359D01*
X009027Y003363D01*
X008982Y003473D01*
X008982Y003592D01*
X008998Y003434D02*
X008775Y003434D01*
X008652Y003275D02*
X009032Y003275D01*
X009032Y003117D02*
X007747Y003117D01*
X007747Y003275D02*
X008334Y003275D01*
X008211Y003434D02*
X007747Y003434D01*
X007747Y003592D02*
X008195Y003592D01*
X008284Y003751D02*
X007747Y003751D01*
X007747Y003909D02*
X008284Y003909D01*
X008284Y004068D02*
X007747Y004068D01*
X007747Y004226D02*
X008284Y004226D01*
X008284Y004385D02*
X007702Y004385D01*
X007544Y004543D02*
X008300Y004543D01*
X008254Y004702D02*
X007385Y004702D01*
X007335Y004860D02*
X008254Y004860D01*
X007270Y004142D02*
X006839Y004573D01*
X006645Y004573D01*
X006645Y004538D01*
X006733Y004538D01*
X006929Y004343D01*
X006977Y004343D01*
X007087Y004297D01*
X007171Y004213D01*
X007217Y004103D01*
X007217Y003985D01*
X007171Y003875D01*
X007087Y003791D01*
X006977Y003746D01*
X006859Y003746D01*
X006749Y003791D01*
X006665Y003875D01*
X006638Y003940D01*
X006586Y003888D01*
X006586Y003728D01*
X006626Y003631D01*
X006626Y003512D01*
X006581Y003403D01*
X006497Y003319D01*
X006387Y003273D01*
X006268Y003273D01*
X006159Y003319D01*
X006075Y003403D01*
X006029Y003512D01*
X006029Y003631D01*
X006075Y003741D01*
X006148Y003814D01*
X006148Y003888D01*
X006089Y003947D01*
X006089Y004183D01*
X006089Y005165D01*
X006148Y005224D01*
X006148Y005528D01*
X006119Y005558D01*
X004995Y005558D01*
X004961Y005523D01*
X004851Y005478D01*
X004733Y005478D01*
X004623Y005523D01*
X004539Y005607D01*
X004519Y005657D01*
X004519Y002568D01*
X004812Y002275D01*
X007281Y002275D01*
X007256Y002300D01*
X007210Y002410D01*
X007210Y002529D01*
X007256Y002638D01*
X007270Y002653D01*
X007270Y004142D01*
X007270Y004068D02*
X007217Y004068D01*
X007186Y004226D02*
X007158Y004226D01*
X007028Y004385D02*
X006887Y004385D01*
X006869Y004543D02*
X006645Y004543D01*
X006089Y004543D02*
X005779Y004543D01*
X005779Y004385D02*
X006089Y004385D01*
X006089Y004226D02*
X005779Y004226D01*
X005779Y004068D02*
X006089Y004068D01*
X005779Y003947D02*
X005779Y004929D01*
X005779Y005165D01*
X005697Y005247D01*
X005152Y005247D01*
X005124Y005316D01*
X005040Y005399D01*
X004930Y005445D01*
X004812Y005445D01*
X004702Y005399D01*
X004618Y005316D01*
X004572Y005206D01*
X004572Y005087D01*
X004618Y004977D01*
X004702Y004893D01*
X004812Y004848D01*
X004854Y004848D01*
X004731Y004725D01*
X004731Y003184D01*
X004697Y003150D01*
X004651Y003040D01*
X004651Y002922D01*
X004697Y002812D01*
X004781Y002728D01*
X004890Y002683D01*
X005009Y002683D01*
X005119Y002728D01*
X005203Y002812D01*
X005248Y002922D01*
X005248Y003040D01*
X005203Y003150D01*
X005168Y003184D01*
X005168Y004544D01*
X005198Y004573D01*
X005223Y004573D01*
X005223Y003947D01*
X005305Y003865D01*
X005697Y003865D01*
X005779Y003947D01*
X005741Y003909D02*
X006127Y003909D01*
X006084Y003751D02*
X005168Y003751D01*
X005168Y003909D02*
X005261Y003909D01*
X005223Y004068D02*
X005168Y004068D01*
X005168Y004226D02*
X005223Y004226D01*
X005223Y004385D02*
X005168Y004385D01*
X005168Y004543D02*
X005223Y004543D01*
X004731Y004543D02*
X004519Y004543D01*
X004519Y004385D02*
X004731Y004385D01*
X004731Y004226D02*
X004519Y004226D01*
X004519Y004068D02*
X004731Y004068D01*
X004731Y003909D02*
X004519Y003909D01*
X004519Y003751D02*
X004731Y003751D01*
X004731Y003592D02*
X004519Y003592D01*
X004519Y003434D02*
X004731Y003434D01*
X005168Y003434D02*
X006062Y003434D01*
X006029Y003592D02*
X005168Y003592D01*
X005168Y003275D02*
X006264Y003275D01*
X006391Y003275D02*
X007270Y003275D01*
X007270Y003117D02*
X005217Y003117D01*
X005248Y002958D02*
X007270Y002958D01*
X007270Y002800D02*
X005190Y002800D01*
X004709Y002800D02*
X004519Y002800D01*
X004519Y002958D02*
X004651Y002958D01*
X004683Y003117D02*
X004519Y003117D01*
X004519Y003275D02*
X004731Y003275D01*
X003333Y003275D02*
X000602Y003275D01*
X000602Y003117D02*
X001601Y003117D01*
X001605Y003117D02*
X001476Y003092D01*
X001351Y003054D01*
X001231Y003004D01*
X001115Y002942D01*
X001007Y002870D01*
X000906Y002787D01*
X000813Y002694D01*
X000730Y002593D01*
X000658Y002485D01*
X000602Y002380D01*
X000602Y010056D01*
X000647Y010012D01*
X000756Y009966D01*
X000777Y009966D01*
X001562Y009182D01*
X001562Y004063D01*
X001701Y003924D01*
X002095Y003530D01*
X003079Y003530D01*
X003333Y003276D01*
X003333Y001898D01*
X003473Y001758D01*
X004260Y000971D01*
X008789Y000971D01*
X008928Y001111D01*
X009773Y001955D01*
X020465Y001955D01*
X020414Y001905D01*
X020414Y001105D01*
X020534Y000985D01*
X022042Y000985D01*
X022162Y001105D01*
X022162Y001905D01*
X022112Y001955D01*
X028080Y001955D01*
X029458Y003333D01*
X031544Y003333D01*
X031684Y003473D01*
X031738Y003527D01*
X031738Y002380D01*
X031682Y002485D01*
X031610Y002593D01*
X031527Y002694D01*
X031434Y002787D01*
X031333Y002870D01*
X031225Y002942D01*
X031109Y003004D01*
X030989Y003054D01*
X030864Y003092D01*
X030736Y003117D01*
X030620Y003129D01*
X030620Y001880D01*
X030460Y001880D01*
X030460Y001720D01*
X029212Y001720D01*
X029223Y001605D01*
X029248Y001476D01*
X029286Y001351D01*
X029336Y001231D01*
X029398Y001115D01*
X029471Y001007D01*
X029554Y000906D01*
X029646Y000813D01*
X029747Y000730D01*
X029856Y000658D01*
X029960Y000602D01*
X002380Y000602D01*
X002485Y000658D01*
X002593Y000730D01*
X002694Y000813D01*
X002787Y000906D01*
X002870Y001007D01*
X002942Y001115D01*
X003004Y001231D01*
X003054Y001351D01*
X003092Y001476D01*
X003117Y001605D01*
X003129Y001720D01*
X001880Y001720D01*
X001880Y001880D01*
X001720Y001880D01*
X001720Y003129D01*
X001605Y003117D01*
X001720Y003117D02*
X001880Y003117D01*
X001880Y003129D02*
X001880Y001880D01*
X003129Y001880D01*
X003117Y001995D01*
X003092Y002124D01*
X003054Y002249D01*
X003004Y002369D01*
X002942Y002485D01*
X002870Y002593D01*
X002787Y002694D01*
X002694Y002787D01*
X002593Y002870D01*
X002485Y002942D01*
X002369Y003004D01*
X002249Y003054D01*
X002124Y003092D01*
X001995Y003117D01*
X001880Y003129D01*
X001999Y003117D02*
X003333Y003117D01*
X003333Y002958D02*
X002455Y002958D01*
X002679Y002800D02*
X003333Y002800D01*
X003333Y002641D02*
X002830Y002641D01*
X002943Y002483D02*
X003333Y002483D01*
X003333Y002324D02*
X003023Y002324D01*
X003079Y002166D02*
X003333Y002166D01*
X003333Y002007D02*
X003115Y002007D01*
X003383Y001849D02*
X001880Y001849D01*
X001880Y002007D02*
X001720Y002007D01*
X001720Y002166D02*
X001880Y002166D01*
X001880Y002324D02*
X001720Y002324D01*
X001720Y002483D02*
X001880Y002483D01*
X001880Y002641D02*
X001720Y002641D01*
X001720Y002800D02*
X001880Y002800D01*
X001880Y002958D02*
X001720Y002958D01*
X001145Y002958D02*
X000602Y002958D01*
X000602Y002800D02*
X000921Y002800D01*
X000770Y002641D02*
X000602Y002641D01*
X000602Y002483D02*
X000657Y002483D01*
X003126Y001690D02*
X003541Y001690D01*
X003700Y001532D02*
X003103Y001532D01*
X003060Y001373D02*
X003858Y001373D01*
X004017Y001215D02*
X002995Y001215D01*
X002902Y001056D02*
X004175Y001056D01*
X002778Y000898D02*
X029562Y000898D01*
X029438Y001056D02*
X022114Y001056D01*
X022162Y001215D02*
X029345Y001215D01*
X029280Y001373D02*
X022162Y001373D01*
X022162Y001532D02*
X029237Y001532D01*
X029215Y001690D02*
X022162Y001690D01*
X022162Y001849D02*
X030460Y001849D01*
X030460Y001880D02*
X029212Y001880D01*
X029223Y001995D01*
X029248Y002124D01*
X029286Y002249D01*
X029336Y002369D01*
X029398Y002485D01*
X029471Y002593D01*
X029554Y002694D01*
X029646Y002787D01*
X029747Y002870D01*
X029856Y002942D01*
X029971Y003004D01*
X030092Y003054D01*
X030217Y003092D01*
X030345Y003117D01*
X030460Y003129D01*
X030460Y001880D01*
X030460Y002007D02*
X030620Y002007D01*
X030620Y002166D02*
X030460Y002166D01*
X030460Y002324D02*
X030620Y002324D01*
X030620Y002483D02*
X030460Y002483D01*
X030460Y002641D02*
X030620Y002641D01*
X030620Y002800D02*
X030460Y002800D01*
X030460Y002958D02*
X030620Y002958D01*
X030620Y003117D02*
X030460Y003117D01*
X030342Y003117D02*
X029241Y003117D01*
X029400Y003275D02*
X031738Y003275D01*
X031738Y003117D02*
X030739Y003117D01*
X031195Y002958D02*
X031738Y002958D01*
X031738Y002800D02*
X031419Y002800D01*
X031570Y002641D02*
X031738Y002641D01*
X031738Y002483D02*
X031683Y002483D01*
X029885Y002958D02*
X029083Y002958D01*
X028924Y002800D02*
X029662Y002800D01*
X029510Y002641D02*
X028766Y002641D01*
X028607Y002483D02*
X029397Y002483D01*
X029318Y002324D02*
X028449Y002324D01*
X028290Y002166D02*
X029261Y002166D01*
X029225Y002007D02*
X028132Y002007D01*
X027933Y002483D02*
X009509Y002483D01*
X009509Y002641D02*
X011842Y002641D01*
X011801Y002683D02*
X011937Y002546D01*
X026420Y002546D01*
X026434Y002531D01*
X026544Y002486D01*
X026663Y002486D01*
X026772Y002531D01*
X026856Y002615D01*
X026902Y002725D01*
X026902Y002844D01*
X026856Y002953D01*
X026772Y003037D01*
X026663Y003083D01*
X026544Y003083D01*
X026434Y003037D01*
X026420Y003023D01*
X012138Y003023D01*
X012138Y003040D01*
X012092Y003150D01*
X012008Y003234D01*
X011899Y003280D01*
X011780Y003280D01*
X011670Y003234D01*
X011586Y003150D01*
X011541Y003040D01*
X011541Y002922D01*
X011586Y002812D01*
X011670Y002728D01*
X011780Y002683D01*
X011801Y002683D01*
X011599Y002800D02*
X009509Y002800D01*
X009509Y002958D02*
X011541Y002958D01*
X011572Y003117D02*
X009509Y003117D01*
X009509Y003275D02*
X011769Y003275D01*
X011910Y003275D02*
X014904Y003275D01*
X015029Y003117D02*
X012106Y003117D01*
X009467Y002324D02*
X009354Y002324D01*
X009309Y002166D02*
X009196Y002166D01*
X009150Y002007D02*
X009037Y002007D01*
X008992Y001849D02*
X008879Y001849D01*
X008833Y001690D02*
X007779Y001690D01*
X007807Y001532D02*
X008675Y001532D01*
X009191Y001373D02*
X020414Y001373D01*
X020414Y001215D02*
X009032Y001215D01*
X008928Y001111D02*
X008928Y001111D01*
X008874Y001056D02*
X020463Y001056D01*
X020414Y001532D02*
X009349Y001532D01*
X009508Y001690D02*
X020414Y001690D01*
X020414Y001849D02*
X009666Y001849D01*
X008680Y002324D02*
X007772Y002324D01*
X007807Y002483D02*
X008838Y002483D01*
X008997Y002641D02*
X007759Y002641D01*
X007258Y002641D02*
X004519Y002641D01*
X004604Y002483D02*
X007210Y002483D01*
X007246Y002324D02*
X004763Y002324D01*
X003176Y003434D02*
X000602Y003434D01*
X000602Y003592D02*
X002033Y003592D01*
X001874Y003751D02*
X000602Y003751D01*
X000602Y003909D02*
X001716Y003909D01*
X001562Y004068D02*
X000602Y004068D01*
X000602Y004226D02*
X001562Y004226D01*
X001562Y004385D02*
X000602Y004385D01*
X000602Y004543D02*
X001562Y004543D01*
X001562Y004702D02*
X000602Y004702D01*
X000602Y004860D02*
X001562Y004860D01*
X001562Y005019D02*
X000602Y005019D01*
X000602Y005177D02*
X001562Y005177D01*
X001562Y005336D02*
X000602Y005336D01*
X000602Y005494D02*
X001562Y005494D01*
X001562Y005653D02*
X000602Y005653D01*
X000602Y005811D02*
X001562Y005811D01*
X001562Y005970D02*
X000602Y005970D01*
X000602Y006128D02*
X001562Y006128D01*
X001562Y006287D02*
X000602Y006287D01*
X000602Y006445D02*
X001562Y006445D01*
X001562Y006604D02*
X000602Y006604D01*
X000602Y006762D02*
X001562Y006762D01*
X001562Y006921D02*
X000602Y006921D01*
X000602Y007079D02*
X001562Y007079D01*
X001562Y007238D02*
X000602Y007238D01*
X000602Y007396D02*
X001562Y007396D01*
X001562Y007555D02*
X000602Y007555D01*
X000602Y007713D02*
X001562Y007713D01*
X001562Y007872D02*
X000602Y007872D01*
X000602Y008030D02*
X001562Y008030D01*
X001562Y008189D02*
X000602Y008189D01*
X000602Y008347D02*
X001562Y008347D01*
X001562Y008506D02*
X000602Y008506D01*
X000602Y008664D02*
X001562Y008664D01*
X001562Y008823D02*
X000602Y008823D01*
X000602Y008981D02*
X001562Y008981D01*
X001562Y009140D02*
X000602Y009140D01*
X000602Y009298D02*
X001445Y009298D01*
X001287Y009457D02*
X000602Y009457D01*
X000602Y009615D02*
X001128Y009615D01*
X000970Y009774D02*
X000602Y009774D01*
X000602Y009932D02*
X000811Y009932D01*
X004991Y008189D02*
X006338Y008189D01*
X006325Y008030D02*
X004991Y008030D01*
X004991Y007872D02*
X006325Y007872D01*
X006422Y007713D02*
X005024Y007713D01*
X005051Y007555D02*
X005993Y007555D01*
X006190Y007555D02*
X006581Y007555D01*
X006948Y007555D02*
X007581Y007555D01*
X007422Y007713D02*
X007107Y007713D01*
X007205Y007872D02*
X007325Y007872D01*
X007325Y008030D02*
X007205Y008030D01*
X007191Y008189D02*
X007338Y008189D01*
X009033Y008347D02*
X009496Y008347D01*
X009582Y008553D02*
X009947Y008553D01*
X010205Y008811D01*
X010205Y009175D01*
X009947Y009433D01*
X009582Y009433D01*
X009325Y009175D01*
X009325Y008811D01*
X009582Y008553D01*
X009471Y008664D02*
X009058Y008664D01*
X009205Y008823D02*
X009325Y008823D01*
X009325Y008981D02*
X009205Y008981D01*
X009205Y009140D02*
X009325Y009140D01*
X009447Y009298D02*
X009082Y009298D01*
X010082Y009298D02*
X010447Y009298D01*
X010325Y009175D02*
X010325Y008811D01*
X010582Y008553D01*
X010947Y008553D01*
X011205Y008811D01*
X011205Y009175D01*
X010947Y009433D01*
X010582Y009433D01*
X010325Y009175D01*
X010325Y009140D02*
X010205Y009140D01*
X010205Y008981D02*
X010325Y008981D01*
X010325Y008823D02*
X010205Y008823D01*
X010058Y008664D02*
X010471Y008664D01*
X010496Y008347D02*
X010033Y008347D01*
X010191Y008189D02*
X010338Y008189D01*
X010325Y008030D02*
X010205Y008030D01*
X010205Y007872D02*
X010325Y007872D01*
X010422Y007713D02*
X010109Y007713D01*
X010109Y007555D02*
X010581Y007555D01*
X010617Y007396D02*
X010109Y007396D01*
X010109Y007238D02*
X010617Y007238D01*
X010617Y007079D02*
X010109Y007079D01*
X010206Y006921D02*
X010712Y006921D01*
X010871Y006762D02*
X010364Y006762D01*
X010523Y006604D02*
X011029Y006604D01*
X010165Y006287D02*
X010052Y006287D01*
X010211Y006128D02*
X010324Y006128D01*
X010007Y006445D02*
X009894Y006445D01*
X009848Y006604D02*
X009735Y006604D01*
X009690Y006762D02*
X009577Y006762D01*
X009632Y006921D02*
X009418Y006921D01*
X009260Y007079D02*
X009632Y007079D01*
X009632Y007238D02*
X009159Y007238D01*
X008988Y007396D02*
X009632Y007396D01*
X009581Y007555D02*
X008948Y007555D01*
X009107Y007713D02*
X009422Y007713D01*
X009325Y007872D02*
X009205Y007872D01*
X009205Y008030D02*
X009325Y008030D01*
X009338Y008189D02*
X009191Y008189D01*
X011033Y008347D02*
X011496Y008347D01*
X011338Y008189D02*
X011191Y008189D01*
X011205Y008030D02*
X011325Y008030D01*
X011325Y007872D02*
X011205Y007872D01*
X011107Y007713D02*
X011422Y007713D01*
X011581Y007555D02*
X011094Y007555D01*
X011094Y007396D02*
X011601Y007396D01*
X011601Y007238D02*
X011094Y007238D01*
X011228Y007079D02*
X011735Y007079D01*
X012948Y007555D02*
X013581Y007555D01*
X013422Y007713D02*
X013107Y007713D01*
X013205Y007872D02*
X013325Y007872D01*
X013325Y008030D02*
X013205Y008030D01*
X013191Y008189D02*
X013338Y008189D01*
X013496Y008347D02*
X013033Y008347D01*
X012963Y008513D02*
X012785Y008513D01*
X012785Y008973D01*
X013245Y008973D01*
X013245Y008794D01*
X012963Y008513D01*
X013115Y008664D02*
X013415Y008664D01*
X013285Y008823D02*
X013245Y008823D01*
X012785Y008823D02*
X012745Y008823D01*
X012745Y008664D02*
X012785Y008664D01*
X013245Y009140D02*
X013285Y009140D01*
X013391Y009298D02*
X013138Y009298D01*
X012391Y009298D02*
X012082Y009298D01*
X012205Y009140D02*
X012285Y009140D01*
X011447Y009298D02*
X011082Y009298D01*
X011205Y009140D02*
X011325Y009140D01*
X011325Y008981D02*
X011205Y008981D01*
X011205Y008823D02*
X011325Y008823D01*
X011471Y008664D02*
X011058Y008664D01*
X013948Y007555D02*
X014304Y007555D01*
X014462Y007713D02*
X014107Y007713D01*
X014205Y007872D02*
X014621Y007872D01*
X014779Y008030D02*
X014205Y008030D01*
X014191Y008189D02*
X014938Y008189D01*
X014947Y008198D02*
X014947Y008198D01*
X014245Y008823D02*
X020527Y008823D01*
X021677Y007291D02*
X021764Y007327D01*
X021856Y007352D01*
X021929Y007361D01*
X021929Y006710D01*
X021929Y006575D01*
X021278Y006575D01*
X021288Y006501D01*
X021312Y006410D01*
X021349Y006323D01*
X021396Y006241D01*
X021453Y006166D01*
X021520Y006099D01*
X021595Y006041D01*
X021677Y005994D01*
X021764Y005958D01*
X021856Y005934D01*
X021929Y005924D01*
X021929Y006575D01*
X022064Y006575D01*
X022064Y005924D01*
X022138Y005934D01*
X022229Y005958D01*
X022317Y005994D01*
X022398Y006041D01*
X022473Y006099D01*
X022540Y006166D01*
X022598Y006241D01*
X022645Y006323D01*
X022681Y006410D01*
X022706Y006501D01*
X022716Y006575D01*
X022064Y006575D01*
X022064Y006710D01*
X021929Y006710D01*
X021278Y006710D01*
X021288Y006784D01*
X021312Y006875D01*
X021349Y006962D01*
X021396Y007044D01*
X021453Y007119D01*
X021520Y007186D01*
X021595Y007244D01*
X021677Y007291D01*
X021587Y007238D02*
X017369Y007238D01*
X017393Y007214D02*
X017393Y007214D01*
X017527Y007079D02*
X021423Y007079D01*
X021929Y007079D02*
X022064Y007079D01*
X022064Y007238D02*
X021929Y007238D01*
X022064Y007361D02*
X022138Y007352D01*
X022229Y007327D01*
X022317Y007291D01*
X022398Y007244D01*
X022473Y007186D01*
X022540Y007119D01*
X022598Y007044D01*
X022645Y006962D01*
X022681Y006875D01*
X022706Y006784D01*
X022716Y006710D01*
X022064Y006710D01*
X022064Y007361D01*
X022406Y007238D02*
X026675Y007238D01*
X026925Y007238D02*
X030723Y007238D01*
X030697Y007079D02*
X030226Y007079D01*
X030144Y007161D02*
X029779Y007161D01*
X029521Y006904D01*
X029521Y006539D01*
X029779Y006281D01*
X030144Y006281D01*
X030401Y006539D01*
X030401Y006904D01*
X030144Y007161D01*
X030384Y006921D02*
X030538Y006921D01*
X030521Y006762D02*
X030401Y006762D01*
X030401Y006604D02*
X030521Y006604D01*
X030615Y006445D02*
X030307Y006445D01*
X030149Y006287D02*
X030723Y006287D01*
X030723Y006128D02*
X026237Y006128D01*
X026237Y005970D02*
X029769Y005970D01*
X029610Y005811D02*
X026237Y005811D01*
X026237Y005653D02*
X029521Y005653D01*
X029521Y005494D02*
X026237Y005494D01*
X026237Y005336D02*
X029544Y005336D01*
X030379Y005336D02*
X030544Y005336D01*
X030521Y005494D02*
X030401Y005494D01*
X030401Y005653D02*
X030521Y005653D01*
X030610Y005811D02*
X030313Y005811D01*
X030154Y005970D02*
X030723Y005970D01*
X031200Y005970D02*
X031404Y005970D01*
X031404Y006128D02*
X031200Y006128D01*
X031200Y006287D02*
X031404Y006287D01*
X031404Y006445D02*
X031307Y006445D01*
X031401Y006604D02*
X031404Y006604D01*
X031401Y006762D02*
X031404Y006762D01*
X031404Y006921D02*
X031384Y006921D01*
X031404Y007079D02*
X031226Y007079D01*
X031200Y007238D02*
X031404Y007238D01*
X031404Y007396D02*
X031200Y007396D01*
X031236Y007555D02*
X031404Y007555D01*
X031394Y007713D02*
X031404Y007713D01*
X031401Y007872D02*
X031404Y007872D01*
X031401Y008030D02*
X031404Y008030D01*
X031404Y008189D02*
X031297Y008189D01*
X031200Y008347D02*
X031404Y008347D01*
X031404Y008506D02*
X031101Y008506D01*
X030942Y008664D02*
X031404Y008664D01*
X031404Y008823D02*
X030784Y008823D01*
X029508Y009298D02*
X029391Y009298D01*
X029444Y009457D02*
X029455Y009457D01*
X029444Y009615D02*
X029455Y009615D01*
X029468Y009774D02*
X029431Y009774D01*
X030273Y009932D02*
X030570Y009932D01*
X028645Y010725D02*
X028231Y010725D01*
X028389Y010883D02*
X028486Y010883D01*
X028443Y011042D02*
X028432Y011042D01*
X028644Y008189D02*
X029625Y008189D01*
X029521Y008030D02*
X028495Y008030D01*
X028366Y007872D02*
X029521Y007872D01*
X029697Y007079D02*
X022571Y007079D01*
X022662Y006921D02*
X029538Y006921D01*
X029521Y006762D02*
X026163Y006762D01*
X026237Y006604D02*
X029521Y006604D01*
X029615Y006445D02*
X026237Y006445D01*
X026237Y006287D02*
X029774Y006287D01*
X031313Y005811D02*
X031404Y005811D01*
X031401Y005653D02*
X031404Y005653D01*
X031401Y005494D02*
X031404Y005494D01*
X031404Y005336D02*
X031379Y005336D01*
X031404Y005177D02*
X031221Y005177D01*
X031404Y005019D02*
X030730Y005019D01*
X030888Y004860D02*
X031404Y004860D01*
X031404Y004702D02*
X031241Y004702D01*
X031400Y004543D02*
X031404Y004543D01*
X031401Y004385D02*
X031404Y004385D01*
X031401Y004226D02*
X031404Y004226D01*
X031404Y004068D02*
X031292Y004068D01*
X031404Y003909D02*
X026490Y003909D01*
X026332Y003751D02*
X027541Y003751D01*
X028027Y003751D02*
X029201Y003751D01*
X029042Y003592D02*
X028083Y003592D01*
X028050Y003434D02*
X028884Y003434D01*
X028725Y003275D02*
X027848Y003275D01*
X028408Y002958D02*
X026851Y002958D01*
X026902Y002800D02*
X028250Y002800D01*
X028091Y002641D02*
X026867Y002641D01*
X028567Y003117D02*
X015342Y003117D01*
X019746Y004860D02*
X019993Y004860D01*
X019928Y005019D02*
X019588Y005019D01*
X019429Y005177D02*
X019898Y005177D01*
X019898Y005336D02*
X019271Y005336D01*
X019112Y005494D02*
X019953Y005494D01*
X020043Y005653D02*
X018954Y005653D01*
X018795Y005811D02*
X020213Y005811D01*
X020946Y005811D02*
X021631Y005811D01*
X021737Y005970D02*
X018637Y005970D01*
X018478Y006128D02*
X021491Y006128D01*
X021369Y006287D02*
X018320Y006287D01*
X018161Y006445D02*
X021303Y006445D01*
X021285Y006762D02*
X017844Y006762D01*
X017686Y006921D02*
X021331Y006921D01*
X021929Y006921D02*
X022064Y006921D01*
X022064Y006762D02*
X021929Y006762D01*
X021929Y006604D02*
X018003Y006604D01*
X021116Y005653D02*
X021461Y005653D01*
X021371Y005494D02*
X021206Y005494D01*
X021261Y005336D02*
X021316Y005336D01*
X021316Y005177D02*
X021261Y005177D01*
X021231Y005019D02*
X021345Y005019D01*
X021411Y004860D02*
X021166Y004860D01*
X021019Y004702D02*
X021557Y004702D01*
X022437Y004702D02*
X022475Y004702D01*
X022583Y004860D02*
X022633Y004860D01*
X022649Y005019D02*
X022792Y005019D01*
X022678Y005177D02*
X022950Y005177D01*
X022678Y005336D02*
X025197Y005336D01*
X025197Y005494D02*
X022623Y005494D01*
X022533Y005653D02*
X025197Y005653D01*
X025197Y005811D02*
X022363Y005811D01*
X022257Y005970D02*
X025197Y005970D01*
X025197Y006128D02*
X022503Y006128D01*
X022624Y006287D02*
X025197Y006287D01*
X025197Y006445D02*
X022691Y006445D01*
X022709Y006762D02*
X025271Y006762D01*
X025197Y006604D02*
X022064Y006604D01*
X022064Y006445D02*
X021929Y006445D01*
X021929Y006287D02*
X022064Y006287D01*
X022064Y006128D02*
X021929Y006128D01*
X021929Y005970D02*
X022064Y005970D01*
X020140Y004702D02*
X019905Y004702D01*
X026649Y004068D02*
X029631Y004068D01*
X030292Y004068D02*
X030631Y004068D01*
X030521Y004226D02*
X030401Y004226D01*
X030401Y004385D02*
X030521Y004385D01*
X030523Y004543D02*
X030400Y004543D01*
X030372Y004702D02*
X030241Y004702D01*
X030571Y005177D02*
X030702Y005177D01*
X031645Y003434D02*
X031738Y003434D01*
X029736Y000739D02*
X002604Y000739D01*
X007747Y002800D02*
X009032Y002800D01*
X009032Y002958D02*
X007747Y002958D01*
X007270Y003434D02*
X006593Y003434D01*
X006626Y003592D02*
X007270Y003592D01*
X007270Y003751D02*
X006989Y003751D01*
X006847Y003751D02*
X006586Y003751D01*
X006607Y003909D02*
X006651Y003909D01*
X007185Y003909D02*
X007270Y003909D01*
X006089Y004702D02*
X005779Y004702D01*
X005779Y004860D02*
X006089Y004860D01*
X006089Y005019D02*
X005779Y005019D01*
X005767Y005177D02*
X006101Y005177D01*
X006148Y005336D02*
X005104Y005336D01*
X004890Y005494D02*
X006148Y005494D01*
X006586Y005494D02*
X006799Y005494D01*
X006957Y005653D02*
X006586Y005653D01*
X006484Y005811D02*
X009066Y005811D01*
X008907Y005970D02*
X006326Y005970D01*
X006586Y005336D02*
X006640Y005336D01*
X004782Y004860D02*
X004519Y004860D01*
X004519Y004702D02*
X004731Y004702D01*
X004601Y005019D02*
X004519Y005019D01*
X004519Y005177D02*
X004572Y005177D01*
X004519Y005336D02*
X004638Y005336D01*
X004694Y005494D02*
X004519Y005494D01*
X004519Y005653D02*
X004520Y005653D01*
X004519Y005970D02*
X004563Y005970D01*
X004519Y006128D02*
X008749Y006128D01*
X008590Y006287D02*
X004519Y006287D01*
X004519Y006445D02*
X008432Y006445D01*
X008273Y006604D02*
X004519Y006604D01*
X004519Y006762D02*
X008115Y006762D01*
X007956Y006921D02*
X004519Y006921D01*
X004519Y007079D02*
X005863Y007079D01*
X005793Y007238D02*
X004519Y007238D01*
X004519Y007396D02*
X004522Y007396D01*
X004983Y007396D02*
X005820Y007396D01*
X009202Y005653D02*
X009224Y005653D01*
X009360Y005494D02*
X009383Y005494D01*
X009489Y005336D02*
X009541Y005336D01*
X009489Y005177D02*
X009700Y005177D01*
X009858Y005019D02*
X009489Y005019D01*
X009489Y004860D02*
X010017Y004860D01*
X010175Y004702D02*
X009489Y004702D01*
X014245Y009140D02*
X014921Y009140D01*
X014887Y009298D02*
X014138Y009298D01*
X004179Y011834D02*
X002308Y011834D01*
X002335Y011993D02*
X004179Y011993D01*
D25*
X003847Y011367D03*
X002036Y011957D03*
X000816Y010265D03*
X002706Y009792D03*
X004753Y009438D03*
X002391Y008020D03*
X004753Y007587D03*
X006091Y007272D03*
X008887Y007115D03*
X010658Y005934D03*
X011131Y004831D03*
X009871Y004359D03*
X008060Y004674D03*
X006918Y004044D03*
X006328Y003572D03*
X004950Y002981D03*
X007509Y002469D03*
X007509Y001564D03*
X011839Y002981D03*
X012706Y003808D03*
X013611Y004359D03*
X014989Y005343D03*
X017942Y005146D03*
X015186Y003375D03*
X009280Y003532D03*
X008493Y003532D03*
X004871Y005146D03*
X005973Y005265D03*
X004792Y005776D03*
X002391Y006485D03*
X003493Y004713D03*
X002391Y004241D03*
X015186Y009280D03*
X017548Y010461D03*
X018139Y010186D03*
X019320Y010265D03*
X018729Y009280D03*
X020737Y008611D03*
X022017Y008611D03*
X022469Y010461D03*
X021288Y011446D03*
X021682Y011839D03*
X026800Y007509D03*
X027784Y003572D03*
X026603Y002784D03*
D26*
X009871Y004359D02*
X008729Y004359D01*
X008532Y004359D01*
X008503Y004330D01*
X008503Y003956D01*
X008503Y003542D01*
X008493Y003532D01*
X009270Y003542D02*
X009280Y003532D01*
X009270Y003542D02*
X009270Y003956D01*
X009015Y003956D02*
X009015Y004231D01*
X009005Y004241D01*
X009005Y004320D01*
X008965Y004359D01*
X008788Y004359D01*
X008759Y004389D01*
X008729Y004359D01*
X008759Y004389D02*
X008759Y004763D01*
X009015Y004763D02*
X009015Y005058D01*
X008887Y005186D01*
X007351Y005186D01*
X006957Y004792D01*
X006367Y004792D01*
X006367Y005028D02*
X006367Y005619D01*
X006209Y005776D01*
X004792Y005776D01*
X004871Y005146D02*
X004989Y005028D01*
X005501Y005028D01*
X005501Y004792D02*
X005107Y004792D01*
X004950Y004635D01*
X004950Y002981D01*
X006328Y003572D02*
X006367Y003611D01*
X006367Y004083D01*
X006367Y004320D02*
X006643Y004320D01*
X006918Y004044D01*
X005501Y004083D02*
X005501Y004320D01*
X006367Y005028D02*
X006643Y005028D01*
X007076Y005461D01*
X009083Y005461D01*
X009270Y005274D01*
X009270Y004763D01*
M02*
