G75*
%MOIN*%
%OFA0B0*%
%FSLAX24Y24*%
%IPPOS*%
%LPD*%
%AMOC8*
5,1,8,0,0,1.08239X$1,22.5*
%
%ADD10R,0.0551X0.0394*%
%ADD11C,0.2300*%
%ADD12OC8,0.0600*%
%ADD13R,0.0433X0.0394*%
%ADD14R,0.0250X0.0500*%
%ADD15R,0.0394X0.0433*%
%ADD16R,0.0472X0.0236*%
%ADD17C,0.1083*%
%ADD18R,0.0315X0.0472*%
%ADD19R,0.0591X0.0630*%
%ADD20R,0.0472X0.0472*%
%ADD21R,0.0394X0.0551*%
%ADD22OC8,0.0709*%
%ADD23C,0.0160*%
%ADD24C,0.0317*%
%ADD25C,0.0197*%
%ADD26C,0.0157*%
D10*
X003139Y006938D03*
X004005Y007312D03*
X003139Y007686D03*
X003139Y008513D03*
X004005Y008887D03*
X003139Y009261D03*
D11*
X001800Y001800D03*
X030540Y001800D03*
D12*
X030961Y004359D03*
X029961Y004359D03*
X029961Y005540D03*
X030961Y005540D03*
X030961Y006721D03*
X029961Y006721D03*
X029961Y007902D03*
X030961Y007902D03*
X013765Y007993D03*
X012765Y007993D03*
X011765Y007993D03*
X010765Y007993D03*
X009765Y007993D03*
X008765Y007993D03*
X007765Y007993D03*
X006765Y007993D03*
X006765Y008993D03*
X007765Y008993D03*
X008765Y008993D03*
X009765Y008993D03*
X010765Y008993D03*
X011765Y008993D03*
X012765Y008993D03*
X013765Y008993D03*
D13*
X015639Y008493D03*
X016308Y008493D03*
X016308Y007312D03*
X015639Y007312D03*
X021347Y008099D03*
X022017Y008099D03*
X022017Y009083D03*
X021347Y009083D03*
X024891Y009083D03*
X025560Y009083D03*
X025560Y008099D03*
X024891Y008099D03*
X026859Y008099D03*
X027528Y008099D03*
X028040Y006524D03*
X028709Y006524D03*
X028709Y005343D03*
X028040Y005343D03*
X028040Y004359D03*
X028709Y004359D03*
X021820Y003965D03*
X021150Y003965D03*
X020048Y003965D03*
X019379Y003965D03*
X021150Y002784D03*
X021820Y002784D03*
X009221Y002981D03*
X008552Y002981D03*
X006269Y002981D03*
X005599Y002981D03*
X005599Y005737D03*
X006269Y005737D03*
X008552Y005737D03*
X009221Y005737D03*
X024891Y010068D03*
X025560Y010068D03*
D14*
X003338Y011367D03*
X003018Y011367D03*
X001763Y011367D03*
X001443Y011367D03*
D15*
X001603Y009221D03*
X001603Y008552D03*
X001603Y007646D03*
X001603Y006977D03*
X005343Y006780D03*
X005343Y007450D03*
X005343Y008552D03*
X005343Y009221D03*
X004359Y004694D03*
X004359Y004024D03*
X007509Y004024D03*
X007509Y004694D03*
D16*
X017824Y006599D03*
X017824Y007099D03*
X017824Y007599D03*
X017824Y008099D03*
X017824Y008599D03*
X017824Y009099D03*
X017824Y009599D03*
X020028Y009599D03*
X020028Y009099D03*
X020028Y008599D03*
X020028Y008099D03*
X020028Y007599D03*
X020028Y007099D03*
X020028Y006599D03*
D17*
X021997Y006643D03*
X021997Y005225D03*
X020580Y005225D03*
D18*
X023099Y008099D03*
X023808Y008099D03*
X023808Y009083D03*
X023099Y009083D03*
D19*
X022489Y011249D03*
X018158Y011249D03*
D20*
X019438Y011643D03*
X019438Y010855D03*
X023769Y010855D03*
X023769Y011643D03*
D21*
X027194Y009910D03*
X027568Y009044D03*
X026820Y009044D03*
D22*
X028950Y009556D03*
X029950Y009556D03*
X030950Y009556D03*
X030938Y011131D03*
X029938Y011131D03*
X028938Y011131D03*
X027938Y011131D03*
D23*
X002485Y000658D02*
X002380Y000602D01*
X029960Y000602D01*
X029856Y000658D01*
X029747Y000730D01*
X029646Y000813D01*
X029554Y000906D01*
X029471Y001007D01*
X029398Y001115D01*
X029336Y001231D01*
X029286Y001351D01*
X029248Y001476D01*
X029223Y001605D01*
X029212Y001720D01*
X030460Y001720D01*
X030460Y001880D01*
X029212Y001880D01*
X029223Y001995D01*
X029248Y002124D01*
X029286Y002249D01*
X029336Y002369D01*
X029398Y002485D01*
X029471Y002593D01*
X029554Y002694D01*
X029646Y002787D01*
X029747Y002870D01*
X029856Y002942D01*
X029971Y003004D01*
X030092Y003054D01*
X030217Y003092D01*
X030345Y003117D01*
X030460Y003129D01*
X030460Y001880D01*
X030620Y001880D01*
X030620Y003129D01*
X030736Y003117D01*
X030864Y003092D01*
X030989Y003054D01*
X031109Y003004D01*
X031225Y002942D01*
X031333Y002870D01*
X031434Y002787D01*
X031527Y002694D01*
X031610Y002593D01*
X031682Y002485D01*
X031738Y002380D01*
X031738Y003527D01*
X031544Y003333D01*
X029458Y003333D01*
X028080Y001955D01*
X022112Y001955D01*
X022162Y001905D01*
X022162Y001105D01*
X022042Y000985D01*
X020534Y000985D01*
X020414Y001105D01*
X020414Y001905D01*
X020465Y001955D01*
X010560Y001955D01*
X010420Y002095D01*
X010026Y002489D01*
X010026Y004100D01*
X009930Y004061D01*
X009812Y004061D01*
X009702Y004106D01*
X009618Y004190D01*
X009572Y004300D01*
X009572Y004418D01*
X009618Y004528D01*
X009632Y004543D01*
X007886Y004543D01*
X007886Y004453D02*
X007886Y004675D01*
X007527Y004675D01*
X007527Y004712D01*
X007886Y004712D01*
X007886Y004934D01*
X007873Y004980D01*
X007850Y005021D01*
X007816Y005054D01*
X007775Y005078D01*
X007729Y005090D01*
X007527Y005090D01*
X007527Y004712D01*
X007490Y004712D01*
X007490Y004675D01*
X007132Y004675D01*
X007132Y004453D01*
X007144Y004408D01*
X007168Y004367D01*
X007201Y004333D01*
X007204Y004331D01*
X007172Y004299D01*
X007172Y004263D01*
X007121Y004263D01*
X007087Y004297D01*
X006977Y004343D01*
X006859Y004343D01*
X006749Y004297D01*
X006665Y004213D01*
X006620Y004103D01*
X006620Y003985D01*
X006665Y003875D01*
X006749Y003791D01*
X006751Y003790D01*
X006531Y003790D01*
X006497Y003825D01*
X006387Y003870D01*
X006268Y003870D01*
X006159Y003825D01*
X006144Y003810D01*
X004852Y003810D01*
X004696Y003966D01*
X004696Y004299D01*
X004636Y004359D01*
X004696Y004419D01*
X004696Y004721D01*
X004823Y004848D01*
X004930Y004848D01*
X005040Y004893D01*
X005124Y004977D01*
X005169Y005087D01*
X005169Y005206D01*
X005124Y005316D01*
X005040Y005399D01*
X004930Y005445D01*
X004812Y005445D01*
X004702Y005399D01*
X004618Y005316D01*
X004580Y005224D01*
X004406Y005050D01*
X004104Y005050D01*
X004022Y004968D01*
X004022Y004952D01*
X003677Y004952D01*
X003662Y004966D01*
X003552Y005012D01*
X003434Y005012D01*
X003324Y004966D01*
X003240Y004882D01*
X003194Y004773D01*
X003194Y004654D01*
X003240Y004544D01*
X003324Y004460D01*
X003434Y004415D01*
X003552Y004415D01*
X003662Y004460D01*
X003677Y004475D01*
X004022Y004475D01*
X004022Y004419D01*
X004082Y004359D01*
X004022Y004299D01*
X004022Y004263D01*
X002706Y004263D01*
X002689Y004280D01*
X002689Y004300D01*
X002644Y004410D01*
X002560Y004494D01*
X002450Y004539D01*
X002331Y004539D01*
X002222Y004494D01*
X002138Y004410D01*
X002092Y004300D01*
X002092Y004182D01*
X002138Y004072D01*
X002222Y003988D01*
X002331Y003943D01*
X002352Y003943D01*
X002508Y003786D01*
X004022Y003786D01*
X004022Y003750D01*
X004104Y003668D01*
X004319Y003668D01*
X004514Y003473D01*
X004654Y003333D01*
X006089Y003333D01*
X006089Y003318D01*
X005994Y003318D01*
X005934Y003258D01*
X005874Y003318D01*
X005325Y003318D01*
X005243Y003236D01*
X005243Y003220D01*
X005133Y003220D01*
X005119Y003234D01*
X005009Y003280D01*
X004890Y003280D01*
X004781Y003234D01*
X004697Y003150D01*
X004651Y003040D01*
X004651Y002922D01*
X004697Y002812D01*
X004781Y002728D01*
X004890Y002683D01*
X005009Y002683D01*
X005119Y002728D01*
X005133Y002743D01*
X005243Y002743D01*
X005243Y002726D01*
X005325Y002644D01*
X005874Y002644D01*
X005934Y002704D01*
X005994Y002644D01*
X006543Y002644D01*
X006625Y002726D01*
X006625Y003236D01*
X006566Y003295D01*
X006566Y003353D01*
X008250Y003353D01*
X008274Y003329D01*
X008274Y003315D01*
X008195Y003236D01*
X008195Y002726D01*
X008277Y002644D01*
X008826Y002644D01*
X008887Y002704D01*
X008947Y002644D01*
X009496Y002644D01*
X009578Y002726D01*
X009578Y003236D01*
X009499Y003315D01*
X009499Y003329D01*
X009533Y003363D01*
X009579Y003473D01*
X009579Y003592D01*
X010026Y003592D01*
X010026Y003434D02*
X009562Y003434D01*
X009579Y003592D02*
X009533Y003701D01*
X009449Y003785D01*
X009340Y003831D01*
X009221Y003831D01*
X009111Y003785D01*
X009027Y003701D01*
X008982Y003592D01*
X008791Y003592D01*
X008746Y003701D01*
X008662Y003785D01*
X008552Y003831D01*
X008434Y003831D01*
X008336Y003790D01*
X007846Y003790D01*
X007846Y004299D01*
X007813Y004331D01*
X007816Y004333D01*
X007850Y004367D01*
X007873Y004408D01*
X007886Y004453D01*
X007860Y004385D02*
X009572Y004385D01*
X009603Y004226D02*
X007846Y004226D01*
X007846Y004068D02*
X009795Y004068D01*
X009947Y004068D02*
X010026Y004068D01*
X010503Y004068D02*
X011601Y004068D01*
X011601Y004226D02*
X010503Y004226D01*
X010503Y004385D02*
X011601Y004385D01*
X011601Y004543D02*
X011214Y004543D01*
X011190Y004533D02*
X011300Y004579D01*
X011384Y004662D01*
X011429Y004772D01*
X011429Y004891D01*
X011384Y005001D01*
X011300Y005084D01*
X011290Y005088D01*
X011290Y006426D01*
X010503Y007214D01*
X010503Y007632D01*
X010582Y007553D01*
X010947Y007553D01*
X011010Y007616D01*
X011010Y007213D01*
X011150Y007073D01*
X011601Y006623D01*
X011601Y003165D01*
X011586Y003150D01*
X011541Y003040D01*
X011541Y002922D01*
X011586Y002812D01*
X011670Y002728D01*
X011780Y002683D01*
X011899Y002683D01*
X012008Y002728D01*
X012092Y002812D01*
X012138Y002922D01*
X012138Y003040D01*
X012092Y003150D01*
X012078Y003165D01*
X012078Y006820D01*
X011938Y006960D01*
X011487Y007411D01*
X011487Y007648D01*
X011582Y007553D01*
X011947Y007553D01*
X012205Y007811D01*
X012205Y008175D01*
X011947Y008433D01*
X011582Y008433D01*
X011487Y008338D01*
X011487Y008378D01*
X011662Y008553D01*
X011947Y008553D01*
X012205Y008811D01*
X012205Y009175D01*
X011947Y009433D01*
X011582Y009433D01*
X011325Y009175D01*
X011325Y008890D01*
X011010Y008576D01*
X011010Y008369D01*
X010947Y008433D01*
X010582Y008433D01*
X010503Y008354D01*
X010503Y008592D01*
X010205Y008890D01*
X010205Y009175D01*
X009947Y009433D01*
X009582Y009433D01*
X009325Y009175D01*
X009325Y008811D01*
X009582Y008553D01*
X009867Y008553D01*
X010026Y008394D01*
X010026Y008354D01*
X009947Y008433D01*
X009582Y008433D01*
X009325Y008175D01*
X009325Y007811D01*
X009582Y007553D01*
X009947Y007553D01*
X010026Y007632D01*
X010026Y007100D01*
X009205Y007922D01*
X009205Y008175D01*
X008947Y008433D01*
X008582Y008433D01*
X008534Y008385D01*
X008534Y008394D01*
X008693Y008553D01*
X008947Y008553D01*
X009205Y008811D01*
X009205Y009175D01*
X008947Y009433D01*
X008582Y009433D01*
X008325Y009175D01*
X008325Y008859D01*
X008197Y008731D01*
X008058Y008592D01*
X008058Y008322D01*
X007947Y008433D01*
X007582Y008433D01*
X007325Y008175D01*
X007325Y007890D01*
X006453Y007019D01*
X006259Y007019D01*
X006260Y007019D01*
X006344Y007103D01*
X006390Y007213D01*
X006390Y007332D01*
X006344Y007441D01*
X006260Y007525D01*
X006151Y007571D01*
X006130Y007571D01*
X006013Y007688D01*
X005680Y007688D01*
X005680Y007724D01*
X005598Y007806D01*
X005324Y007806D01*
X005304Y007826D01*
X004936Y007826D01*
X004922Y007840D01*
X004812Y007886D01*
X004693Y007886D01*
X004584Y007840D01*
X004500Y007756D01*
X004454Y007647D01*
X004454Y007528D01*
X004500Y007418D01*
X004584Y007334D01*
X004693Y007289D01*
X004812Y007289D01*
X004922Y007334D01*
X004936Y007349D01*
X005006Y007349D01*
X005006Y007175D01*
X005067Y007115D01*
X005006Y007055D01*
X005006Y007019D01*
X004635Y007019D01*
X004420Y007233D01*
X004420Y007567D01*
X004338Y007649D01*
X003671Y007649D01*
X003589Y007567D01*
X003589Y007057D01*
X003671Y006975D01*
X004004Y006975D01*
X004437Y006542D01*
X005006Y006542D01*
X005006Y006506D01*
X005088Y006424D01*
X005598Y006424D01*
X005680Y006506D01*
X005680Y006542D01*
X006651Y006542D01*
X007526Y007417D01*
X007526Y006760D01*
X007861Y006426D01*
X007878Y006409D01*
X007804Y006409D01*
X007664Y006269D01*
X007371Y005975D01*
X006625Y005975D01*
X006625Y005992D01*
X006543Y006074D01*
X005994Y006074D01*
X005962Y006041D01*
X005960Y006044D01*
X005926Y006078D01*
X005885Y006102D01*
X005839Y006114D01*
X005618Y006114D01*
X005618Y005755D01*
X005581Y005755D01*
X005581Y005719D01*
X005203Y005719D01*
X005203Y005516D01*
X005215Y005471D01*
X005239Y005430D01*
X005272Y005396D01*
X005313Y005372D01*
X005359Y005360D01*
X005581Y005360D01*
X005581Y005719D01*
X005618Y005719D01*
X005618Y005360D01*
X005839Y005360D01*
X005885Y005372D01*
X005926Y005396D01*
X005960Y005430D01*
X005962Y005433D01*
X005994Y005400D01*
X006543Y005400D01*
X006625Y005482D01*
X006625Y005499D01*
X007568Y005499D01*
X008001Y005932D01*
X008155Y005932D01*
X008155Y005755D01*
X008534Y005755D01*
X008534Y005719D01*
X008570Y005719D01*
X008570Y005360D01*
X008792Y005360D01*
X008838Y005372D01*
X008879Y005396D01*
X008913Y005430D01*
X008914Y005433D01*
X008947Y005400D01*
X009221Y005400D01*
X009632Y004989D01*
X009632Y004543D01*
X009632Y004702D02*
X007527Y004702D01*
X007490Y004702D02*
X004696Y004702D01*
X004959Y004860D02*
X007132Y004860D01*
X007132Y004934D02*
X007132Y004712D01*
X007490Y004712D01*
X007490Y005090D01*
X007288Y005090D01*
X007242Y005078D01*
X007201Y005054D01*
X007168Y005021D01*
X007144Y004980D01*
X007132Y004934D01*
X007167Y005019D02*
X005141Y005019D01*
X005169Y005177D02*
X009444Y005177D01*
X009286Y005336D02*
X005104Y005336D01*
X005209Y005494D02*
X004890Y005494D01*
X004851Y005478D02*
X004961Y005523D01*
X005045Y005607D01*
X005091Y005717D01*
X005091Y005836D01*
X005045Y005945D01*
X004961Y006029D01*
X004851Y006075D01*
X004733Y006075D01*
X004623Y006029D01*
X004609Y006015D01*
X001899Y006015D01*
X001842Y006072D01*
X001842Y006621D01*
X001858Y006621D01*
X001940Y006703D01*
X001940Y006758D01*
X002271Y006758D01*
X002222Y006738D01*
X002138Y006654D01*
X002092Y006544D01*
X002092Y006426D01*
X002138Y006316D01*
X002222Y006232D01*
X002331Y006187D01*
X002450Y006187D01*
X002560Y006232D01*
X002574Y006247D01*
X002785Y006247D01*
X003139Y006601D01*
X003472Y006601D01*
X003554Y006683D01*
X003554Y007193D01*
X003472Y007275D01*
X002809Y007275D01*
X002883Y007349D01*
X003472Y007349D01*
X003554Y007431D01*
X003554Y007941D01*
X003472Y008023D01*
X002805Y008023D01*
X002723Y007941D01*
X002723Y007863D01*
X002095Y007235D01*
X001940Y007235D01*
X001940Y007252D01*
X001880Y007312D01*
X001940Y007372D01*
X001940Y007408D01*
X002115Y007408D01*
X002429Y007722D01*
X002450Y007722D01*
X002560Y007767D01*
X002644Y007851D01*
X002689Y007961D01*
X002689Y007982D01*
X002883Y008176D01*
X003472Y008176D01*
X003554Y008258D01*
X003554Y008767D01*
X003472Y008849D01*
X002805Y008849D01*
X002726Y008770D01*
X002037Y009460D01*
X001940Y009460D01*
X001940Y009496D01*
X001858Y009578D01*
X001348Y009578D01*
X001266Y009496D01*
X001266Y008947D01*
X001326Y008887D01*
X001266Y008826D01*
X001266Y008810D01*
X001190Y008810D01*
X001172Y008828D01*
X001172Y009457D01*
X001308Y009593D01*
X002213Y009593D01*
X002270Y009536D01*
X002270Y009536D01*
X002410Y009396D01*
X002723Y009083D01*
X002723Y009006D01*
X002805Y008924D01*
X003472Y008924D01*
X003554Y009006D01*
X003554Y009515D01*
X003472Y009597D01*
X002933Y009597D01*
X002959Y009623D01*
X003004Y009733D01*
X003004Y009851D01*
X002959Y009961D01*
X002894Y010026D01*
X003276Y010026D01*
X003727Y009575D01*
X003727Y009223D01*
X003671Y009223D01*
X003589Y009141D01*
X003589Y008632D01*
X003671Y008550D01*
X004338Y008550D01*
X004408Y008619D01*
X004554Y008473D01*
X004693Y008333D01*
X005006Y008333D01*
X005006Y008277D01*
X005088Y008195D01*
X005598Y008195D01*
X005657Y008254D01*
X006404Y008254D01*
X006325Y008175D01*
X006325Y007811D01*
X006582Y007553D01*
X006947Y007553D01*
X007205Y007811D01*
X007205Y008175D01*
X007125Y008254D01*
X007363Y008254D01*
X007662Y008553D01*
X007947Y008553D01*
X008205Y008811D01*
X008205Y009175D01*
X007947Y009433D01*
X007582Y009433D01*
X007325Y009175D01*
X007325Y008890D01*
X007166Y008731D01*
X007125Y008731D01*
X007205Y008811D01*
X007205Y009175D01*
X006947Y009433D01*
X006582Y009433D01*
X006325Y009175D01*
X006325Y008811D01*
X006404Y008731D01*
X005757Y008731D01*
X005698Y008790D01*
X005680Y008790D01*
X005680Y008826D01*
X005620Y008887D01*
X005680Y008947D01*
X005680Y009496D01*
X005598Y009578D01*
X005088Y009578D01*
X005038Y009528D01*
X005006Y009607D01*
X004922Y009691D01*
X004812Y009736D01*
X004693Y009736D01*
X004584Y009691D01*
X004500Y009607D01*
X004454Y009497D01*
X004454Y009378D01*
X004500Y009269D01*
X004584Y009185D01*
X004693Y009139D01*
X004714Y009139D01*
X004871Y008983D01*
X005006Y008983D01*
X005006Y008947D01*
X005067Y008887D01*
X005006Y008826D01*
X005006Y008810D01*
X004891Y008810D01*
X004576Y009125D01*
X004420Y009125D01*
X004420Y009141D01*
X004338Y009223D01*
X004204Y009223D01*
X004204Y009773D01*
X004064Y009912D01*
X003474Y010503D01*
X000999Y010503D01*
X000985Y010518D01*
X000875Y010563D01*
X000756Y010563D01*
X000647Y010518D01*
X000602Y010473D01*
X000602Y012053D01*
X001753Y012053D01*
X001738Y012017D01*
X001738Y011898D01*
X001783Y011788D01*
X001798Y011774D01*
X001798Y011757D01*
X001683Y011757D01*
X001679Y011761D01*
X001638Y011785D01*
X001592Y011797D01*
X001443Y011797D01*
X001294Y011797D01*
X001249Y011785D01*
X001208Y011761D01*
X001174Y011727D01*
X001150Y011686D01*
X001138Y011641D01*
X001138Y011367D01*
X001443Y011367D01*
X001443Y011367D01*
X001443Y011797D01*
X001443Y011367D01*
X001443Y011367D01*
X001138Y011367D01*
X001138Y011093D01*
X001150Y011047D01*
X001174Y011006D01*
X001208Y010973D01*
X001249Y010949D01*
X001294Y010937D01*
X001443Y010937D01*
X001443Y011367D01*
X001443Y011367D01*
X001443Y010937D01*
X001592Y010937D01*
X001638Y010949D01*
X001679Y010973D01*
X001683Y010977D01*
X001946Y010977D01*
X002028Y011059D01*
X002028Y011295D01*
X002275Y011541D01*
X002275Y011774D01*
X002289Y011788D01*
X002335Y011898D01*
X002335Y012017D01*
X002320Y012053D01*
X004179Y012053D01*
X004179Y009993D01*
X004284Y009888D01*
X011125Y009888D01*
X011010Y009773D01*
X010671Y009433D01*
X010582Y009433D01*
X010325Y009175D01*
X010325Y008811D01*
X010582Y008553D01*
X010947Y008553D01*
X011205Y008811D01*
X011205Y009175D01*
X011146Y009234D01*
X011348Y009436D01*
X012528Y009436D01*
X012285Y009192D01*
X012285Y009013D01*
X012745Y009013D01*
X012745Y008973D01*
X012785Y008973D01*
X012785Y009013D01*
X013245Y009013D01*
X013245Y009192D01*
X013001Y009436D01*
X013528Y009436D01*
X013285Y009192D01*
X013285Y009013D01*
X013745Y009013D01*
X013745Y008973D01*
X013785Y008973D01*
X013785Y009013D01*
X014245Y009013D01*
X014245Y009192D01*
X014001Y009436D01*
X014927Y009436D01*
X014887Y009340D01*
X014887Y009319D01*
X013974Y008406D01*
X013947Y008433D01*
X013582Y008433D01*
X013325Y008175D01*
X013325Y007811D01*
X013526Y007609D01*
X013526Y004647D01*
X013442Y004612D01*
X013358Y004528D01*
X013313Y004418D01*
X013313Y004300D01*
X013358Y004190D01*
X013442Y004106D01*
X013552Y004061D01*
X013670Y004061D01*
X013780Y004106D01*
X013864Y004190D01*
X013909Y004300D01*
X013909Y004320D01*
X014003Y004414D01*
X014003Y007609D01*
X014205Y007811D01*
X014205Y007962D01*
X015225Y008982D01*
X015245Y008982D01*
X015355Y009027D01*
X015439Y009111D01*
X015484Y009221D01*
X015484Y009340D01*
X015445Y009436D01*
X015791Y009436D01*
X015400Y009044D01*
X015400Y008830D01*
X015364Y008830D01*
X015282Y008748D01*
X015282Y008238D01*
X015364Y008156D01*
X015913Y008156D01*
X015973Y008216D01*
X016033Y008156D01*
X016069Y008156D01*
X016069Y007649D01*
X016033Y007649D01*
X016001Y007616D01*
X015999Y007619D01*
X015966Y007653D01*
X015925Y007676D01*
X015879Y007689D01*
X015657Y007689D01*
X015657Y007330D01*
X015620Y007330D01*
X015620Y007293D01*
X015657Y007293D01*
X015657Y006935D01*
X015879Y006935D01*
X015925Y006947D01*
X015966Y006971D01*
X015999Y007004D01*
X016001Y007007D01*
X016033Y006975D01*
X016582Y006975D01*
X016664Y007057D01*
X016664Y007567D01*
X016582Y007649D01*
X016546Y007649D01*
X016546Y008073D01*
X016588Y008073D01*
X016727Y008213D01*
X016727Y008411D01*
X016664Y008474D01*
X016664Y008512D01*
X017013Y008861D01*
X017510Y008861D01*
X017521Y008849D01*
X017447Y008775D01*
X017447Y008423D01*
X017521Y008349D01*
X017447Y008275D01*
X017447Y007923D01*
X017521Y007849D01*
X017447Y007775D01*
X017447Y007423D01*
X017521Y007349D01*
X017447Y007275D01*
X017447Y006923D01*
X017521Y006849D01*
X017447Y006775D01*
X017447Y006423D01*
X017529Y006341D01*
X017703Y006341D01*
X017703Y005330D01*
X017689Y005316D01*
X017643Y005206D01*
X017643Y005087D01*
X017689Y004977D01*
X017773Y004893D01*
X017882Y004848D01*
X018001Y004848D01*
X018111Y004893D01*
X018195Y004977D01*
X018240Y005087D01*
X018240Y005206D01*
X018195Y005316D01*
X018180Y005330D01*
X018180Y006403D01*
X018200Y006423D01*
X018200Y006775D01*
X018126Y006849D01*
X018200Y006923D01*
X018200Y007275D01*
X018126Y007349D01*
X018200Y007423D01*
X018200Y007775D01*
X018126Y007849D01*
X018200Y007923D01*
X018200Y008275D01*
X018126Y008349D01*
X018200Y008423D01*
X018200Y008775D01*
X018126Y008849D01*
X018200Y008923D01*
X018200Y009275D01*
X018126Y009349D01*
X018200Y009423D01*
X018200Y009775D01*
X018133Y009843D01*
X018139Y009849D01*
X018491Y009497D01*
X018491Y009464D01*
X018476Y009449D01*
X018431Y009340D01*
X018431Y009221D01*
X018476Y009111D01*
X018560Y009027D01*
X018670Y008982D01*
X018788Y008982D01*
X018898Y009027D01*
X018982Y009111D01*
X019028Y009221D01*
X019028Y009340D01*
X018982Y009449D01*
X018968Y009464D01*
X018968Y009694D01*
X018437Y010225D01*
X018437Y010245D01*
X018392Y010355D01*
X018308Y010439D01*
X018198Y010484D01*
X018079Y010484D01*
X017970Y010439D01*
X017886Y010355D01*
X017840Y010245D01*
X017840Y010225D01*
X017786Y010171D01*
X017786Y010278D01*
X017801Y010292D01*
X017846Y010402D01*
X017846Y010521D01*
X017801Y010630D01*
X017717Y010714D01*
X017607Y010760D01*
X017489Y010760D01*
X017379Y010714D01*
X017295Y010630D01*
X017250Y010521D01*
X017250Y010402D01*
X017279Y010332D01*
X016999Y010053D01*
X016999Y011347D01*
X017253Y011601D01*
X017723Y011601D01*
X017723Y010876D01*
X017805Y010794D01*
X018512Y010794D01*
X018594Y010876D01*
X018594Y011010D01*
X018630Y011010D01*
X019062Y010579D01*
X019062Y010561D01*
X019081Y010541D01*
X019081Y010448D01*
X019067Y010434D01*
X019021Y010324D01*
X019021Y010205D01*
X019067Y010096D01*
X019081Y010081D01*
X019081Y009182D01*
X019221Y009042D01*
X019402Y008861D01*
X019714Y008861D01*
X019726Y008849D01*
X019652Y008775D01*
X019652Y008423D01*
X019726Y008349D01*
X019652Y008275D01*
X019652Y007923D01*
X019726Y007849D01*
X019652Y007775D01*
X019652Y007423D01*
X019726Y007349D01*
X019652Y007275D01*
X019652Y006923D01*
X019702Y006873D01*
X019682Y006861D01*
X019648Y006828D01*
X019624Y006787D01*
X019612Y006741D01*
X019612Y006599D01*
X019612Y006457D01*
X019624Y006412D01*
X019648Y006371D01*
X019682Y006337D01*
X019723Y006313D01*
X019768Y006301D01*
X020028Y006301D01*
X020028Y006599D01*
X019612Y006599D01*
X020028Y006599D01*
X020028Y006599D01*
X020028Y006599D01*
X020028Y006301D01*
X020288Y006301D01*
X020334Y006313D01*
X020375Y006337D01*
X020409Y006371D01*
X020432Y006412D01*
X020445Y006457D01*
X020445Y006599D01*
X020028Y006599D01*
X020028Y006599D01*
X020445Y006599D01*
X020445Y006741D01*
X020432Y006787D01*
X020409Y006828D01*
X020376Y006861D01*
X020418Y006861D01*
X020459Y006819D01*
X020459Y005907D01*
X020444Y005907D01*
X020194Y005803D01*
X020002Y005611D01*
X019908Y005385D01*
X019811Y005385D01*
X019672Y005245D01*
X019140Y004714D01*
X019140Y004302D01*
X019104Y004302D01*
X019022Y004220D01*
X019022Y003711D01*
X019104Y003629D01*
X019653Y003629D01*
X019686Y003661D01*
X019687Y003658D01*
X019721Y003624D01*
X019762Y003601D01*
X019808Y003589D01*
X020030Y003589D01*
X020030Y003947D01*
X020066Y003947D01*
X020066Y003589D01*
X020288Y003589D01*
X020334Y003601D01*
X020375Y003624D01*
X020409Y003658D01*
X020432Y003699D01*
X020445Y003745D01*
X020445Y003947D01*
X020066Y003947D01*
X020066Y003984D01*
X020030Y003984D01*
X020030Y004342D01*
X019808Y004342D01*
X019762Y004330D01*
X019721Y004306D01*
X019687Y004273D01*
X019686Y004270D01*
X019653Y004302D01*
X019617Y004302D01*
X019617Y004516D01*
X019984Y004883D01*
X020002Y004839D01*
X020194Y004648D01*
X020444Y004544D01*
X020715Y004544D01*
X020965Y004648D01*
X021157Y004839D01*
X021261Y005090D01*
X021261Y005361D01*
X021157Y005611D01*
X020965Y005803D01*
X020936Y005815D01*
X020936Y005949D01*
X021377Y005508D01*
X021316Y005361D01*
X021316Y005090D01*
X021419Y004839D01*
X021581Y004677D01*
X021581Y004302D01*
X021545Y004302D01*
X021513Y004270D01*
X021511Y004273D01*
X021477Y004306D01*
X021436Y004330D01*
X021391Y004342D01*
X021169Y004342D01*
X021169Y003984D01*
X021132Y003984D01*
X021132Y004342D01*
X020910Y004342D01*
X020864Y004330D01*
X020823Y004306D01*
X020790Y004273D01*
X020766Y004232D01*
X020754Y004186D01*
X020754Y003984D01*
X021132Y003984D01*
X021132Y003947D01*
X020754Y003947D01*
X020754Y003745D01*
X020766Y003699D01*
X020790Y003658D01*
X020823Y003624D01*
X020864Y003601D01*
X020910Y003589D01*
X021132Y003589D01*
X021132Y003947D01*
X021169Y003947D01*
X021169Y003589D01*
X021391Y003589D01*
X021436Y003601D01*
X021477Y003624D01*
X021511Y003658D01*
X021513Y003661D01*
X021545Y003629D01*
X021581Y003629D01*
X021581Y003121D01*
X021545Y003121D01*
X021513Y003089D01*
X021511Y003092D01*
X021477Y003125D01*
X021436Y003149D01*
X021391Y003161D01*
X021169Y003161D01*
X021169Y002803D01*
X021132Y002803D01*
X021132Y003161D01*
X020910Y003161D01*
X020864Y003149D01*
X020823Y003125D01*
X020790Y003092D01*
X020766Y003051D01*
X020754Y003005D01*
X020754Y002803D01*
X021132Y002803D01*
X021132Y002766D01*
X020754Y002766D01*
X020754Y002564D01*
X020766Y002518D01*
X020790Y002477D01*
X020823Y002443D01*
X020843Y002432D01*
X010757Y002432D01*
X010503Y002686D01*
X010503Y005675D01*
X010599Y005635D01*
X010718Y005635D01*
X010814Y005675D01*
X010814Y004811D01*
X010832Y004793D01*
X010832Y004772D01*
X010878Y004662D01*
X010962Y004579D01*
X011071Y004533D01*
X011190Y004533D01*
X011047Y004543D02*
X010503Y004543D01*
X010503Y004702D02*
X010862Y004702D01*
X010814Y004860D02*
X010503Y004860D01*
X010503Y005019D02*
X010814Y005019D01*
X010814Y005177D02*
X010503Y005177D01*
X010503Y005336D02*
X010814Y005336D01*
X010814Y005494D02*
X010503Y005494D01*
X010503Y005653D02*
X010558Y005653D01*
X010759Y005653D02*
X010814Y005653D01*
X011290Y005653D02*
X011601Y005653D01*
X011601Y005494D02*
X011290Y005494D01*
X011290Y005336D02*
X011601Y005336D01*
X011601Y005177D02*
X011290Y005177D01*
X011366Y005019D02*
X011601Y005019D01*
X011601Y004860D02*
X011429Y004860D01*
X011400Y004702D02*
X011601Y004702D01*
X012078Y004702D02*
X012526Y004702D01*
X012526Y004860D02*
X012078Y004860D01*
X012078Y005019D02*
X012526Y005019D01*
X012526Y005177D02*
X012078Y005177D01*
X012078Y005336D02*
X012526Y005336D01*
X012526Y005494D02*
X012078Y005494D01*
X012078Y005653D02*
X012526Y005653D01*
X012526Y005811D02*
X012078Y005811D01*
X012078Y005970D02*
X012526Y005970D01*
X012526Y006128D02*
X012078Y006128D01*
X012078Y006287D02*
X012526Y006287D01*
X012526Y006445D02*
X012078Y006445D01*
X012078Y006604D02*
X012526Y006604D01*
X012526Y006762D02*
X012078Y006762D01*
X011977Y006921D02*
X012526Y006921D01*
X012526Y007079D02*
X011819Y007079D01*
X011660Y007238D02*
X012526Y007238D01*
X012526Y007396D02*
X011502Y007396D01*
X011487Y007555D02*
X011581Y007555D01*
X011948Y007555D02*
X012526Y007555D01*
X012526Y007609D02*
X012526Y004051D01*
X012453Y003977D01*
X012407Y003867D01*
X012407Y003749D01*
X012453Y003639D01*
X012536Y003555D01*
X012646Y003509D01*
X012765Y003509D01*
X012875Y003555D01*
X012959Y003639D01*
X013004Y003749D01*
X013004Y003867D01*
X013003Y003870D01*
X013003Y007609D01*
X013205Y007811D01*
X013205Y008175D01*
X012947Y008433D01*
X012582Y008433D01*
X012325Y008175D01*
X012325Y007811D01*
X012526Y007609D01*
X012422Y007713D02*
X012107Y007713D01*
X012205Y007872D02*
X012325Y007872D01*
X012325Y008030D02*
X012205Y008030D01*
X012191Y008189D02*
X012338Y008189D01*
X012496Y008347D02*
X012033Y008347D01*
X012285Y008794D02*
X012566Y008513D01*
X012745Y008513D01*
X012745Y008973D01*
X012285Y008973D01*
X012285Y008794D01*
X012285Y008823D02*
X012205Y008823D01*
X012058Y008664D02*
X012415Y008664D01*
X012745Y008664D02*
X012785Y008664D01*
X012785Y008513D02*
X012963Y008513D01*
X013245Y008794D01*
X013245Y008973D01*
X012785Y008973D01*
X012785Y008513D01*
X013033Y008347D02*
X013496Y008347D01*
X013566Y008513D02*
X013745Y008513D01*
X013745Y008973D01*
X013285Y008973D01*
X013285Y008794D01*
X013566Y008513D01*
X013415Y008664D02*
X013115Y008664D01*
X013245Y008823D02*
X013285Y008823D01*
X013745Y008823D02*
X013785Y008823D01*
X013785Y008664D02*
X013745Y008664D01*
X013785Y008513D02*
X013963Y008513D01*
X014245Y008794D01*
X014245Y008973D01*
X013785Y008973D01*
X013785Y008513D01*
X014074Y008506D02*
X011614Y008506D01*
X011496Y008347D02*
X011487Y008347D01*
X011010Y008506D02*
X010503Y008506D01*
X010471Y008664D02*
X010431Y008664D01*
X010325Y008823D02*
X010272Y008823D01*
X010325Y008981D02*
X010205Y008981D01*
X010205Y009140D02*
X010325Y009140D01*
X010447Y009298D02*
X010082Y009298D01*
X010694Y009457D02*
X005680Y009457D01*
X005680Y009298D02*
X006447Y009298D01*
X006325Y009140D02*
X005680Y009140D01*
X005680Y008981D02*
X006325Y008981D01*
X006325Y008823D02*
X005680Y008823D01*
X005006Y008823D02*
X004878Y008823D01*
X005006Y008981D02*
X004720Y008981D01*
X004693Y009140D02*
X004420Y009140D01*
X004488Y009298D02*
X004204Y009298D01*
X004204Y009457D02*
X004454Y009457D01*
X004508Y009615D02*
X004204Y009615D01*
X004203Y009774D02*
X011011Y009774D01*
X010853Y009615D02*
X004998Y009615D01*
X004240Y009932D02*
X004044Y009932D01*
X004179Y010091D02*
X003886Y010091D01*
X003727Y010249D02*
X004179Y010249D01*
X004179Y010408D02*
X003569Y010408D01*
X004179Y010566D02*
X000602Y010566D01*
X000602Y010725D02*
X004179Y010725D01*
X004179Y010883D02*
X000602Y010883D01*
X000602Y011042D02*
X001154Y011042D01*
X001138Y011200D02*
X000602Y011200D01*
X000602Y011359D02*
X001138Y011359D01*
X001443Y011359D02*
X001443Y011359D01*
X001443Y011200D02*
X001443Y011200D01*
X001443Y011042D02*
X001443Y011042D01*
X002011Y011042D02*
X002729Y011042D01*
X002725Y011047D02*
X002749Y011006D01*
X002782Y010973D01*
X002823Y010949D01*
X002869Y010937D01*
X003018Y010937D01*
X003167Y010937D01*
X003212Y010949D01*
X003253Y010973D01*
X003258Y010977D01*
X003521Y010977D01*
X003603Y011059D01*
X003603Y011129D01*
X003664Y011129D01*
X003678Y011114D01*
X003788Y011069D01*
X003907Y011069D01*
X004016Y011114D01*
X004100Y011198D01*
X004146Y011308D01*
X004146Y011426D01*
X004100Y011536D01*
X004016Y011620D01*
X003907Y011665D01*
X003788Y011665D01*
X003678Y011620D01*
X003664Y011605D01*
X003603Y011605D01*
X003603Y011675D01*
X003521Y011757D01*
X003258Y011757D01*
X003253Y011761D01*
X003212Y011785D01*
X003167Y011797D01*
X003018Y011797D01*
X003018Y011367D01*
X003018Y011367D01*
X003018Y011797D01*
X002869Y011797D01*
X002823Y011785D01*
X002782Y011761D01*
X002749Y011727D01*
X002725Y011686D01*
X002713Y011641D01*
X002713Y011367D01*
X003018Y011367D01*
X003018Y011367D01*
X003018Y010937D01*
X003018Y011367D01*
X003018Y011367D01*
X002713Y011367D01*
X002713Y011093D01*
X002725Y011047D01*
X002713Y011200D02*
X002028Y011200D01*
X002092Y011359D02*
X002713Y011359D01*
X003018Y011359D02*
X003018Y011359D01*
X003018Y011200D02*
X003018Y011200D01*
X003018Y011042D02*
X003018Y011042D01*
X003586Y011042D02*
X004179Y011042D01*
X004179Y011200D02*
X004101Y011200D01*
X004146Y011359D02*
X004179Y011359D01*
X004179Y011517D02*
X004108Y011517D01*
X004179Y011676D02*
X003602Y011676D01*
X004179Y011834D02*
X002308Y011834D01*
X002275Y011676D02*
X002722Y011676D01*
X002713Y011517D02*
X002250Y011517D01*
X001764Y011834D02*
X000602Y011834D01*
X000602Y011676D02*
X001148Y011676D01*
X001138Y011517D02*
X000602Y011517D01*
X001443Y011517D02*
X001443Y011517D01*
X001443Y011676D02*
X001443Y011676D01*
X001738Y011993D02*
X000602Y011993D01*
X002335Y011993D02*
X004179Y011993D01*
X003018Y011676D02*
X003018Y011676D01*
X003018Y011517D02*
X003018Y011517D01*
X001067Y010026D02*
X000835Y009794D01*
X000695Y009655D01*
X000695Y008630D01*
X000853Y008473D01*
X000993Y008333D01*
X001266Y008333D01*
X001266Y008277D01*
X001348Y008195D01*
X001858Y008195D01*
X001940Y008277D01*
X001940Y008826D01*
X001880Y008887D01*
X001908Y008914D01*
X002427Y008394D01*
X002352Y008319D01*
X002331Y008319D01*
X002222Y008273D01*
X002138Y008190D01*
X002092Y008080D01*
X002092Y008059D01*
X001940Y007907D01*
X001940Y007921D01*
X001858Y008003D01*
X001348Y008003D01*
X001266Y007921D01*
X001266Y007372D01*
X001326Y007312D01*
X001266Y007252D01*
X001266Y006703D01*
X001348Y006621D01*
X001365Y006621D01*
X001365Y005874D01*
X001504Y005735D01*
X001701Y005538D01*
X004609Y005538D01*
X004623Y005523D01*
X004733Y005478D01*
X004851Y005478D01*
X004694Y005494D02*
X000602Y005494D01*
X000602Y005336D02*
X004638Y005336D01*
X004533Y005177D02*
X000602Y005177D01*
X000602Y005019D02*
X004073Y005019D01*
X003231Y004860D02*
X000602Y004860D01*
X000602Y004702D02*
X003194Y004702D01*
X003241Y004543D02*
X000602Y004543D01*
X000602Y004385D02*
X002127Y004385D01*
X002092Y004226D02*
X000602Y004226D01*
X000602Y004068D02*
X002142Y004068D01*
X002385Y003909D02*
X000602Y003909D01*
X000602Y003751D02*
X004022Y003751D01*
X004395Y003592D02*
X000602Y003592D01*
X000602Y003434D02*
X004554Y003434D01*
X004879Y003275D02*
X000602Y003275D01*
X000602Y003117D02*
X001601Y003117D01*
X001605Y003117D02*
X001476Y003092D01*
X001351Y003054D01*
X001231Y003004D01*
X001115Y002942D01*
X001007Y002870D01*
X000906Y002787D01*
X000813Y002694D01*
X000730Y002593D01*
X000658Y002485D01*
X000602Y002380D01*
X000602Y010056D01*
X000647Y010012D01*
X000756Y009966D01*
X000875Y009966D01*
X000985Y010012D01*
X000999Y010026D01*
X001067Y010026D01*
X000973Y009932D02*
X000602Y009932D01*
X000602Y009774D02*
X000814Y009774D01*
X000695Y009615D02*
X000602Y009615D01*
X000602Y009457D02*
X000695Y009457D01*
X000695Y009298D02*
X000602Y009298D01*
X000602Y009140D02*
X000695Y009140D01*
X000695Y008981D02*
X000602Y008981D01*
X000602Y008823D02*
X000695Y008823D01*
X000695Y008664D02*
X000602Y008664D01*
X000602Y008506D02*
X000820Y008506D01*
X000979Y008347D02*
X000602Y008347D01*
X000602Y008189D02*
X002137Y008189D01*
X002063Y008030D02*
X000602Y008030D01*
X000602Y007872D02*
X001266Y007872D01*
X001266Y007713D02*
X000602Y007713D01*
X000602Y007555D02*
X001266Y007555D01*
X001266Y007396D02*
X000602Y007396D01*
X000602Y007238D02*
X001266Y007238D01*
X001266Y007079D02*
X000602Y007079D01*
X000602Y006921D02*
X001266Y006921D01*
X001266Y006762D02*
X000602Y006762D01*
X000602Y006604D02*
X001365Y006604D01*
X001365Y006445D02*
X000602Y006445D01*
X000602Y006287D02*
X001365Y006287D01*
X001365Y006128D02*
X000602Y006128D01*
X000602Y005970D02*
X001365Y005970D01*
X001428Y005811D02*
X000602Y005811D01*
X000602Y005653D02*
X001587Y005653D01*
X001842Y006128D02*
X007523Y006128D01*
X007682Y006287D02*
X002825Y006287D01*
X002983Y006445D02*
X005067Y006445D01*
X005619Y006445D02*
X007841Y006445D01*
X007683Y006604D02*
X006712Y006604D01*
X006871Y006762D02*
X007526Y006762D01*
X007526Y006921D02*
X007029Y006921D01*
X007188Y007079D02*
X007526Y007079D01*
X007526Y007238D02*
X007346Y007238D01*
X007505Y007396D02*
X007526Y007396D01*
X006989Y007555D02*
X006948Y007555D01*
X006831Y007396D02*
X006363Y007396D01*
X006390Y007238D02*
X006672Y007238D01*
X006514Y007079D02*
X006320Y007079D01*
X006190Y007555D02*
X006581Y007555D01*
X006422Y007713D02*
X005680Y007713D01*
X006325Y007872D02*
X004847Y007872D01*
X004659Y007872D02*
X003554Y007872D01*
X003554Y007713D02*
X004482Y007713D01*
X004454Y007555D02*
X004420Y007555D01*
X004420Y007396D02*
X004522Y007396D01*
X004420Y007238D02*
X005006Y007238D01*
X005031Y007079D02*
X004575Y007079D01*
X004059Y006921D02*
X003554Y006921D01*
X003554Y006762D02*
X004217Y006762D01*
X004376Y006604D02*
X003475Y006604D01*
X003554Y007079D02*
X003589Y007079D01*
X003589Y007238D02*
X003509Y007238D01*
X003519Y007396D02*
X003589Y007396D01*
X003589Y007555D02*
X003554Y007555D01*
X002723Y007872D02*
X002652Y007872D01*
X002573Y007713D02*
X002420Y007713D01*
X002414Y007555D02*
X002262Y007555D01*
X002256Y007396D02*
X001940Y007396D01*
X001940Y007238D02*
X002097Y007238D01*
X002117Y006604D02*
X001842Y006604D01*
X001842Y006445D02*
X002092Y006445D01*
X002167Y006287D02*
X001842Y006287D01*
X005021Y005970D02*
X005206Y005970D01*
X005203Y005958D02*
X005203Y005755D01*
X005581Y005755D01*
X005581Y006114D01*
X005359Y006114D01*
X005313Y006102D01*
X005272Y006078D01*
X005239Y006044D01*
X005215Y006003D01*
X005203Y005958D01*
X005203Y005811D02*
X005091Y005811D01*
X005064Y005653D02*
X005203Y005653D01*
X005581Y005653D02*
X005618Y005653D01*
X005618Y005494D02*
X005581Y005494D01*
X005581Y005811D02*
X005618Y005811D01*
X005618Y005970D02*
X005581Y005970D01*
X006625Y005494D02*
X008161Y005494D01*
X008155Y005516D02*
X008168Y005471D01*
X008191Y005430D01*
X008225Y005396D01*
X008266Y005372D01*
X008312Y005360D01*
X008534Y005360D01*
X008534Y005719D01*
X008155Y005719D01*
X008155Y005516D01*
X008155Y005653D02*
X007722Y005653D01*
X007881Y005811D02*
X008155Y005811D01*
X008534Y005653D02*
X008570Y005653D01*
X008570Y005494D02*
X008534Y005494D01*
X007851Y005019D02*
X009603Y005019D01*
X009632Y004860D02*
X007886Y004860D01*
X007527Y004860D02*
X007490Y004860D01*
X007490Y005019D02*
X007527Y005019D01*
X007132Y004543D02*
X004696Y004543D01*
X004661Y004385D02*
X007157Y004385D01*
X006678Y004226D02*
X004696Y004226D01*
X004696Y004068D02*
X006620Y004068D01*
X006651Y003909D02*
X004753Y003909D01*
X004057Y004385D02*
X002654Y004385D01*
X005020Y003275D02*
X005282Y003275D01*
X004683Y003117D02*
X001999Y003117D01*
X001995Y003117D02*
X001880Y003129D01*
X001880Y001880D01*
X001720Y001880D01*
X001720Y003129D01*
X001605Y003117D01*
X001720Y003117D02*
X001880Y003117D01*
X001995Y003117D02*
X002124Y003092D01*
X002249Y003054D01*
X002369Y003004D01*
X002485Y002942D01*
X002593Y002870D01*
X002694Y002787D01*
X002787Y002694D01*
X002870Y002593D01*
X002942Y002485D01*
X003004Y002369D01*
X003054Y002249D01*
X003092Y002124D01*
X003117Y001995D01*
X003129Y001880D01*
X001880Y001880D01*
X001880Y001720D01*
X003129Y001720D01*
X003117Y001605D01*
X003092Y001476D01*
X003054Y001351D01*
X003004Y001231D01*
X002942Y001115D01*
X002870Y001007D01*
X002787Y000906D01*
X002694Y000813D01*
X002593Y000730D01*
X002485Y000658D01*
X002604Y000739D02*
X029736Y000739D01*
X029562Y000898D02*
X002778Y000898D01*
X002902Y001056D02*
X020463Y001056D01*
X020414Y001215D02*
X002995Y001215D01*
X003060Y001373D02*
X007277Y001373D01*
X007256Y001395D02*
X007340Y001311D01*
X007449Y001265D01*
X007568Y001265D01*
X007678Y001311D01*
X007762Y001395D01*
X007807Y001504D01*
X007807Y001623D01*
X007762Y001733D01*
X007747Y001747D01*
X007747Y002286D01*
X007762Y002300D01*
X007807Y002410D01*
X007807Y002529D01*
X007762Y002638D01*
X007678Y002722D01*
X007568Y002768D01*
X007449Y002768D01*
X007340Y002722D01*
X007256Y002638D01*
X007210Y002529D01*
X007210Y002410D01*
X007256Y002300D01*
X007270Y002286D01*
X007270Y001747D01*
X007256Y001733D01*
X007210Y001623D01*
X007210Y001504D01*
X007256Y001395D01*
X007210Y001532D02*
X003103Y001532D01*
X003126Y001690D02*
X007238Y001690D01*
X007270Y001849D02*
X001880Y001849D01*
X001880Y002007D02*
X001720Y002007D01*
X001720Y002166D02*
X001880Y002166D01*
X001880Y002324D02*
X001720Y002324D01*
X001720Y002483D02*
X001880Y002483D01*
X001880Y002641D02*
X001720Y002641D01*
X001720Y002800D02*
X001880Y002800D01*
X001880Y002958D02*
X001720Y002958D01*
X001145Y002958D02*
X000602Y002958D01*
X000602Y002800D02*
X000921Y002800D01*
X000770Y002641D02*
X000602Y002641D01*
X000602Y002483D02*
X000657Y002483D01*
X002455Y002958D02*
X004651Y002958D01*
X004709Y002800D02*
X002679Y002800D01*
X002830Y002641D02*
X007258Y002641D01*
X007210Y002483D02*
X002943Y002483D01*
X003023Y002324D02*
X007246Y002324D01*
X007270Y002166D02*
X003079Y002166D01*
X003115Y002007D02*
X007270Y002007D01*
X007747Y002007D02*
X010508Y002007D01*
X010349Y002166D02*
X007747Y002166D01*
X007772Y002324D02*
X010191Y002324D01*
X010032Y002483D02*
X007807Y002483D01*
X007759Y002641D02*
X010026Y002641D01*
X010548Y002641D02*
X020754Y002641D01*
X020787Y002483D02*
X010707Y002483D01*
X010503Y002800D02*
X011599Y002800D01*
X011541Y002958D02*
X010503Y002958D01*
X010503Y003117D02*
X011572Y003117D01*
X011601Y003275D02*
X010503Y003275D01*
X010026Y003275D02*
X009539Y003275D01*
X009578Y003117D02*
X010026Y003117D01*
X010026Y002958D02*
X009578Y002958D01*
X009578Y002800D02*
X010026Y002800D01*
X009062Y003318D02*
X008947Y003318D01*
X008887Y003258D01*
X008826Y003318D01*
X008712Y003318D01*
X008712Y003329D01*
X008746Y003363D01*
X008791Y003473D01*
X008791Y003592D01*
X008775Y003434D02*
X008998Y003434D01*
X008982Y003473D02*
X009027Y003363D01*
X009062Y003329D01*
X009062Y003318D01*
X008904Y003275D02*
X008869Y003275D01*
X008982Y003473D02*
X008982Y003592D01*
X009077Y003751D02*
X008697Y003751D01*
X007846Y003909D02*
X010026Y003909D01*
X010026Y003751D02*
X009484Y003751D01*
X010503Y003751D02*
X011601Y003751D01*
X011601Y003909D02*
X010503Y003909D01*
X010503Y003592D02*
X011601Y003592D01*
X011601Y003434D02*
X010503Y003434D01*
X012078Y003434D02*
X014790Y003434D01*
X014751Y003473D02*
X014887Y003336D01*
X014887Y003315D01*
X014933Y003206D01*
X015017Y003122D01*
X015126Y003076D01*
X015245Y003076D01*
X015355Y003122D01*
X015439Y003206D01*
X015484Y003315D01*
X015484Y003434D01*
X015439Y003544D01*
X015355Y003628D01*
X015245Y003673D01*
X015227Y003673D01*
X015227Y005160D01*
X015242Y005174D01*
X015287Y005284D01*
X015287Y005403D01*
X015242Y005512D01*
X015158Y005596D01*
X015048Y005642D01*
X014930Y005642D01*
X014820Y005596D01*
X014736Y005512D01*
X014691Y005403D01*
X014691Y005284D01*
X014736Y005174D01*
X014751Y005160D01*
X014751Y003473D01*
X014751Y003592D02*
X012912Y003592D01*
X013004Y003751D02*
X014751Y003751D01*
X014751Y003909D02*
X013003Y003909D01*
X013003Y004068D02*
X013535Y004068D01*
X013687Y004068D02*
X014751Y004068D01*
X014751Y004226D02*
X013879Y004226D01*
X013974Y004385D02*
X014751Y004385D01*
X014751Y004543D02*
X014003Y004543D01*
X014003Y004702D02*
X014751Y004702D01*
X014751Y004860D02*
X014003Y004860D01*
X014003Y005019D02*
X014751Y005019D01*
X014735Y005177D02*
X014003Y005177D01*
X014003Y005336D02*
X014691Y005336D01*
X014728Y005494D02*
X014003Y005494D01*
X014003Y005653D02*
X016339Y005653D01*
X016339Y005494D02*
X015250Y005494D01*
X015287Y005336D02*
X016339Y005336D01*
X016339Y005180D02*
X016459Y005060D01*
X017259Y005060D01*
X017379Y005180D01*
X017379Y005349D01*
X017379Y006518D01*
X017379Y006688D01*
X017259Y006808D01*
X016459Y006808D01*
X016339Y006688D01*
X016339Y005180D01*
X016342Y005177D02*
X015243Y005177D01*
X015227Y005019D02*
X017672Y005019D01*
X017853Y004860D02*
X015227Y004860D01*
X015227Y004702D02*
X019140Y004702D01*
X019287Y004860D02*
X018030Y004860D01*
X018212Y005019D02*
X019445Y005019D01*
X019961Y004860D02*
X019993Y004860D01*
X020140Y004702D02*
X019803Y004702D01*
X019644Y004543D02*
X021581Y004543D01*
X021581Y004385D02*
X019617Y004385D01*
X020030Y004226D02*
X020066Y004226D01*
X020066Y004342D02*
X020066Y003984D01*
X020445Y003984D01*
X020445Y004186D01*
X020432Y004232D01*
X020409Y004273D01*
X020375Y004306D01*
X020334Y004330D01*
X020288Y004342D01*
X020066Y004342D01*
X020434Y004226D02*
X020765Y004226D01*
X020754Y004068D02*
X020445Y004068D01*
X020066Y004068D02*
X020030Y004068D01*
X020030Y003909D02*
X020066Y003909D01*
X020066Y003751D02*
X020030Y003751D01*
X020030Y003592D02*
X020066Y003592D01*
X020302Y003592D02*
X020897Y003592D01*
X020754Y003751D02*
X020445Y003751D01*
X020445Y003909D02*
X020754Y003909D01*
X021132Y003909D02*
X021169Y003909D01*
X021169Y003751D02*
X021132Y003751D01*
X021132Y003592D02*
X021169Y003592D01*
X021404Y003592D02*
X021581Y003592D01*
X021581Y003434D02*
X015484Y003434D01*
X015391Y003592D02*
X019795Y003592D01*
X019022Y003751D02*
X015227Y003751D01*
X015227Y003909D02*
X019022Y003909D01*
X019022Y004068D02*
X015227Y004068D01*
X015227Y004226D02*
X019028Y004226D01*
X019140Y004385D02*
X015227Y004385D01*
X015227Y004543D02*
X019140Y004543D01*
X021019Y004702D02*
X021557Y004702D01*
X021411Y004860D02*
X021166Y004860D01*
X021231Y005019D02*
X021345Y005019D01*
X021316Y005177D02*
X021261Y005177D01*
X021261Y005336D02*
X021316Y005336D01*
X021371Y005494D02*
X021206Y005494D01*
X021232Y005653D02*
X021116Y005653D01*
X021074Y005811D02*
X020946Y005811D01*
X020459Y005970D02*
X018180Y005970D01*
X018180Y006128D02*
X020459Y006128D01*
X020459Y006287D02*
X018180Y006287D01*
X018200Y006445D02*
X019615Y006445D01*
X019612Y006604D02*
X018200Y006604D01*
X018200Y006762D02*
X019618Y006762D01*
X019655Y006921D02*
X018197Y006921D01*
X018200Y007079D02*
X019652Y007079D01*
X019652Y007238D02*
X018200Y007238D01*
X018173Y007396D02*
X019679Y007396D01*
X019652Y007555D02*
X018200Y007555D01*
X018200Y007713D02*
X019652Y007713D01*
X019704Y007872D02*
X018148Y007872D01*
X018200Y008030D02*
X019652Y008030D01*
X019652Y008189D02*
X018200Y008189D01*
X018128Y008347D02*
X019724Y008347D01*
X019652Y008506D02*
X018200Y008506D01*
X018200Y008664D02*
X019652Y008664D01*
X019699Y008823D02*
X018153Y008823D01*
X018200Y008981D02*
X019282Y008981D01*
X019123Y009140D02*
X018994Y009140D01*
X019028Y009298D02*
X019081Y009298D01*
X019081Y009457D02*
X018975Y009457D01*
X018483Y009457D02*
X018200Y009457D01*
X018177Y009298D02*
X018431Y009298D01*
X018464Y009140D02*
X018200Y009140D01*
X017495Y008823D02*
X016975Y008823D01*
X016816Y008664D02*
X017447Y008664D01*
X017447Y008506D02*
X016664Y008506D01*
X016727Y008347D02*
X017519Y008347D01*
X017447Y008189D02*
X016703Y008189D01*
X016546Y008030D02*
X017447Y008030D01*
X017499Y007872D02*
X016546Y007872D01*
X016546Y007713D02*
X017447Y007713D01*
X017447Y007555D02*
X016664Y007555D01*
X016664Y007396D02*
X017474Y007396D01*
X017447Y007238D02*
X016664Y007238D01*
X016664Y007079D02*
X017447Y007079D01*
X017450Y006921D02*
X014003Y006921D01*
X014003Y006762D02*
X016413Y006762D01*
X016339Y006604D02*
X014003Y006604D01*
X014003Y006445D02*
X016339Y006445D01*
X016339Y006287D02*
X014003Y006287D01*
X014003Y006128D02*
X016339Y006128D01*
X016339Y005970D02*
X014003Y005970D01*
X014003Y005811D02*
X016339Y005811D01*
X017379Y005811D02*
X017703Y005811D01*
X017703Y005970D02*
X017379Y005970D01*
X017379Y006128D02*
X017703Y006128D01*
X017703Y006287D02*
X017379Y006287D01*
X017379Y006445D02*
X017447Y006445D01*
X017447Y006604D02*
X017379Y006604D01*
X017447Y006762D02*
X017305Y006762D01*
X015657Y007079D02*
X015620Y007079D01*
X015620Y006935D02*
X015620Y007293D01*
X015242Y007293D01*
X015242Y007091D01*
X015254Y007045D01*
X015278Y007004D01*
X015312Y006971D01*
X015353Y006947D01*
X015398Y006935D01*
X015620Y006935D01*
X015245Y007079D02*
X014003Y007079D01*
X014003Y007238D02*
X015242Y007238D01*
X015242Y007330D02*
X015620Y007330D01*
X015620Y007689D01*
X015398Y007689D01*
X015353Y007676D01*
X015312Y007653D01*
X015278Y007619D01*
X015254Y007578D01*
X015242Y007532D01*
X015242Y007330D01*
X015242Y007396D02*
X014003Y007396D01*
X014003Y007555D02*
X015248Y007555D01*
X015620Y007555D02*
X015657Y007555D01*
X015657Y007396D02*
X015620Y007396D01*
X015620Y007238D02*
X015657Y007238D01*
X016069Y007713D02*
X014107Y007713D01*
X014205Y007872D02*
X016069Y007872D01*
X016069Y008030D02*
X014273Y008030D01*
X014431Y008189D02*
X015332Y008189D01*
X015282Y008347D02*
X014590Y008347D01*
X014748Y008506D02*
X015282Y008506D01*
X015282Y008664D02*
X014907Y008664D01*
X015065Y008823D02*
X015357Y008823D01*
X015400Y008981D02*
X015224Y008981D01*
X015451Y009140D02*
X015495Y009140D01*
X015484Y009298D02*
X015654Y009298D01*
X014866Y009298D02*
X014138Y009298D01*
X014245Y009140D02*
X014708Y009140D01*
X014549Y008981D02*
X013785Y008981D01*
X013745Y008981D02*
X012785Y008981D01*
X012745Y008981D02*
X012205Y008981D01*
X012205Y009140D02*
X012285Y009140D01*
X012391Y009298D02*
X012082Y009298D01*
X011447Y009298D02*
X011210Y009298D01*
X011205Y009140D02*
X011325Y009140D01*
X011325Y008981D02*
X011205Y008981D01*
X011205Y008823D02*
X011257Y008823D01*
X011099Y008664D02*
X011058Y008664D01*
X009915Y008506D02*
X008646Y008506D01*
X009033Y008347D02*
X009496Y008347D01*
X009338Y008189D02*
X009191Y008189D01*
X009205Y008030D02*
X009325Y008030D01*
X009325Y007872D02*
X009255Y007872D01*
X009413Y007713D02*
X009422Y007713D01*
X009572Y007555D02*
X009581Y007555D01*
X009730Y007396D02*
X010026Y007396D01*
X010026Y007238D02*
X009889Y007238D01*
X009948Y007555D02*
X010026Y007555D01*
X010503Y007555D02*
X010581Y007555D01*
X010503Y007396D02*
X011010Y007396D01*
X011010Y007238D02*
X010503Y007238D01*
X010638Y007079D02*
X011144Y007079D01*
X011303Y006921D02*
X010796Y006921D01*
X010955Y006762D02*
X011461Y006762D01*
X011601Y006604D02*
X011113Y006604D01*
X011272Y006445D02*
X011601Y006445D01*
X011601Y006287D02*
X011290Y006287D01*
X011290Y006128D02*
X011601Y006128D01*
X011601Y005970D02*
X011290Y005970D01*
X011290Y005811D02*
X011601Y005811D01*
X013003Y005811D02*
X013526Y005811D01*
X013526Y005970D02*
X013003Y005970D01*
X013003Y006128D02*
X013526Y006128D01*
X013526Y006287D02*
X013003Y006287D01*
X013003Y006445D02*
X013526Y006445D01*
X013526Y006604D02*
X013003Y006604D01*
X013003Y006762D02*
X013526Y006762D01*
X013526Y006921D02*
X013003Y006921D01*
X013003Y007079D02*
X013526Y007079D01*
X013526Y007238D02*
X013003Y007238D01*
X013003Y007396D02*
X013526Y007396D01*
X013526Y007555D02*
X013003Y007555D01*
X013107Y007713D02*
X013422Y007713D01*
X013325Y007872D02*
X013205Y007872D01*
X013205Y008030D02*
X013325Y008030D01*
X013338Y008189D02*
X013191Y008189D01*
X014115Y008664D02*
X014232Y008664D01*
X014245Y008823D02*
X014391Y008823D01*
X013285Y009140D02*
X013245Y009140D01*
X013138Y009298D02*
X013391Y009298D01*
X012785Y008823D02*
X012745Y008823D01*
X011010Y007555D02*
X010948Y007555D01*
X009471Y008664D02*
X009058Y008664D01*
X009205Y008823D02*
X009325Y008823D01*
X009325Y008981D02*
X009205Y008981D01*
X009205Y009140D02*
X009325Y009140D01*
X009447Y009298D02*
X009082Y009298D01*
X008447Y009298D02*
X008082Y009298D01*
X008205Y009140D02*
X008325Y009140D01*
X008325Y008981D02*
X008205Y008981D01*
X008205Y008823D02*
X008289Y008823D01*
X008130Y008664D02*
X008058Y008664D01*
X008058Y008506D02*
X007614Y008506D01*
X007496Y008347D02*
X007456Y008347D01*
X008033Y008347D02*
X008058Y008347D01*
X007338Y008189D02*
X007191Y008189D01*
X007205Y008030D02*
X007325Y008030D01*
X007306Y007872D02*
X007205Y007872D01*
X007148Y007713D02*
X007107Y007713D01*
X006325Y008030D02*
X002737Y008030D01*
X003485Y008189D02*
X006338Y008189D01*
X007205Y008823D02*
X007257Y008823D01*
X007205Y008981D02*
X007325Y008981D01*
X007325Y009140D02*
X007205Y009140D01*
X007082Y009298D02*
X007447Y009298D01*
X004680Y008347D02*
X003554Y008347D01*
X003554Y008506D02*
X004521Y008506D01*
X003589Y008664D02*
X003554Y008664D01*
X003589Y008823D02*
X003499Y008823D01*
X003529Y008981D02*
X003589Y008981D01*
X003589Y009140D02*
X003554Y009140D01*
X003554Y009298D02*
X003727Y009298D01*
X003727Y009457D02*
X003554Y009457D01*
X003687Y009615D02*
X002950Y009615D01*
X003004Y009774D02*
X003529Y009774D01*
X003370Y009932D02*
X002971Y009932D01*
X002350Y009457D02*
X002040Y009457D01*
X002198Y009298D02*
X002508Y009298D01*
X002357Y009140D02*
X002667Y009140D01*
X002748Y008981D02*
X002515Y008981D01*
X002674Y008823D02*
X002778Y008823D01*
X002316Y008506D02*
X001940Y008506D01*
X001940Y008664D02*
X002158Y008664D01*
X001999Y008823D02*
X001940Y008823D01*
X001266Y008823D02*
X001178Y008823D01*
X001172Y008981D02*
X001266Y008981D01*
X001266Y009140D02*
X001172Y009140D01*
X001172Y009298D02*
X001266Y009298D01*
X001266Y009457D02*
X001172Y009457D01*
X001940Y008347D02*
X002380Y008347D01*
X012078Y004543D02*
X012526Y004543D01*
X012526Y004385D02*
X012078Y004385D01*
X012078Y004226D02*
X012526Y004226D01*
X012526Y004068D02*
X012078Y004068D01*
X012078Y003909D02*
X012424Y003909D01*
X012407Y003751D02*
X012078Y003751D01*
X012078Y003592D02*
X012499Y003592D01*
X012078Y003275D02*
X014904Y003275D01*
X015029Y003117D02*
X012106Y003117D01*
X012138Y002958D02*
X020754Y002958D01*
X020815Y003117D02*
X015342Y003117D01*
X015468Y003275D02*
X021581Y003275D01*
X021541Y003117D02*
X021486Y003117D01*
X021169Y003117D02*
X021132Y003117D01*
X021132Y002958D02*
X021169Y002958D01*
X021132Y002800D02*
X012080Y002800D01*
X013003Y004226D02*
X013343Y004226D01*
X013313Y004385D02*
X013003Y004385D01*
X013003Y004543D02*
X013373Y004543D01*
X013526Y004702D02*
X013003Y004702D01*
X013003Y004860D02*
X013526Y004860D01*
X013526Y005019D02*
X013003Y005019D01*
X013003Y005177D02*
X013526Y005177D01*
X013526Y005336D02*
X013003Y005336D01*
X013003Y005494D02*
X013526Y005494D01*
X013526Y005653D02*
X013003Y005653D01*
X017379Y005653D02*
X017703Y005653D01*
X017703Y005494D02*
X017379Y005494D01*
X017379Y005336D02*
X017703Y005336D01*
X017643Y005177D02*
X017376Y005177D01*
X018180Y005336D02*
X019762Y005336D01*
X019604Y005177D02*
X018240Y005177D01*
X018180Y005494D02*
X019953Y005494D01*
X020043Y005653D02*
X018180Y005653D01*
X018180Y005811D02*
X020213Y005811D01*
X021330Y006229D02*
X021330Y006368D01*
X021349Y006323D01*
X021396Y006241D01*
X021453Y006166D01*
X021520Y006099D01*
X021595Y006041D01*
X021677Y005994D01*
X021764Y005958D01*
X021856Y005934D01*
X021929Y005924D01*
X021929Y006575D01*
X022064Y006575D01*
X022064Y005924D01*
X022138Y005934D01*
X022229Y005958D01*
X022317Y005994D01*
X022398Y006041D01*
X022473Y006099D01*
X022540Y006166D01*
X022598Y006241D01*
X022645Y006323D01*
X022681Y006410D01*
X022706Y006501D01*
X022716Y006575D01*
X022064Y006575D01*
X022064Y006710D01*
X022716Y006710D01*
X022706Y006784D01*
X022681Y006875D01*
X022645Y006962D01*
X022598Y007044D01*
X022540Y007119D01*
X022473Y007186D01*
X022398Y007244D01*
X022352Y007270D01*
X022962Y007270D01*
X023159Y007467D01*
X023298Y007607D01*
X023298Y007723D01*
X023315Y007723D01*
X023397Y007805D01*
X023397Y008393D01*
X023315Y008475D01*
X022884Y008475D01*
X022802Y008393D01*
X022802Y007805D01*
X022812Y007795D01*
X022764Y007747D01*
X021586Y007747D01*
X021586Y007762D01*
X021622Y007762D01*
X021682Y007822D01*
X021742Y007762D01*
X022291Y007762D01*
X022373Y007844D01*
X022373Y008354D01*
X022291Y008436D01*
X022264Y008436D01*
X022270Y008442D01*
X022315Y008552D01*
X022315Y008670D01*
X022283Y008747D01*
X022291Y008747D01*
X022373Y008829D01*
X022373Y008845D01*
X022802Y008845D01*
X022802Y008789D01*
X022884Y008707D01*
X023315Y008707D01*
X023397Y008789D01*
X023397Y009378D01*
X023339Y009436D01*
X023568Y009436D01*
X023510Y009378D01*
X023510Y008789D01*
X023592Y008707D01*
X024023Y008707D01*
X024105Y008789D01*
X024105Y008845D01*
X024534Y008845D01*
X024534Y008829D01*
X024616Y008747D01*
X025165Y008747D01*
X025225Y008807D01*
X025285Y008747D01*
X025834Y008747D01*
X025916Y008829D01*
X025916Y009338D01*
X025834Y009420D01*
X025798Y009420D01*
X025798Y009731D01*
X025834Y009731D01*
X025916Y009813D01*
X025916Y010323D01*
X025857Y010382D01*
X025857Y010560D01*
X025718Y010700D01*
X025521Y010897D01*
X024536Y010897D01*
X024396Y010757D01*
X024142Y010503D01*
X024087Y010503D01*
X024145Y010561D01*
X024145Y010619D01*
X024283Y010756D01*
X024537Y011010D01*
X026515Y011010D01*
X026604Y011003D01*
X026612Y011010D01*
X026623Y011010D01*
X026686Y011073D01*
X027399Y011680D01*
X029575Y011680D01*
X029681Y011573D01*
X029443Y011335D01*
X029443Y010926D01*
X029733Y010636D01*
X030143Y010636D01*
X030410Y010903D01*
X030716Y010596D01*
X030900Y010596D01*
X030900Y011093D01*
X030976Y011093D01*
X030976Y011169D01*
X030900Y011169D01*
X030900Y011665D01*
X030716Y011665D01*
X030410Y011358D01*
X030176Y011591D01*
X030176Y011753D01*
X029912Y012017D01*
X029876Y012053D01*
X031738Y012053D01*
X031738Y010112D01*
X031269Y010582D01*
X028277Y010582D01*
X028182Y010676D01*
X028432Y010926D01*
X028432Y011335D01*
X028143Y011625D01*
X027733Y011625D01*
X027443Y011335D01*
X027443Y010926D01*
X027664Y010705D01*
X027664Y010520D01*
X027940Y010245D01*
X028079Y010105D01*
X031071Y010105D01*
X031086Y010090D01*
X030988Y010090D01*
X030988Y009594D01*
X030911Y009594D01*
X030911Y010090D01*
X030728Y010090D01*
X030421Y009783D01*
X030154Y010050D01*
X029745Y010050D01*
X029455Y009761D01*
X029455Y009351D01*
X029745Y009062D01*
X030154Y009062D01*
X030421Y009329D01*
X030728Y009022D01*
X030911Y009022D01*
X030911Y009518D01*
X030988Y009518D01*
X030988Y009022D01*
X031171Y009022D01*
X031404Y009255D01*
X031404Y003867D01*
X031347Y003810D01*
X029260Y003810D01*
X027882Y002432D01*
X021458Y002432D01*
X021477Y002443D01*
X021511Y002477D01*
X021513Y002480D01*
X021545Y002447D01*
X022094Y002447D01*
X022176Y002529D01*
X022176Y003039D01*
X022094Y003121D01*
X022058Y003121D01*
X022058Y003629D01*
X022094Y003629D01*
X022176Y003711D01*
X022176Y004220D01*
X022094Y004302D01*
X022058Y004302D01*
X022058Y004544D01*
X022132Y004544D01*
X022383Y004648D01*
X022574Y004839D01*
X022678Y005090D01*
X022678Y005361D01*
X022574Y005611D01*
X022383Y005803D01*
X022132Y005907D01*
X021861Y005907D01*
X021714Y005845D01*
X021330Y006229D01*
X021330Y006287D02*
X021369Y006287D01*
X021431Y006128D02*
X021491Y006128D01*
X021590Y005970D02*
X021737Y005970D01*
X021929Y005970D02*
X022064Y005970D01*
X022064Y006128D02*
X021929Y006128D01*
X021929Y006287D02*
X022064Y006287D01*
X022503Y006128D02*
X025197Y006128D01*
X025197Y005970D02*
X022257Y005970D01*
X022363Y005811D02*
X025197Y005811D01*
X025197Y005653D02*
X022533Y005653D01*
X022623Y005494D02*
X025197Y005494D01*
X025197Y005336D02*
X022678Y005336D01*
X022678Y005177D02*
X025200Y005177D01*
X025197Y005180D02*
X025317Y005060D01*
X026117Y005060D01*
X026237Y005180D01*
X026237Y005349D01*
X026237Y006518D01*
X026237Y006688D01*
X026117Y006808D01*
X025317Y006808D01*
X025197Y006688D01*
X025197Y005180D01*
X026235Y005177D02*
X026640Y005177D01*
X026640Y005336D02*
X026237Y005336D01*
X026237Y005494D02*
X026640Y005494D01*
X026640Y005653D02*
X026237Y005653D01*
X026237Y005811D02*
X026640Y005811D01*
X026640Y005970D02*
X026237Y005970D01*
X026237Y006128D02*
X026640Y006128D01*
X026640Y006287D02*
X026237Y006287D01*
X026237Y006445D02*
X026640Y006445D01*
X026640Y006604D02*
X026237Y006604D01*
X026163Y006762D02*
X026740Y006762D01*
X026640Y006663D02*
X026640Y003159D01*
X026564Y003083D01*
X026544Y003083D01*
X026434Y003037D01*
X026350Y002953D01*
X026305Y002844D01*
X026305Y002725D01*
X026350Y002615D01*
X026434Y002531D01*
X026544Y002486D01*
X026663Y002486D01*
X026772Y002531D01*
X026856Y002615D01*
X026902Y002725D01*
X026902Y002745D01*
X027117Y002961D01*
X027117Y006465D01*
X027568Y006916D01*
X028315Y006916D01*
X028364Y006867D01*
X028326Y006889D01*
X028280Y006901D01*
X028059Y006901D01*
X028059Y006543D01*
X028022Y006543D01*
X028022Y006901D01*
X027800Y006901D01*
X027754Y006889D01*
X027713Y006865D01*
X027680Y006832D01*
X027656Y006791D01*
X027644Y006745D01*
X027644Y006543D01*
X028022Y006543D01*
X028022Y006506D01*
X027644Y006506D01*
X027644Y006304D01*
X027656Y006258D01*
X027680Y006217D01*
X027713Y006184D01*
X027733Y006172D01*
X027489Y006172D01*
X027349Y006033D01*
X027152Y005836D01*
X027152Y003670D01*
X027292Y003530D01*
X027489Y003333D01*
X027601Y003333D01*
X027615Y003319D01*
X027725Y003273D01*
X027844Y003273D01*
X027953Y003319D01*
X028037Y003403D01*
X028083Y003512D01*
X028083Y003631D01*
X028037Y003741D01*
X027953Y003825D01*
X027844Y003870D01*
X027725Y003870D01*
X027655Y003841D01*
X027629Y003867D01*
X027629Y005638D01*
X027686Y005695D01*
X027733Y005695D01*
X027713Y005684D01*
X027680Y005651D01*
X027656Y005610D01*
X027644Y005564D01*
X027644Y005362D01*
X028022Y005362D01*
X028022Y005325D01*
X028059Y005325D01*
X028059Y004966D01*
X028280Y004966D01*
X028326Y004979D01*
X028367Y005002D01*
X028401Y005036D01*
X028402Y005039D01*
X028435Y005006D01*
X028984Y005006D01*
X029066Y005088D01*
X029066Y005302D01*
X029578Y005302D01*
X029779Y005100D01*
X030144Y005100D01*
X030401Y005358D01*
X030401Y005722D01*
X030144Y005980D01*
X029779Y005980D01*
X029578Y005779D01*
X029064Y005779D01*
X028670Y006172D01*
X028348Y006172D01*
X028367Y006184D01*
X028401Y006217D01*
X028402Y006220D01*
X028435Y006188D01*
X028984Y006188D01*
X029066Y006270D01*
X029066Y006286D01*
X029774Y006286D01*
X029779Y006281D01*
X030144Y006281D01*
X030401Y006539D01*
X030401Y006904D01*
X030144Y007161D01*
X029779Y007161D01*
X029521Y006904D01*
X029521Y006763D01*
X029066Y006763D01*
X029066Y006779D01*
X028984Y006861D01*
X028928Y006861D01*
X028928Y006977D01*
X028789Y007117D01*
X028513Y007393D01*
X027371Y007393D01*
X027231Y007253D01*
X026640Y006663D01*
X027117Y006445D02*
X027644Y006445D01*
X027644Y006604D02*
X027256Y006604D01*
X027414Y006762D02*
X027648Y006762D01*
X028022Y006762D02*
X028059Y006762D01*
X028059Y006604D02*
X028022Y006604D01*
X027648Y006287D02*
X027117Y006287D01*
X027117Y006128D02*
X027444Y006128D01*
X027286Y005970D02*
X027117Y005970D01*
X027117Y005811D02*
X027152Y005811D01*
X027152Y005653D02*
X027117Y005653D01*
X027117Y005494D02*
X027152Y005494D01*
X027152Y005336D02*
X027117Y005336D01*
X027117Y005177D02*
X027152Y005177D01*
X027152Y005019D02*
X027117Y005019D01*
X027117Y004860D02*
X027152Y004860D01*
X027152Y004702D02*
X027117Y004702D01*
X026640Y004702D02*
X022437Y004702D01*
X022583Y004860D02*
X026640Y004860D01*
X026640Y005019D02*
X022649Y005019D01*
X022058Y004543D02*
X026640Y004543D01*
X026640Y004385D02*
X022058Y004385D01*
X022170Y004226D02*
X026640Y004226D01*
X026640Y004068D02*
X022176Y004068D01*
X022176Y003909D02*
X026640Y003909D01*
X026640Y003751D02*
X022176Y003751D01*
X022058Y003592D02*
X026640Y003592D01*
X026640Y003434D02*
X022058Y003434D01*
X022058Y003275D02*
X026640Y003275D01*
X026598Y003117D02*
X022099Y003117D01*
X022176Y002958D02*
X026355Y002958D01*
X026305Y002800D02*
X022176Y002800D01*
X022176Y002641D02*
X026339Y002641D01*
X026867Y002641D02*
X028091Y002641D01*
X027933Y002483D02*
X022129Y002483D01*
X022162Y001849D02*
X030460Y001849D01*
X030460Y002007D02*
X030620Y002007D01*
X030620Y002166D02*
X030460Y002166D01*
X030460Y002324D02*
X030620Y002324D01*
X030620Y002483D02*
X030460Y002483D01*
X030460Y002641D02*
X030620Y002641D01*
X030620Y002800D02*
X030460Y002800D01*
X030460Y002958D02*
X030620Y002958D01*
X030620Y003117D02*
X030460Y003117D01*
X030342Y003117D02*
X029241Y003117D01*
X029400Y003275D02*
X031738Y003275D01*
X031738Y003117D02*
X030739Y003117D01*
X031195Y002958D02*
X031738Y002958D01*
X031738Y002800D02*
X031419Y002800D01*
X031570Y002641D02*
X031738Y002641D01*
X031738Y002483D02*
X031683Y002483D01*
X029885Y002958D02*
X029083Y002958D01*
X028924Y002800D02*
X029662Y002800D01*
X029510Y002641D02*
X028766Y002641D01*
X028607Y002483D02*
X029397Y002483D01*
X029318Y002324D02*
X028449Y002324D01*
X028290Y002166D02*
X029261Y002166D01*
X029225Y002007D02*
X028132Y002007D01*
X029215Y001690D02*
X022162Y001690D01*
X022162Y001532D02*
X029237Y001532D01*
X029280Y001373D02*
X022162Y001373D01*
X022162Y001215D02*
X029345Y001215D01*
X029438Y001056D02*
X022114Y001056D01*
X020414Y001373D02*
X007740Y001373D01*
X007807Y001532D02*
X020414Y001532D01*
X020414Y001690D02*
X007779Y001690D01*
X007747Y001849D02*
X020414Y001849D01*
X021132Y004068D02*
X021169Y004068D01*
X021169Y004226D02*
X021132Y004226D01*
X022624Y006287D02*
X025197Y006287D01*
X025197Y006445D02*
X022691Y006445D01*
X022709Y006762D02*
X025271Y006762D01*
X025197Y006604D02*
X022064Y006604D01*
X022064Y006445D02*
X021929Y006445D01*
X022662Y006921D02*
X026898Y006921D01*
X027057Y007079D02*
X022571Y007079D01*
X022406Y007238D02*
X026675Y007238D01*
X026631Y007256D02*
X026741Y007210D01*
X026859Y007210D01*
X026969Y007256D01*
X027053Y007340D01*
X027098Y007449D01*
X027098Y007568D01*
X027053Y007678D01*
X027038Y007692D01*
X027038Y007762D01*
X027134Y007762D01*
X027194Y007822D01*
X027254Y007762D01*
X027803Y007762D01*
X027885Y007844D01*
X027885Y008354D01*
X027806Y008433D01*
X027806Y008629D01*
X027823Y008629D01*
X027905Y008711D01*
X027905Y009378D01*
X027823Y009460D01*
X027313Y009460D01*
X027231Y009378D01*
X027231Y008711D01*
X027313Y008629D01*
X027329Y008629D01*
X027329Y008436D01*
X027254Y008436D01*
X027194Y008376D01*
X027134Y008436D01*
X026585Y008436D01*
X026503Y008354D01*
X026503Y007844D01*
X026562Y007785D01*
X026562Y007692D01*
X026547Y007678D01*
X026502Y007568D01*
X026502Y007449D01*
X026547Y007340D01*
X026631Y007256D01*
X026524Y007396D02*
X025529Y007396D01*
X025542Y007410D02*
X025798Y007666D01*
X025798Y007762D01*
X025834Y007762D01*
X025916Y007844D01*
X025916Y008354D01*
X025834Y008436D01*
X025285Y008436D01*
X025253Y008404D01*
X025251Y008407D01*
X025218Y008440D01*
X025177Y008464D01*
X025131Y008476D01*
X024909Y008476D01*
X024909Y008118D01*
X024872Y008118D01*
X024872Y008476D01*
X024650Y008476D01*
X024605Y008464D01*
X024563Y008440D01*
X024530Y008407D01*
X024506Y008366D01*
X024494Y008320D01*
X024494Y008118D01*
X024872Y008118D01*
X024872Y008081D01*
X024494Y008081D01*
X024494Y007879D01*
X024506Y007833D01*
X024530Y007792D01*
X024563Y007758D01*
X024583Y007747D01*
X024103Y007747D01*
X024075Y007775D01*
X024105Y007805D01*
X024105Y008393D01*
X024023Y008475D01*
X023592Y008475D01*
X023510Y008393D01*
X023510Y007805D01*
X023569Y007746D01*
X023569Y007607D01*
X023709Y007467D01*
X023906Y007270D01*
X025403Y007270D01*
X025542Y007410D01*
X025687Y007555D02*
X026502Y007555D01*
X026562Y007713D02*
X025798Y007713D01*
X025916Y007872D02*
X026503Y007872D01*
X026503Y008030D02*
X025916Y008030D01*
X025916Y008189D02*
X026503Y008189D01*
X026503Y008347D02*
X025916Y008347D01*
X026475Y008664D02*
X022315Y008664D01*
X022296Y008506D02*
X027329Y008506D01*
X027277Y008664D02*
X027164Y008664D01*
X027161Y008658D02*
X027184Y008699D01*
X027197Y008745D01*
X027197Y009026D01*
X026838Y009026D01*
X026838Y009063D01*
X026801Y009063D01*
X026801Y009500D01*
X026599Y009500D01*
X026553Y009487D01*
X026512Y009464D01*
X026479Y009430D01*
X026455Y009389D01*
X026443Y009343D01*
X026443Y009063D01*
X026801Y009063D01*
X026801Y009026D01*
X026443Y009026D01*
X026443Y008745D01*
X026455Y008699D01*
X026479Y008658D01*
X026512Y008624D01*
X026553Y008601D01*
X026599Y008589D01*
X026801Y008589D01*
X026801Y009026D01*
X026838Y009026D01*
X026838Y008589D01*
X027040Y008589D01*
X027086Y008601D01*
X027127Y008624D01*
X027161Y008658D01*
X027197Y008823D02*
X027231Y008823D01*
X027231Y008981D02*
X027197Y008981D01*
X027197Y009063D02*
X027197Y009343D01*
X027184Y009389D01*
X027161Y009430D01*
X027127Y009464D01*
X027086Y009487D01*
X027059Y009495D01*
X027272Y009495D01*
X027292Y009475D01*
X027843Y009475D01*
X027940Y009378D01*
X027940Y008197D01*
X028333Y007804D01*
X028473Y007664D01*
X029578Y007664D01*
X029779Y007462D01*
X030144Y007462D01*
X030401Y007720D01*
X030401Y008085D01*
X030144Y008342D01*
X029779Y008342D01*
X029578Y008141D01*
X028670Y008141D01*
X028416Y008395D01*
X028416Y009576D01*
X028277Y009716D01*
X028180Y009812D01*
X028040Y009952D01*
X027531Y009952D01*
X027531Y010244D01*
X027449Y010326D01*
X026939Y010326D01*
X026857Y010244D01*
X026857Y009577D01*
X026934Y009500D01*
X026838Y009500D01*
X026838Y009063D01*
X027197Y009063D01*
X027197Y009140D02*
X027231Y009140D01*
X027231Y009298D02*
X027197Y009298D01*
X027134Y009457D02*
X027310Y009457D01*
X026838Y009457D02*
X026801Y009457D01*
X026801Y009298D02*
X026838Y009298D01*
X026838Y009140D02*
X026801Y009140D01*
X026801Y008981D02*
X026838Y008981D01*
X026443Y008981D02*
X025916Y008981D01*
X025916Y009140D02*
X026443Y009140D01*
X026443Y009298D02*
X025916Y009298D01*
X025798Y009457D02*
X026505Y009457D01*
X026857Y009615D02*
X025798Y009615D01*
X025877Y009774D02*
X026857Y009774D01*
X026857Y009932D02*
X025916Y009932D01*
X025916Y010091D02*
X026857Y010091D01*
X026862Y010249D02*
X025916Y010249D01*
X025857Y010408D02*
X027777Y010408D01*
X027664Y010566D02*
X025851Y010566D01*
X025693Y010725D02*
X027645Y010725D01*
X027486Y010883D02*
X025534Y010883D01*
X024522Y010883D02*
X024409Y010883D01*
X024364Y010725D02*
X024251Y010725D01*
X024205Y010566D02*
X024145Y010566D01*
X026654Y011042D02*
X027443Y011042D01*
X027443Y011200D02*
X026835Y011200D01*
X027022Y011359D02*
X027467Y011359D01*
X027625Y011517D02*
X027208Y011517D01*
X027395Y011676D02*
X029579Y011676D01*
X029625Y011517D02*
X029251Y011517D01*
X029143Y011625D02*
X028733Y011625D01*
X028443Y011335D01*
X028443Y010926D01*
X028733Y010636D01*
X029143Y010636D01*
X029432Y010926D01*
X029432Y011335D01*
X029143Y011625D01*
X028625Y011517D02*
X028251Y011517D01*
X028409Y011359D02*
X028467Y011359D01*
X028443Y011200D02*
X028432Y011200D01*
X028432Y011042D02*
X028443Y011042D01*
X028486Y010883D02*
X028389Y010883D01*
X028231Y010725D02*
X028645Y010725D01*
X029231Y010725D02*
X029645Y010725D01*
X029486Y010883D02*
X029389Y010883D01*
X029432Y011042D02*
X029443Y011042D01*
X029432Y011200D02*
X029443Y011200D01*
X029467Y011359D02*
X029409Y011359D01*
X030176Y011676D02*
X031738Y011676D01*
X031738Y011834D02*
X030095Y011834D01*
X029937Y011993D02*
X031738Y011993D01*
X031159Y011665D02*
X030976Y011665D01*
X030976Y011169D01*
X031472Y011169D01*
X031472Y011352D01*
X031159Y011665D01*
X031307Y011517D02*
X031738Y011517D01*
X031738Y011359D02*
X031466Y011359D01*
X031472Y011200D02*
X031738Y011200D01*
X031738Y011042D02*
X031472Y011042D01*
X031472Y011093D02*
X030976Y011093D01*
X030976Y010596D01*
X031159Y010596D01*
X031472Y010909D01*
X031472Y011093D01*
X031446Y010883D02*
X031738Y010883D01*
X031738Y010725D02*
X031287Y010725D01*
X031285Y010566D02*
X031738Y010566D01*
X031738Y010408D02*
X031443Y010408D01*
X031602Y010249D02*
X031738Y010249D01*
X031086Y010091D02*
X027531Y010091D01*
X028060Y009932D02*
X028627Y009932D01*
X028745Y010050D02*
X028455Y009761D01*
X028455Y009351D01*
X028745Y009062D01*
X029154Y009062D01*
X029444Y009351D01*
X029444Y009761D01*
X029154Y010050D01*
X028745Y010050D01*
X028468Y009774D02*
X028219Y009774D01*
X028180Y009812D02*
X028180Y009812D01*
X028377Y009615D02*
X028455Y009615D01*
X028455Y009457D02*
X028416Y009457D01*
X028416Y009298D02*
X028508Y009298D01*
X028416Y009140D02*
X028667Y009140D01*
X028416Y008981D02*
X031404Y008981D01*
X031404Y009140D02*
X031289Y009140D01*
X030988Y009140D02*
X030911Y009140D01*
X030911Y009298D02*
X030988Y009298D01*
X030988Y009457D02*
X030911Y009457D01*
X030452Y009298D02*
X030391Y009298D01*
X030232Y009140D02*
X030610Y009140D01*
X031404Y008823D02*
X028416Y008823D01*
X028416Y008664D02*
X031404Y008664D01*
X031404Y008506D02*
X028416Y008506D01*
X028464Y008347D02*
X031404Y008347D01*
X031144Y008342D02*
X030779Y008342D01*
X030521Y008085D01*
X030521Y007720D01*
X030779Y007462D01*
X031144Y007462D01*
X031401Y007720D01*
X031401Y008085D01*
X031144Y008342D01*
X031297Y008189D02*
X031404Y008189D01*
X031401Y008030D02*
X031404Y008030D01*
X031401Y007872D02*
X031404Y007872D01*
X031394Y007713D02*
X031404Y007713D01*
X031404Y007555D02*
X031236Y007555D01*
X031404Y007396D02*
X027076Y007396D01*
X027098Y007555D02*
X029687Y007555D01*
X030236Y007555D02*
X030687Y007555D01*
X030528Y007713D02*
X030394Y007713D01*
X030401Y007872D02*
X030521Y007872D01*
X030521Y008030D02*
X030401Y008030D01*
X030297Y008189D02*
X030625Y008189D01*
X029625Y008189D02*
X028623Y008189D01*
X028265Y007872D02*
X027885Y007872D01*
X027885Y008030D02*
X028107Y008030D01*
X027948Y008189D02*
X027885Y008189D01*
X027885Y008347D02*
X027940Y008347D01*
X027940Y008506D02*
X027806Y008506D01*
X027858Y008664D02*
X027940Y008664D01*
X027940Y008823D02*
X027905Y008823D01*
X027905Y008981D02*
X027940Y008981D01*
X027940Y009140D02*
X027905Y009140D01*
X027905Y009298D02*
X027940Y009298D01*
X027861Y009457D02*
X027826Y009457D01*
X029232Y009140D02*
X029667Y009140D01*
X029508Y009298D02*
X029391Y009298D01*
X029444Y009457D02*
X029455Y009457D01*
X029444Y009615D02*
X029455Y009615D01*
X029468Y009774D02*
X029431Y009774D01*
X029273Y009932D02*
X029627Y009932D01*
X030273Y009932D02*
X030570Y009932D01*
X030911Y009932D02*
X030988Y009932D01*
X030988Y009774D02*
X030911Y009774D01*
X030911Y009615D02*
X030988Y009615D01*
X030976Y010725D02*
X030900Y010725D01*
X030588Y010725D02*
X030231Y010725D01*
X030389Y010883D02*
X030430Y010883D01*
X030900Y010883D02*
X030976Y010883D01*
X030976Y011042D02*
X030900Y011042D01*
X030900Y011200D02*
X030976Y011200D01*
X030976Y011359D02*
X030900Y011359D01*
X030410Y011359D02*
X030409Y011359D01*
X030251Y011517D02*
X030568Y011517D01*
X030900Y011517D02*
X030976Y011517D01*
X027935Y010249D02*
X027525Y010249D01*
X026838Y008823D02*
X026801Y008823D01*
X026801Y008664D02*
X026838Y008664D01*
X026443Y008823D02*
X025910Y008823D01*
X024909Y008347D02*
X024872Y008347D01*
X024501Y008347D02*
X024105Y008347D01*
X024105Y008189D02*
X024494Y008189D01*
X024494Y008030D02*
X024105Y008030D01*
X024105Y007872D02*
X024496Y007872D01*
X024872Y008189D02*
X024909Y008189D01*
X024540Y008823D02*
X024105Y008823D01*
X023510Y008823D02*
X023397Y008823D01*
X023397Y008981D02*
X023510Y008981D01*
X023510Y009140D02*
X023397Y009140D01*
X023397Y009298D02*
X023510Y009298D01*
X022802Y008823D02*
X022367Y008823D01*
X022373Y008347D02*
X022802Y008347D01*
X022802Y008189D02*
X022373Y008189D01*
X022373Y008030D02*
X022802Y008030D01*
X022802Y007872D02*
X022373Y007872D01*
X023246Y007555D02*
X023622Y007555D01*
X023780Y007396D02*
X023088Y007396D01*
X023298Y007713D02*
X023569Y007713D01*
X023510Y007872D02*
X023397Y007872D01*
X023397Y008030D02*
X023510Y008030D01*
X023510Y008189D02*
X023397Y008189D01*
X023397Y008347D02*
X023510Y008347D01*
X027038Y007713D02*
X028424Y007713D01*
X028668Y007238D02*
X031404Y007238D01*
X031404Y007079D02*
X031226Y007079D01*
X031144Y007161D02*
X030779Y007161D01*
X030521Y006904D01*
X030521Y006539D01*
X030779Y006281D01*
X031144Y006281D01*
X031401Y006539D01*
X031401Y006904D01*
X031144Y007161D01*
X031384Y006921D02*
X031404Y006921D01*
X031401Y006762D02*
X031404Y006762D01*
X031401Y006604D02*
X031404Y006604D01*
X031404Y006445D02*
X031307Y006445D01*
X031404Y006287D02*
X031149Y006287D01*
X031404Y006128D02*
X028715Y006128D01*
X028873Y005970D02*
X029769Y005970D01*
X029610Y005811D02*
X029032Y005811D01*
X028022Y005336D02*
X027629Y005336D01*
X027644Y005325D02*
X027644Y005123D01*
X027656Y005077D01*
X027680Y005036D01*
X027713Y005002D01*
X027754Y004979D01*
X027800Y004966D01*
X028022Y004966D01*
X028022Y005325D01*
X027644Y005325D01*
X027629Y005177D02*
X027644Y005177D01*
X028022Y005177D02*
X028059Y005177D01*
X028059Y005019D02*
X028022Y005019D01*
X027697Y005019D02*
X027629Y005019D01*
X027629Y004860D02*
X031404Y004860D01*
X031404Y004702D02*
X031241Y004702D01*
X031144Y004799D02*
X030779Y004799D01*
X030521Y004541D01*
X030521Y004177D01*
X030779Y003919D01*
X031144Y003919D01*
X031401Y004177D01*
X031401Y004541D01*
X031144Y004799D01*
X031404Y005019D02*
X028996Y005019D01*
X029066Y005177D02*
X029702Y005177D01*
X030221Y005177D02*
X030702Y005177D01*
X030779Y005100D02*
X030521Y005358D01*
X030521Y005722D01*
X030779Y005980D01*
X031144Y005980D01*
X031401Y005722D01*
X031401Y005358D01*
X031144Y005100D01*
X030779Y005100D01*
X031221Y005177D02*
X031404Y005177D01*
X031404Y005336D02*
X031379Y005336D01*
X031401Y005494D02*
X031404Y005494D01*
X031401Y005653D02*
X031404Y005653D01*
X031404Y005811D02*
X031313Y005811D01*
X031404Y005970D02*
X031154Y005970D01*
X030769Y005970D02*
X030154Y005970D01*
X030313Y005811D02*
X030610Y005811D01*
X030521Y005653D02*
X030401Y005653D01*
X030401Y005494D02*
X030521Y005494D01*
X030544Y005336D02*
X030379Y005336D01*
X030144Y004799D02*
X029779Y004799D01*
X029578Y004597D01*
X029066Y004597D01*
X029066Y004614D01*
X028984Y004696D01*
X028435Y004696D01*
X028402Y004663D01*
X028401Y004666D01*
X028367Y004700D01*
X028326Y004724D01*
X028280Y004736D01*
X028059Y004736D01*
X028059Y004377D01*
X028022Y004377D01*
X028022Y004341D01*
X027644Y004341D01*
X027644Y004139D01*
X027656Y004093D01*
X027680Y004052D01*
X027713Y004018D01*
X027754Y003994D01*
X027800Y003982D01*
X028022Y003982D01*
X028022Y004341D01*
X028059Y004341D01*
X028059Y003982D01*
X028280Y003982D01*
X028326Y003994D01*
X028367Y004018D01*
X028401Y004052D01*
X028402Y004055D01*
X028435Y004022D01*
X028984Y004022D01*
X029066Y004104D01*
X029066Y004121D01*
X029578Y004121D01*
X029779Y003919D01*
X030144Y003919D01*
X030401Y004177D01*
X030401Y004541D01*
X030144Y004799D01*
X030241Y004702D02*
X030682Y004702D01*
X030523Y004543D02*
X030400Y004543D01*
X030401Y004385D02*
X030521Y004385D01*
X030521Y004226D02*
X030401Y004226D01*
X030292Y004068D02*
X030631Y004068D01*
X031292Y004068D02*
X031404Y004068D01*
X031401Y004226D02*
X031404Y004226D01*
X031401Y004385D02*
X031404Y004385D01*
X031400Y004543D02*
X031404Y004543D01*
X031404Y003909D02*
X027629Y003909D01*
X028027Y003751D02*
X029201Y003751D01*
X029042Y003592D02*
X028083Y003592D01*
X028050Y003434D02*
X028884Y003434D01*
X028725Y003275D02*
X027848Y003275D01*
X027720Y003275D02*
X027117Y003275D01*
X027117Y003117D02*
X028567Y003117D01*
X028408Y002958D02*
X027114Y002958D01*
X026956Y002800D02*
X028250Y002800D01*
X027388Y003434D02*
X027117Y003434D01*
X027117Y003592D02*
X027230Y003592D01*
X027152Y003751D02*
X027117Y003751D01*
X027117Y003909D02*
X027152Y003909D01*
X027152Y004068D02*
X027117Y004068D01*
X027117Y004226D02*
X027152Y004226D01*
X027152Y004385D02*
X027117Y004385D01*
X027117Y004543D02*
X027152Y004543D01*
X027629Y004543D02*
X027644Y004543D01*
X027644Y004580D02*
X027644Y004377D01*
X028022Y004377D01*
X028022Y004736D01*
X027800Y004736D01*
X027754Y004724D01*
X027713Y004700D01*
X027680Y004666D01*
X027656Y004625D01*
X027644Y004580D01*
X027629Y004702D02*
X027716Y004702D01*
X028022Y004702D02*
X028059Y004702D01*
X028364Y004702D02*
X029682Y004702D01*
X028423Y005019D02*
X028383Y005019D01*
X028059Y004543D02*
X028022Y004543D01*
X028022Y004385D02*
X028059Y004385D01*
X028059Y004226D02*
X028022Y004226D01*
X028022Y004068D02*
X028059Y004068D01*
X027670Y004068D02*
X027629Y004068D01*
X027629Y004226D02*
X027644Y004226D01*
X027629Y004385D02*
X027644Y004385D01*
X029029Y004068D02*
X029631Y004068D01*
X031645Y003434D02*
X031738Y003434D01*
X027644Y005494D02*
X027629Y005494D01*
X027643Y005653D02*
X027681Y005653D01*
X030149Y006287D02*
X030774Y006287D01*
X030615Y006445D02*
X030307Y006445D01*
X030401Y006604D02*
X030521Y006604D01*
X030521Y006762D02*
X030401Y006762D01*
X030384Y006921D02*
X030538Y006921D01*
X030697Y007079D02*
X030226Y007079D01*
X029697Y007079D02*
X028827Y007079D01*
X028928Y006921D02*
X029538Y006921D01*
X027231Y007253D02*
X027231Y007253D01*
X027215Y007238D02*
X026925Y007238D01*
X020459Y006762D02*
X020439Y006762D01*
X020445Y006604D02*
X020459Y006604D01*
X020459Y006445D02*
X020441Y006445D01*
X020028Y006445D02*
X020028Y006445D01*
X016001Y008189D02*
X015946Y008189D01*
X018200Y009615D02*
X018372Y009615D01*
X018214Y009774D02*
X018200Y009774D01*
X018730Y009932D02*
X019081Y009932D01*
X019081Y009774D02*
X018888Y009774D01*
X018968Y009615D02*
X019081Y009615D01*
X019072Y010091D02*
X018571Y010091D01*
X018435Y010249D02*
X019021Y010249D01*
X019056Y010408D02*
X018339Y010408D01*
X017938Y010408D02*
X017846Y010408D01*
X017842Y010249D02*
X017786Y010249D01*
X017250Y010408D02*
X016999Y010408D01*
X016999Y010566D02*
X017268Y010566D01*
X017404Y010725D02*
X016999Y010725D01*
X016999Y010883D02*
X017723Y010883D01*
X017723Y011042D02*
X016999Y011042D01*
X016999Y011200D02*
X017723Y011200D01*
X017723Y011359D02*
X017011Y011359D01*
X017169Y011517D02*
X017723Y011517D01*
X018594Y010883D02*
X018758Y010883D01*
X018916Y010725D02*
X017693Y010725D01*
X017828Y010566D02*
X019062Y010566D01*
X017195Y010249D02*
X016999Y010249D01*
X016999Y010091D02*
X017037Y010091D01*
X008235Y003275D02*
X006586Y003275D01*
X006625Y003117D02*
X008195Y003117D01*
X008195Y002958D02*
X006625Y002958D01*
X006625Y002800D02*
X008195Y002800D01*
X005951Y003275D02*
X005917Y003275D01*
D24*
X006328Y003572D03*
X006918Y004044D03*
X008060Y004674D03*
X009871Y004359D03*
X011131Y004831D03*
X012706Y003808D03*
X013611Y004359D03*
X014989Y005343D03*
X017942Y005146D03*
X015186Y003375D03*
X011839Y002981D03*
X009280Y003532D03*
X008493Y003532D03*
X007509Y002469D03*
X007509Y001564D03*
X004950Y002981D03*
X002391Y004241D03*
X003493Y004713D03*
X004871Y005146D03*
X005973Y005265D03*
X004792Y005776D03*
X002391Y006485D03*
X004753Y007587D03*
X006091Y007272D03*
X008887Y007115D03*
X010658Y005934D03*
X002391Y008020D03*
X004753Y009438D03*
X002706Y009792D03*
X000816Y010265D03*
X003847Y011367D03*
X002036Y011957D03*
X015186Y009280D03*
X017548Y010461D03*
X018139Y010186D03*
X019320Y010265D03*
X018729Y009280D03*
X020737Y008611D03*
X022017Y008611D03*
X022469Y010461D03*
X021288Y011446D03*
X021682Y011839D03*
X026800Y007509D03*
X027784Y003572D03*
X026603Y002784D03*
D25*
X026879Y003060D01*
X026879Y006564D01*
X027469Y007154D01*
X028414Y007154D01*
X028690Y006879D01*
X028690Y006544D01*
X028709Y006524D01*
X029765Y006524D01*
X029961Y006721D01*
X028965Y005540D02*
X028572Y005934D01*
X027587Y005934D01*
X027391Y005737D01*
X027391Y003769D01*
X027587Y003572D01*
X027784Y003572D01*
X027981Y002194D02*
X029359Y003572D01*
X031446Y003572D01*
X031643Y003769D01*
X031643Y009871D01*
X031170Y010343D01*
X028178Y010343D01*
X027902Y010619D01*
X027902Y011095D01*
X027938Y011131D01*
X027312Y011918D02*
X026524Y011249D01*
X024438Y011249D01*
X024044Y010855D01*
X023769Y010855D01*
X023276Y010855D01*
X022489Y011249D01*
X021485Y011249D01*
X021288Y011446D01*
X021682Y011839D02*
X023847Y011839D01*
X023847Y011643D01*
X023769Y011643D01*
X024635Y010658D02*
X025422Y010658D01*
X025619Y010461D01*
X025619Y010127D01*
X025560Y010068D01*
X025560Y009083D01*
X024891Y009083D02*
X023808Y009083D01*
X023099Y009083D02*
X022017Y009083D01*
X022017Y008611D01*
X022017Y008099D01*
X021347Y008099D02*
X021347Y009083D01*
X020737Y008611D02*
X020725Y008599D01*
X020028Y008599D01*
X020028Y008099D02*
X021347Y008099D01*
X021347Y007646D01*
X021485Y007509D01*
X022863Y007509D01*
X023060Y007706D01*
X023060Y008060D01*
X023099Y008099D01*
X023808Y008099D02*
X023808Y007706D01*
X024005Y007509D01*
X025304Y007509D01*
X025560Y007765D01*
X025560Y008099D01*
X026800Y008040D02*
X026859Y008099D01*
X026800Y008040D02*
X026800Y007509D01*
X027528Y008099D02*
X027568Y008139D01*
X027568Y009044D01*
X028178Y009477D02*
X028178Y008296D01*
X028572Y007902D01*
X029961Y007902D01*
X028178Y009477D02*
X027942Y009713D01*
X027391Y009713D01*
X027194Y009910D01*
X024891Y010068D02*
X024497Y009674D01*
X020501Y009674D01*
X020426Y009599D01*
X020028Y009599D01*
X020107Y009678D01*
X020107Y011446D01*
X019910Y011643D01*
X019438Y011643D01*
X019241Y011839D01*
X017154Y011839D01*
X016761Y011446D01*
X016761Y010068D01*
X016367Y009674D01*
X011249Y009674D01*
X010765Y009190D01*
X010765Y008993D01*
X011249Y008477D02*
X011765Y008993D01*
X011249Y008477D02*
X011249Y007312D01*
X011839Y006721D01*
X011839Y002981D01*
X010658Y002194D02*
X010265Y002587D01*
X010265Y005737D01*
X009477Y006524D01*
X008099Y006524D01*
X007765Y006859D01*
X007765Y007993D01*
X006552Y006780D01*
X005343Y006780D01*
X004536Y006780D01*
X004005Y007312D01*
X004753Y007587D02*
X005206Y007587D01*
X005343Y007450D01*
X005914Y007450D01*
X006091Y007272D01*
X008296Y007312D02*
X008493Y007115D01*
X008887Y007115D01*
X008296Y007312D02*
X008296Y008493D01*
X008765Y008961D01*
X008765Y008993D01*
X009765Y008993D02*
X010265Y008493D01*
X010265Y007115D01*
X011052Y006328D01*
X011052Y004910D01*
X011131Y004831D01*
X009871Y005087D02*
X009871Y004359D01*
X009871Y005087D02*
X009221Y005737D01*
X009202Y005757D01*
X009202Y006013D01*
X009044Y006170D01*
X007902Y006170D01*
X007469Y005737D01*
X006269Y005737D01*
X004792Y005776D02*
X001800Y005776D01*
X001603Y005973D01*
X001603Y006977D01*
X001623Y006997D01*
X002194Y006997D01*
X002883Y007686D01*
X003139Y007686D01*
X002765Y008394D02*
X002391Y008020D01*
X002017Y007646D01*
X001603Y007646D01*
X002765Y008394D02*
X001938Y009221D01*
X001603Y009221D01*
X001209Y009831D02*
X000934Y009556D01*
X000934Y008729D01*
X001091Y008572D01*
X001583Y008572D01*
X001603Y008552D01*
X002765Y008394D02*
X002883Y008513D01*
X003139Y008513D01*
X003965Y008926D02*
X004005Y008887D01*
X004477Y008887D01*
X004792Y008572D01*
X005324Y008572D01*
X005343Y008552D01*
X005599Y008552D01*
X005658Y008493D01*
X007265Y008493D01*
X007765Y008993D01*
X008765Y007993D02*
X008796Y007993D01*
X010658Y006131D01*
X010658Y005934D01*
X013611Y004359D02*
X013765Y004513D01*
X013765Y007993D01*
X013898Y007993D01*
X015186Y009280D01*
X015639Y008946D02*
X015973Y009280D01*
X016564Y009280D01*
X017548Y010265D01*
X017548Y010461D01*
X017824Y009871D02*
X018139Y010186D01*
X018729Y009595D01*
X018729Y009280D01*
X019320Y009280D02*
X019320Y010265D01*
X019320Y010658D01*
X018729Y011249D01*
X018158Y011249D01*
X019320Y010737D02*
X019438Y010855D01*
X019320Y010737D02*
X019320Y010658D01*
X017824Y009871D02*
X017824Y009599D01*
X017824Y009099D02*
X016914Y009099D01*
X016308Y008493D01*
X016308Y007312D01*
X017824Y006599D02*
X017942Y006481D01*
X017942Y005146D01*
X019379Y004615D02*
X019910Y005146D01*
X020501Y005146D01*
X020580Y005225D01*
X020698Y005343D01*
X020698Y006918D01*
X020517Y007099D01*
X020028Y007099D01*
X020028Y007599D02*
X020607Y007599D01*
X021091Y007115D01*
X021091Y006131D01*
X021997Y005225D01*
X021820Y005048D01*
X021820Y003965D01*
X021820Y002784D01*
X019379Y003965D02*
X019379Y004615D01*
X015186Y003375D02*
X014989Y003572D01*
X014989Y005343D01*
X012765Y003867D02*
X012706Y003808D01*
X012765Y003867D02*
X012765Y007993D01*
X015639Y008493D02*
X015639Y008946D01*
X016308Y008493D02*
X016489Y008312D01*
X019320Y009280D02*
X019501Y009099D01*
X020028Y009099D01*
X022469Y010461D02*
X022666Y010265D01*
X024241Y010265D01*
X024635Y010658D01*
X027312Y011918D02*
X029674Y011918D01*
X029938Y011654D01*
X029938Y011131D01*
X029961Y005540D02*
X028965Y005540D01*
X028906Y005540D01*
X028709Y005343D01*
X028709Y004359D02*
X029961Y004359D01*
X027981Y002194D02*
X010658Y002194D01*
X007509Y002469D02*
X007509Y001564D01*
X006269Y002981D02*
X006328Y003040D01*
X006328Y003572D01*
X004753Y003572D01*
X004359Y003965D01*
X004359Y004024D01*
X002607Y004024D01*
X002391Y004241D01*
X003493Y004713D02*
X004339Y004713D01*
X004359Y004694D01*
X004950Y002981D02*
X005599Y002981D01*
X002686Y006485D02*
X002391Y006485D01*
X002686Y006485D02*
X003139Y006938D01*
X003965Y008926D02*
X003965Y009674D01*
X003375Y010265D01*
X000816Y010265D01*
X001209Y009831D02*
X002312Y009831D01*
X002509Y009635D01*
X002548Y009635D01*
X002706Y009792D01*
X002509Y009635D02*
X002883Y009261D01*
X003139Y009261D01*
X004753Y009438D02*
X004969Y009221D01*
X005343Y009221D01*
X003847Y011367D02*
X003338Y011367D01*
X002036Y011640D02*
X002036Y011957D01*
X002036Y011640D02*
X001763Y011367D01*
D26*
X004812Y005146D02*
X004359Y004694D01*
X004812Y005146D02*
X004871Y005146D01*
X006918Y004044D02*
X007489Y004044D01*
X007509Y004024D01*
X008454Y003572D02*
X008493Y003532D01*
X008493Y003040D01*
X008552Y002981D01*
X009221Y002981D02*
X009280Y003040D01*
X009280Y003532D01*
X008454Y003572D02*
X006328Y003572D01*
M02*
